{
	"asset":{
		"generator":"Khronos glTF Blender I/O v4.2.60",
		"version":"2.0"
	},
	"extensionsUsed":[
		"KHR_materials_specular"
	],
	"scene":0,
	"scenes":[
		{
			"name":"Scene",
			"nodes":[
				0
			]
		}
	],
	"nodes":[
		{
			"mesh":0,
			"name":"5596be79_CMDL",
			"rotation":[
				0.7071068286895752,
				0,
				0,
				0.7071068286895752
			]
		}
	],
	"materials":[
		{
			"doubleSided":true,
			"extensions":{
				"KHR_materials_specular":{
					"specularFactor":0
				}
			},
			"name":"Material__115",
			"pbrMetallicRoughness":{
				"baseColorTexture":{
					"index":0
				},
				"metallicFactor":0,
				"roughnessFactor":0.9009852409362793
			}
		},
		{
			"doubleSided":true,
			"extensions":{
				"KHR_materials_specular":{
					"specularFactor":0
				}
			},
			"name":"Material__116",
			"pbrMetallicRoughness":{
				"baseColorTexture":{
					"index":1
				},
				"metallicFactor":0,
				"roughnessFactor":0.9009852409362793
			}
		},
		{
			"doubleSided":true,
			"extensions":{
				"KHR_materials_specular":{
					"specularFactor":0
				}
			},
			"name":"Material__120",
			"pbrMetallicRoughness":{
				"baseColorTexture":{
					"index":2
				},
				"metallicFactor":0,
				"roughnessFactor":0.9009852409362793
			}
		},
		{
			"doubleSided":true,
			"extensions":{
				"KHR_materials_specular":{
					"specularFactor":0
				}
			},
			"name":"Material__117",
			"pbrMetallicRoughness":{
				"baseColorTexture":{
					"index":3
				},
				"metallicFactor":0,
				"roughnessFactor":0.9009852409362793
			}
		},
		{
			"doubleSided":true,
			"extensions":{
				"KHR_materials_specular":{
					"specularFactor":0
				}
			},
			"name":"Material__121",
			"pbrMetallicRoughness":{
				"baseColorTexture":{
					"index":4
				},
				"metallicFactor":0,
				"roughnessFactor":0.9009852409362793
			}
		},
		{
			"doubleSided":true,
			"extensions":{
				"KHR_materials_specular":{
					"specularFactor":0
				}
			},
			"name":"Material__122",
			"pbrMetallicRoughness":{
				"baseColorTexture":{
					"index":5
				},
				"metallicFactor":0,
				"roughnessFactor":0.9009852409362793
			}
		},
		{
			"doubleSided":true,
			"extensions":{
				"KHR_materials_specular":{
					"specularFactor":0
				}
			},
			"name":"Material__123",
			"pbrMetallicRoughness":{
				"baseColorTexture":{
					"index":6
				},
				"metallicFactor":0,
				"roughnessFactor":0.9009852409362793
			}
		},
		{
			"doubleSided":true,
			"extensions":{
				"KHR_materials_specular":{
					"specularFactor":0
				}
			},
			"name":"Material__119",
			"pbrMetallicRoughness":{
				"baseColorTexture":{
					"index":7
				},
				"metallicFactor":0,
				"roughnessFactor":0.9009852409362793
			}
		},
		{
			"doubleSided":true,
			"extensions":{
				"KHR_materials_specular":{
					"specularFactor":0
				}
			},
			"name":"Material__118",
			"pbrMetallicRoughness":{
				"baseColorTexture":{
					"index":8
				},
				"metallicFactor":0,
				"roughnessFactor":0.9009852409362793
			}
		}
	],
	"meshes":[
		{
			"name":"5596be79_CMDL",
			"primitives":[
				{
					"attributes":{
						"POSITION":0,
						"NORMAL":1,
						"TEXCOORD_0":2
					},
					"indices":3,
					"material":0
				},
				{
					"attributes":{
						"POSITION":4,
						"NORMAL":5,
						"TEXCOORD_0":6
					},
					"indices":7,
					"material":1
				},
				{
					"attributes":{
						"POSITION":8,
						"NORMAL":9,
						"TEXCOORD_0":10
					},
					"indices":11,
					"material":2
				},
				{
					"attributes":{
						"POSITION":12,
						"NORMAL":13,
						"TEXCOORD_0":14
					},
					"indices":15,
					"material":3
				},
				{
					"attributes":{
						"POSITION":16,
						"NORMAL":17,
						"TEXCOORD_0":18
					},
					"indices":19,
					"material":4
				},
				{
					"attributes":{
						"POSITION":20,
						"NORMAL":21,
						"TEXCOORD_0":22
					},
					"indices":23,
					"material":5
				},
				{
					"attributes":{
						"POSITION":24,
						"NORMAL":25,
						"TEXCOORD_0":26
					},
					"indices":27,
					"material":6
				},
				{
					"attributes":{
						"POSITION":28,
						"NORMAL":29,
						"TEXCOORD_0":30
					},
					"indices":31,
					"material":7
				},
				{
					"attributes":{
						"POSITION":32,
						"NORMAL":33,
						"TEXCOORD_0":34
					},
					"indices":35,
					"material":8
				}
			]
		}
	],
	"textures":[
		{
			"sampler":0,
			"source":0
		},
		{
			"sampler":0,
			"source":1
		},
		{
			"sampler":0,
			"source":2
		},
		{
			"sampler":0,
			"source":3
		},
		{
			"sampler":0,
			"source":4
		},
		{
			"sampler":0,
			"source":1
		},
		{
			"sampler":0,
			"source":5
		},
		{
			"sampler":0,
			"source":4
		},
		{
			"sampler":0,
			"source":1
		}
	],
	"images":[
		{
			"mimeType":"image/png",
			"name":"73934a6f",
			"uri":"73934a6f.png"
		},
		{
			"mimeType":"image/png",
			"name":"cdb10629",
			"uri":"cdb10629.png"
		},
		{
			"mimeType":"image/png",
			"name":"e76a88e5",
			"uri":"e76a88e5.png"
		},
		{
			"mimeType":"image/png",
			"name":"dca4e794",
			"uri":"dca4e794.png"
		},
		{
			"mimeType":"image/png",
			"name":"9a3351c1",
			"uri":"9a3351c1.png"
		},
		{
			"mimeType":"image/png",
			"name":"67245693",
			"uri":"67245693.png"
		}
	],
	"accessors":[
		{
			"bufferView":0,
			"componentType":5126,
			"count":216,
			"max":[
				0.0478999987244606,
				0.08389999717473984,
				0.07079999893903732
			],
			"min":[
				-0.3903000056743622,
				-0.07169999927282333,
				-0.0738999992609024
			],
			"type":"VEC3"
		},
		{
			"bufferView":1,
			"componentType":5126,
			"count":216,
			"type":"VEC3"
		},
		{
			"bufferView":2,
			"componentType":5126,
			"count":216,
			"type":"VEC2"
		},
		{
			"bufferView":3,
			"componentType":5123,
			"count":288,
			"type":"SCALAR"
		},
		{
			"bufferView":4,
			"componentType":5126,
			"count":1694,
			"max":[
				0.07410000264644623,
				0.10279999673366547,
				0.1256999969482422
			],
			"min":[
				-0.3495999872684479,
				-0.08240000158548355,
				-0.12999999523162842
			],
			"type":"VEC3"
		},
		{
			"bufferView":5,
			"componentType":5126,
			"count":1694,
			"type":"VEC3"
		},
		{
			"bufferView":6,
			"componentType":5126,
			"count":1694,
			"type":"VEC2"
		},
		{
			"bufferView":7,
			"componentType":5123,
			"count":2418,
			"type":"SCALAR"
		},
		{
			"bufferView":8,
			"componentType":5126,
			"count":36,
			"max":[
				-0.06920000165700912,
				0.07829999923706055,
				0.08190000057220459
			],
			"min":[
				-0.2743000090122223,
				0.06599999964237213,
				-0.08540000021457672
			],
			"type":"VEC3"
		},
		{
			"bufferView":9,
			"componentType":5126,
			"count":36,
			"type":"VEC3"
		},
		{
			"bufferView":10,
			"componentType":5126,
			"count":36,
			"type":"VEC2"
		},
		{
			"bufferView":11,
			"componentType":5123,
			"count":36,
			"type":"SCALAR"
		},
		{
			"bufferView":12,
			"componentType":5126,
			"count":1545,
			"max":[
				0.060499999672174454,
				0.08900000154972076,
				0.1185000017285347
			],
			"min":[
				-0.2782000005245209,
				-0.08240000158548355,
				-0.12280000001192093
			],
			"type":"VEC3"
		},
		{
			"bufferView":13,
			"componentType":5126,
			"count":1545,
			"type":"VEC3"
		},
		{
			"bufferView":14,
			"componentType":5126,
			"count":1545,
			"type":"VEC2"
		},
		{
			"bufferView":15,
			"componentType":5123,
			"count":1665,
			"type":"SCALAR"
		},
		{
			"bufferView":16,
			"componentType":5126,
			"count":452,
			"max":[
				0.04360000044107437,
				0.07569999992847443,
				0.1185000017285347
			],
			"min":[
				-0.23190000653266907,
				-0.09160000085830688,
				-0.12280000001192093
			],
			"type":"VEC3"
		},
		{
			"bufferView":17,
			"componentType":5126,
			"count":452,
			"type":"VEC3"
		},
		{
			"bufferView":18,
			"componentType":5126,
			"count":452,
			"type":"VEC2"
		},
		{
			"bufferView":19,
			"componentType":5123,
			"count":498,
			"type":"SCALAR"
		},
		{
			"bufferView":20,
			"componentType":5126,
			"count":356,
			"max":[
				-0.35569998621940613,
				0.09399999678134918,
				0.0803999975323677
			],
			"min":[
				-0.5364999771118164,
				-0.07039999961853027,
				-0.08489999920129776
			],
			"type":"VEC3"
		},
		{
			"bufferView":21,
			"componentType":5126,
			"count":356,
			"type":"VEC3"
		},
		{
			"bufferView":22,
			"componentType":5126,
			"count":356,
			"type":"VEC2"
		},
		{
			"bufferView":23,
			"componentType":5123,
			"count":672,
			"type":"SCALAR"
		},
		{
			"bufferView":24,
			"componentType":5126,
			"count":209,
			"max":[
				-0.31949999928474426,
				0.06849999725818634,
				0.04910000041127205
			],
			"min":[
				-0.5349000096321106,
				-0.03319999948143959,
				-0.053599998354911804
			],
			"type":"VEC3"
		},
		{
			"bufferView":25,
			"componentType":5126,
			"count":209,
			"type":"VEC3"
		},
		{
			"bufferView":26,
			"componentType":5126,
			"count":209,
			"type":"VEC2"
		},
		{
			"bufferView":27,
			"componentType":5123,
			"count":336,
			"type":"SCALAR"
		},
		{
			"bufferView":28,
			"componentType":5126,
			"count":878,
			"max":[
				0.05050000175833702,
				0.08900000154972076,
				0.14300000667572021
			],
			"min":[
				-0.2782000005245209,
				-0.07959999889135361,
				-0.1469999998807907
			],
			"type":"VEC3"
		},
		{
			"bufferView":29,
			"componentType":5126,
			"count":878,
			"type":"VEC3"
		},
		{
			"bufferView":30,
			"componentType":5126,
			"count":878,
			"type":"VEC2"
		},
		{
			"bufferView":31,
			"componentType":5123,
			"count":1014,
			"type":"SCALAR"
		},
		{
			"bufferView":32,
			"componentType":5126,
			"count":545,
			"max":[
				0.060499999672174454,
				0.09549999982118607,
				0.11829999834299088
			],
			"min":[
				-0.22579999268054962,
				-0.07959999889135361,
				-0.1225999966263771
			],
			"type":"VEC3"
		},
		{
			"bufferView":33,
			"componentType":5126,
			"count":545,
			"type":"VEC3"
		},
		{
			"bufferView":34,
			"componentType":5126,
			"count":545,
			"type":"VEC2"
		},
		{
			"bufferView":35,
			"componentType":5123,
			"count":588,
			"type":"SCALAR"
		}
	],
	"bufferViews":[
		{
			"buffer":0,
			"byteLength":2592,
			"byteOffset":0,
			"target":34962
		},
		{
			"buffer":0,
			"byteLength":2592,
			"byteOffset":2592,
			"target":34962
		},
		{
			"buffer":0,
			"byteLength":1728,
			"byteOffset":5184,
			"target":34962
		},
		{
			"buffer":0,
			"byteLength":576,
			"byteOffset":6912,
			"target":34963
		},
		{
			"buffer":0,
			"byteLength":20328,
			"byteOffset":7488,
			"target":34962
		},
		{
			"buffer":0,
			"byteLength":20328,
			"byteOffset":27816,
			"target":34962
		},
		{
			"buffer":0,
			"byteLength":13552,
			"byteOffset":48144,
			"target":34962
		},
		{
			"buffer":0,
			"byteLength":4836,
			"byteOffset":61696,
			"target":34963
		},
		{
			"buffer":0,
			"byteLength":432,
			"byteOffset":66532,
			"target":34962
		},
		{
			"buffer":0,
			"byteLength":432,
			"byteOffset":66964,
			"target":34962
		},
		{
			"buffer":0,
			"byteLength":288,
			"byteOffset":67396,
			"target":34962
		},
		{
			"buffer":0,
			"byteLength":72,
			"byteOffset":67684,
			"target":34963
		},
		{
			"buffer":0,
			"byteLength":18540,
			"byteOffset":67756,
			"target":34962
		},
		{
			"buffer":0,
			"byteLength":18540,
			"byteOffset":86296,
			"target":34962
		},
		{
			"buffer":0,
			"byteLength":12360,
			"byteOffset":104836,
			"target":34962
		},
		{
			"buffer":0,
			"byteLength":3330,
			"byteOffset":117196,
			"target":34963
		},
		{
			"buffer":0,
			"byteLength":5424,
			"byteOffset":120528,
			"target":34962
		},
		{
			"buffer":0,
			"byteLength":5424,
			"byteOffset":125952,
			"target":34962
		},
		{
			"buffer":0,
			"byteLength":3616,
			"byteOffset":131376,
			"target":34962
		},
		{
			"buffer":0,
			"byteLength":996,
			"byteOffset":134992,
			"target":34963
		},
		{
			"buffer":0,
			"byteLength":4272,
			"byteOffset":135988,
			"target":34962
		},
		{
			"buffer":0,
			"byteLength":4272,
			"byteOffset":140260,
			"target":34962
		},
		{
			"buffer":0,
			"byteLength":2848,
			"byteOffset":144532,
			"target":34962
		},
		{
			"buffer":0,
			"byteLength":1344,
			"byteOffset":147380,
			"target":34963
		},
		{
			"buffer":0,
			"byteLength":2508,
			"byteOffset":148724,
			"target":34962
		},
		{
			"buffer":0,
			"byteLength":2508,
			"byteOffset":151232,
			"target":34962
		},
		{
			"buffer":0,
			"byteLength":1672,
			"byteOffset":153740,
			"target":34962
		},
		{
			"buffer":0,
			"byteLength":672,
			"byteOffset":155412,
			"target":34963
		},
		{
			"buffer":0,
			"byteLength":10536,
			"byteOffset":156084,
			"target":34962
		},
		{
			"buffer":0,
			"byteLength":10536,
			"byteOffset":166620,
			"target":34962
		},
		{
			"buffer":0,
			"byteLength":7024,
			"byteOffset":177156,
			"target":34962
		},
		{
			"buffer":0,
			"byteLength":2028,
			"byteOffset":184180,
			"target":34963
		},
		{
			"buffer":0,
			"byteLength":6540,
			"byteOffset":186208,
			"target":34962
		},
		{
			"buffer":0,
			"byteLength":6540,
			"byteOffset":192748,
			"target":34962
		},
		{
			"buffer":0,
			"byteLength":4360,
			"byteOffset":199288,
			"target":34962
		},
		{
			"buffer":0,
			"byteLength":1176,
			"byteOffset":203648,
			"target":34963
		}
	],
	"samplers":[
		{
			"magFilter":9729,
			"minFilter":9987
		}
	],
	"buffers":[
		{
			"byteLength":204824,
			"uri":"armcannon.bin"
		}
	]
}
