{
	"asset":{
		"generator":"Khronos glTF Blender I/O v4.2.60",
		"version":"2.0"
	},
	"extensionsUsed":[
		"KHR_materials_transmission",
		"KHR_materials_specular",
		"KHR_materials_ior"
	],
	"scene":0,
	"scenes":[
		{
			"name":"Scene",
			"nodes":[
				0
			]
		}
	],
	"nodes":[
		{
			"mesh":0,
			"name":"ship",
			"rotation":[
				0.7071068286895752,
				0,
				0,
				0.7071068286895752
			]
		}
	],
	"materials":[
		{
			"doubleSided":true,
			"extensions":{
				"KHR_materials_transmission":{
					"transmissionFactor":1
				},
				"KHR_materials_specular":{
					"specularFactor":0
				},
				"KHR_materials_ior":{
					"ior":1
				}
			},
			"name":"mat6",
			"pbrMetallicRoughness":{
				"baseColorTexture":{
					"index":0
				},
				"metallicFactor":0,
				"roughnessFactor":0.8999999761581421
			}
		},
		{
			"doubleSided":true,
			"extensions":{
				"KHR_materials_transmission":{
					"transmissionFactor":1
				},
				"KHR_materials_specular":{
					"specularFactor":0
				},
				"KHR_materials_ior":{
					"ior":1
				}
			},
			"name":"mat3",
			"pbrMetallicRoughness":{
				"baseColorTexture":{
					"index":1
				},
				"metallicFactor":0,
				"roughnessFactor":0.8999999761581421
			}
		},
		{
			"doubleSided":true,
			"extensions":{
				"KHR_materials_transmission":{
					"transmissionFactor":1
				},
				"KHR_materials_specular":{
					"specularFactor":0
				},
				"KHR_materials_ior":{
					"ior":1
				}
			},
			"name":"mat2",
			"pbrMetallicRoughness":{
				"baseColorTexture":{
					"index":2
				},
				"metallicFactor":0,
				"roughnessFactor":0.8999999761581421
			}
		},
		{
			"doubleSided":true,
			"extensions":{
				"KHR_materials_transmission":{
					"transmissionFactor":1
				},
				"KHR_materials_specular":{
					"specularFactor":0
				},
				"KHR_materials_ior":{
					"ior":1
				}
			},
			"name":"mat8",
			"pbrMetallicRoughness":{
				"baseColorTexture":{
					"index":3
				},
				"metallicFactor":0,
				"roughnessFactor":0.8999999761581421
			}
		},
		{
			"doubleSided":true,
			"extensions":{
				"KHR_materials_transmission":{
					"transmissionFactor":1
				},
				"KHR_materials_specular":{
					"specularFactor":0
				},
				"KHR_materials_ior":{
					"ior":1
				}
			},
			"name":"mat7",
			"pbrMetallicRoughness":{
				"baseColorTexture":{
					"index":4
				},
				"metallicFactor":0,
				"roughnessFactor":0.8999999761581421
			}
		},
		{
			"doubleSided":true,
			"extensions":{
				"KHR_materials_transmission":{
					"transmissionFactor":1
				},
				"KHR_materials_specular":{
					"specularFactor":0
				},
				"KHR_materials_ior":{
					"ior":1
				}
			},
			"name":"mat5",
			"pbrMetallicRoughness":{
				"baseColorTexture":{
					"index":5
				},
				"metallicFactor":0,
				"roughnessFactor":0.8999999761581421
			}
		},
		{
			"doubleSided":true,
			"extensions":{
				"KHR_materials_transmission":{
					"transmissionFactor":1
				},
				"KHR_materials_specular":{
					"specularFactor":0
				},
				"KHR_materials_ior":{
					"ior":1
				}
			},
			"name":"mat4",
			"pbrMetallicRoughness":{
				"baseColorTexture":{
					"index":6
				},
				"metallicFactor":0,
				"roughnessFactor":0.8999999761581421
			}
		},
		{
			"doubleSided":true,
			"extensions":{
				"KHR_materials_transmission":{
					"transmissionFactor":1
				},
				"KHR_materials_specular":{
					"specularFactor":0
				},
				"KHR_materials_ior":{
					"ior":1
				}
			},
			"name":"mat9",
			"pbrMetallicRoughness":{
				"baseColorTexture":{
					"index":7
				},
				"metallicFactor":0,
				"roughnessFactor":0.8999999761581421
			}
		},
		{
			"doubleSided":true,
			"extensions":{
				"KHR_materials_transmission":{
					"transmissionFactor":1
				},
				"KHR_materials_specular":{
					"specularFactor":0
				},
				"KHR_materials_ior":{
					"ior":1
				}
			},
			"name":"mat1",
			"pbrMetallicRoughness":{
				"baseColorTexture":{
					"index":8
				},
				"metallicFactor":0,
				"roughnessFactor":0.8999999761581421
			}
		},
		{
			"doubleSided":true,
			"extensions":{
				"KHR_materials_transmission":{
					"transmissionFactor":1
				},
				"KHR_materials_specular":{
					"specularFactor":0
				},
				"KHR_materials_ior":{
					"ior":1
				}
			},
			"name":"mat10",
			"pbrMetallicRoughness":{
				"metallicFactor":0,
				"roughnessFactor":0.8999999761581421
			}
		}
	],
	"meshes":[
		{
			"name":"ship",
			"primitives":[
				{
					"attributes":{
						"POSITION":0,
						"NORMAL":1,
						"TEXCOORD_0":2
					},
					"indices":3,
					"material":0
				},
				{
					"attributes":{
						"POSITION":4,
						"NORMAL":5,
						"TEXCOORD_0":6
					},
					"indices":7,
					"material":1
				},
				{
					"attributes":{
						"POSITION":8,
						"NORMAL":9,
						"TEXCOORD_0":10
					},
					"indices":11,
					"material":2
				},
				{
					"attributes":{
						"POSITION":12,
						"NORMAL":13,
						"TEXCOORD_0":14
					},
					"indices":15,
					"material":3
				},
				{
					"attributes":{
						"POSITION":16,
						"NORMAL":17,
						"TEXCOORD_0":18
					},
					"indices":19,
					"material":4
				},
				{
					"attributes":{
						"POSITION":20,
						"NORMAL":21,
						"TEXCOORD_0":22
					},
					"indices":23,
					"material":5
				},
				{
					"attributes":{
						"POSITION":24,
						"NORMAL":25,
						"TEXCOORD_0":26
					},
					"indices":27,
					"material":6
				},
				{
					"attributes":{
						"POSITION":28,
						"NORMAL":29,
						"TEXCOORD_0":30
					},
					"indices":31,
					"material":7
				},
				{
					"attributes":{
						"POSITION":32,
						"NORMAL":33,
						"TEXCOORD_0":34
					},
					"indices":35,
					"material":8
				},
				{
					"attributes":{
						"POSITION":36,
						"NORMAL":37,
						"TEXCOORD_0":38
					},
					"indices":39,
					"material":9
				}
			]
		}
	],
	"textures":[
		{
			"sampler":0,
			"source":0
		},
		{
			"sampler":0,
			"source":1
		},
		{
			"sampler":0,
			"source":2
		},
		{
			"sampler":0,
			"source":3
		},
		{
			"sampler":0,
			"source":4
		},
		{
			"sampler":0,
			"source":4
		},
		{
			"sampler":0,
			"source":5
		},
		{
			"sampler":0,
			"source":6
		},
		{
			"sampler":0,
			"source":7
		}
	],
	"images":[
		{
			"mimeType":"image/png",
			"name":"samusship_cannboos",
			"uri":"samusship_cannboos.png"
		},
		{
			"mimeType":"image/png",
			"name":"samusship_hatch",
			"uri":"samusship_hatch.png"
		},
		{
			"mimeType":"image/png",
			"name":"samusship_lamdgear_center",
			"uri":"samusship_lamdgear_center.png"
		},
		{
			"mimeType":"image/png",
			"name":"samusship_fin",
			"uri":"samusship_fin.png"
		},
		{
			"mimeType":"image/png",
			"name":"samus_ship_body",
			"uri":"samus_ship_body.png"
		},
		{
			"mimeType":"image/png",
			"name":"ship_hatch_pole",
			"uri":"ship_hatch_pole.png"
		},
		{
			"mimeType":"image/png",
			"name":"samusship_under",
			"uri":"samusship_under.png"
		},
		{
			"mimeType":"image/png",
			"name":"samusship_lamdgear",
			"uri":"samusship_lamdgear.png"
		}
	],
	"accessors":[
		{
			"bufferView":0,
			"componentType":5126,
			"count":1614,
			"max":[
				3.590575933456421,
				3.397217035293579,
				0.5280759930610657
			],
			"min":[
				-3.590575933456421,
				-6.30419921875,
				-1.1745610237121582
			],
			"type":"VEC3"
		},
		{
			"bufferView":1,
			"componentType":5126,
			"count":1614,
			"type":"VEC3"
		},
		{
			"bufferView":2,
			"componentType":5126,
			"count":1614,
			"type":"VEC2"
		},
		{
			"bufferView":3,
			"componentType":5123,
			"count":6960,
			"type":"SCALAR"
		},
		{
			"bufferView":4,
			"componentType":5126,
			"count":431,
			"max":[
				1.7636719942092896,
				1.3261719942092896,
				3.408241033554077
			],
			"min":[
				-1.7727049589157104,
				-4.818115234375,
				-0.5322269797325134
			],
			"type":"VEC3"
		},
		{
			"bufferView":5,
			"componentType":5126,
			"count":431,
			"type":"VEC3"
		},
		{
			"bufferView":6,
			"componentType":5126,
			"count":431,
			"type":"VEC2"
		},
		{
			"bufferView":7,
			"componentType":5123,
			"count":1116,
			"type":"SCALAR"
		},
		{
			"bufferView":8,
			"componentType":5126,
			"count":1591,
			"max":[
				4.4751811027526855,
				4.015766143798828,
				2.6937289237976074
			],
			"min":[
				-4.4751811027526855,
				-3.06071400642395,
				0.9276160001754761
			],
			"type":"VEC3"
		},
		{
			"bufferView":9,
			"componentType":5126,
			"count":1591,
			"type":"VEC3"
		},
		{
			"bufferView":10,
			"componentType":5126,
			"count":1591,
			"type":"VEC2"
		},
		{
			"bufferView":11,
			"componentType":5123,
			"count":5220,
			"type":"SCALAR"
		},
		{
			"bufferView":12,
			"componentType":5126,
			"count":879,
			"max":[
				3.644531011581421,
				-3.914794921875,
				0.2409670054912567
			],
			"min":[
				-3.644531011581421,
				-6.015137195587158,
				-2.139893054962158
			],
			"type":"VEC3"
		},
		{
			"bufferView":13,
			"componentType":5126,
			"count":879,
			"type":"VEC3"
		},
		{
			"bufferView":14,
			"componentType":5126,
			"count":879,
			"type":"VEC2"
		},
		{
			"bufferView":15,
			"componentType":5123,
			"count":3288,
			"type":"SCALAR"
		},
		{
			"bufferView":16,
			"componentType":5126,
			"count":289,
			"max":[
				2.613037109375,
				5.723876953125,
				0.5483400225639343
			],
			"min":[
				-2.613037109375,
				2.836669921875,
				-1.3317869901657104
			],
			"type":"VEC3"
		},
		{
			"bufferView":17,
			"componentType":5126,
			"count":289,
			"type":"VEC3"
		},
		{
			"bufferView":18,
			"componentType":5126,
			"count":289,
			"type":"VEC2"
		},
		{
			"bufferView":19,
			"componentType":5123,
			"count":1434,
			"type":"SCALAR"
		},
		{
			"bufferView":20,
			"componentType":5126,
			"count":6908,
			"max":[
				6.7763671875,
				5.846680164337158,
				0.9121090173721313
			],
			"min":[
				-6.7763671875,
				-7.97216796875,
				-3.3369140625
			],
			"type":"VEC3"
		},
		{
			"bufferView":21,
			"componentType":5126,
			"count":6908,
			"type":"VEC3"
		},
		{
			"bufferView":22,
			"componentType":5126,
			"count":6908,
			"type":"VEC2"
		},
		{
			"bufferView":23,
			"componentType":5123,
			"count":31872,
			"type":"SCALAR"
		},
		{
			"bufferView":24,
			"componentType":5126,
			"count":485,
			"max":[
				1.0660400390625,
				0.7810059785842896,
				3.267738103866577
			],
			"min":[
				-1.0660400390625,
				-2.041016101837158,
				-0.17370599508285522
			],
			"type":"VEC3"
		},
		{
			"bufferView":25,
			"componentType":5126,
			"count":485,
			"type":"VEC3"
		},
		{
			"bufferView":26,
			"componentType":5126,
			"count":485,
			"type":"VEC2"
		},
		{
			"bufferView":27,
			"componentType":5123,
			"count":1434,
			"type":"SCALAR"
		},
		{
			"bufferView":28,
			"componentType":5126,
			"count":1824,
			"max":[
				6.202880859375,
				5.789307117462158,
				1.002197027206421
			],
			"min":[
				-6.202880859375,
				-5.8125,
				-1.2099610567092896
			],
			"type":"VEC3"
		},
		{
			"bufferView":29,
			"componentType":5126,
			"count":1824,
			"type":"VEC3"
		},
		{
			"bufferView":30,
			"componentType":5126,
			"count":1824,
			"type":"VEC2"
		},
		{
			"bufferView":31,
			"componentType":5123,
			"count":6210,
			"type":"SCALAR"
		},
		{
			"bufferView":32,
			"componentType":5126,
			"count":3378,
			"max":[
				5.285889148712158,
				4.838134765625,
				3.408133029937744
			],
			"min":[
				-5.285889148712158,
				-3.883057117462158,
				-0.0034179999493062496
			],
			"type":"VEC3"
		},
		{
			"bufferView":33,
			"componentType":5126,
			"count":3378,
			"type":"VEC3"
		},
		{
			"bufferView":34,
			"componentType":5126,
			"count":3378,
			"type":"VEC2"
		},
		{
			"bufferView":35,
			"componentType":5123,
			"count":10872,
			"type":"SCALAR"
		},
		{
			"bufferView":36,
			"componentType":5126,
			"count":4,
			"max":[
				0,
				-1.5282549858093262,
				3.033790111541748
			],
			"min":[
				-0.5939329862594604,
				-1.5662800073623657,
				3.033790111541748
			],
			"type":"VEC3"
		},
		{
			"bufferView":37,
			"componentType":5126,
			"count":4,
			"type":"VEC3"
		},
		{
			"bufferView":38,
			"componentType":5126,
			"count":4,
			"type":"VEC2"
		},
		{
			"bufferView":39,
			"componentType":5123,
			"count":6,
			"type":"SCALAR"
		}
	],
	"bufferViews":[
		{
			"buffer":0,
			"byteLength":19368,
			"byteOffset":0,
			"target":34962
		},
		{
			"buffer":0,
			"byteLength":19368,
			"byteOffset":19368,
			"target":34962
		},
		{
			"buffer":0,
			"byteLength":12912,
			"byteOffset":38736,
			"target":34962
		},
		{
			"buffer":0,
			"byteLength":13920,
			"byteOffset":51648,
			"target":34963
		},
		{
			"buffer":0,
			"byteLength":5172,
			"byteOffset":65568,
			"target":34962
		},
		{
			"buffer":0,
			"byteLength":5172,
			"byteOffset":70740,
			"target":34962
		},
		{
			"buffer":0,
			"byteLength":3448,
			"byteOffset":75912,
			"target":34962
		},
		{
			"buffer":0,
			"byteLength":2232,
			"byteOffset":79360,
			"target":34963
		},
		{
			"buffer":0,
			"byteLength":19092,
			"byteOffset":81592,
			"target":34962
		},
		{
			"buffer":0,
			"byteLength":19092,
			"byteOffset":100684,
			"target":34962
		},
		{
			"buffer":0,
			"byteLength":12728,
			"byteOffset":119776,
			"target":34962
		},
		{
			"buffer":0,
			"byteLength":10440,
			"byteOffset":132504,
			"target":34963
		},
		{
			"buffer":0,
			"byteLength":10548,
			"byteOffset":142944,
			"target":34962
		},
		{
			"buffer":0,
			"byteLength":10548,
			"byteOffset":153492,
			"target":34962
		},
		{
			"buffer":0,
			"byteLength":7032,
			"byteOffset":164040,
			"target":34962
		},
		{
			"buffer":0,
			"byteLength":6576,
			"byteOffset":171072,
			"target":34963
		},
		{
			"buffer":0,
			"byteLength":3468,
			"byteOffset":177648,
			"target":34962
		},
		{
			"buffer":0,
			"byteLength":3468,
			"byteOffset":181116,
			"target":34962
		},
		{
			"buffer":0,
			"byteLength":2312,
			"byteOffset":184584,
			"target":34962
		},
		{
			"buffer":0,
			"byteLength":2868,
			"byteOffset":186896,
			"target":34963
		},
		{
			"buffer":0,
			"byteLength":82896,
			"byteOffset":189764,
			"target":34962
		},
		{
			"buffer":0,
			"byteLength":82896,
			"byteOffset":272660,
			"target":34962
		},
		{
			"buffer":0,
			"byteLength":55264,
			"byteOffset":355556,
			"target":34962
		},
		{
			"buffer":0,
			"byteLength":63744,
			"byteOffset":410820,
			"target":34963
		},
		{
			"buffer":0,
			"byteLength":5820,
			"byteOffset":474564,
			"target":34962
		},
		{
			"buffer":0,
			"byteLength":5820,
			"byteOffset":480384,
			"target":34962
		},
		{
			"buffer":0,
			"byteLength":3880,
			"byteOffset":486204,
			"target":34962
		},
		{
			"buffer":0,
			"byteLength":2868,
			"byteOffset":490084,
			"target":34963
		},
		{
			"buffer":0,
			"byteLength":21888,
			"byteOffset":492952,
			"target":34962
		},
		{
			"buffer":0,
			"byteLength":21888,
			"byteOffset":514840,
			"target":34962
		},
		{
			"buffer":0,
			"byteLength":14592,
			"byteOffset":536728,
			"target":34962
		},
		{
			"buffer":0,
			"byteLength":12420,
			"byteOffset":551320,
			"target":34963
		},
		{
			"buffer":0,
			"byteLength":40536,
			"byteOffset":563740,
			"target":34962
		},
		{
			"buffer":0,
			"byteLength":40536,
			"byteOffset":604276,
			"target":34962
		},
		{
			"buffer":0,
			"byteLength":27024,
			"byteOffset":644812,
			"target":34962
		},
		{
			"buffer":0,
			"byteLength":21744,
			"byteOffset":671836,
			"target":34963
		},
		{
			"buffer":0,
			"byteLength":48,
			"byteOffset":693580,
			"target":34962
		},
		{
			"buffer":0,
			"byteLength":48,
			"byteOffset":693628,
			"target":34962
		},
		{
			"buffer":0,
			"byteLength":32,
			"byteOffset":693676,
			"target":34962
		},
		{
			"buffer":0,
			"byteLength":12,
			"byteOffset":693708,
			"target":34963
		}
	],
	"samplers":[
		{
			"magFilter":9729,
			"minFilter":9987
		}
	],
	"buffers":[
		{
			"byteLength":693720,
			"uri":"samusship.bin"
		}
	]
}
