{
	"asset":{
		"generator":"Khronos glTF Blender I/O v4.2.60",
		"version":"2.0"
	},
	"extensionsUsed":[
		"KHR_materials_specular"
	],
	"scene":0,
	"scenes":[
		{
			"name":"Scene",
			"nodes":[
				0,
				13
			]
		}
	],
	"nodes":[
		{
			"mesh":0,
			"name":"m8_1"
		},
		{
			"name":"Default",
			"rotation":[
				3.552713678800501e-15,
				0,
				0,
				1
			]
		},
		{
			"name":"00_VR",
			"rotation":[
				3.552713678800501e-15,
				0,
				0,
				1
			]
		},
		{
			"children":[
				1,
				2
			],
			"name":"EXskyDarkTrain",
			"rotation":[
				3.552713678800501e-15,
				0,
				0,
				1
			]
		},
		{
			"children":[
				3
			],
			"name":"root",
			"rotation":[
				-0.7071067690849304,
				0,
				0,
				0.7071067690849304
			]
		},
		{
			"mesh":1,
			"name":"m0",
			"skin":0
		},
		{
			"mesh":2,
			"name":"m1",
			"skin":0
		},
		{
			"mesh":3,
			"name":"m2",
			"skin":0
		},
		{
			"mesh":4,
			"name":"m3",
			"skin":0
		},
		{
			"mesh":5,
			"name":"m4",
			"skin":0
		},
		{
			"mesh":6,
			"name":"m5",
			"skin":0
		},
		{
			"mesh":7,
			"name":"m6",
			"skin":0
		},
		{
			"mesh":8,
			"name":"m7",
			"skin":0
		},
		{
			"children":[
				5,
				6,
				7,
				8,
				9,
				10,
				11,
				12,
				4
			],
			"name":"Armature",
			"rotation":[
				0.7071068286895752,
				0,
				0,
				0.7071068286895752
			],
			"scale":[
				0.0006251307786442339,
				0.0006251307786442339,
				0.0006251307786442339
			]
		}
	],
	"materials":[
		{
			"doubleSided":true,
			"extensions":{
				"KHR_materials_specular":{
					"specularFactor":0
				}
			},
			"name":"_o28_uv2",
			"pbrMetallicRoughness":{
				"baseColorTexture":{
					"index":0
				},
				"metallicFactor":0,
				"roughnessFactor":0.5
			}
		},
		{
			"doubleSided":true,
			"extensions":{
				"KHR_materials_specular":{
					"specularFactor":0
				}
			},
			"name":"_01_Rail",
			"pbrMetallicRoughness":{
				"baseColorTexture":{
					"index":1
				},
				"metallicFactor":0,
				"roughnessFactor":0.5
			}
		},
		{
			"doubleSided":true,
			"extensions":{
				"KHR_materials_specular":{
					"specularFactor":0
				}
			},
			"name":"_01_Rail_1",
			"pbrMetallicRoughness":{
				"baseColorTexture":{
					"index":2
				},
				"metallicFactor":0,
				"roughnessFactor":0.5
			}
		},
		{
			"doubleSided":true,
			"extensions":{
				"KHR_materials_specular":{
					"specularFactor":0
				}
			},
			"name":"_01_Rail_3",
			"pbrMetallicRoughness":{
				"baseColorTexture":{
					"index":3
				},
				"metallicFactor":0,
				"roughnessFactor":0.5
			}
		},
		{
			"doubleSided":true,
			"extensions":{
				"KHR_materials_specular":{
					"specularFactor":0
				}
			},
			"name":"_01_Rail_5",
			"pbrMetallicRoughness":{
				"baseColorTexture":{
					"index":4
				},
				"metallicFactor":0,
				"roughnessFactor":0.5
			}
		},
		{
			"doubleSided":true,
			"extensions":{
				"KHR_materials_specular":{
					"specularFactor":0
				}
			},
			"name":"_01_Rail_6",
			"pbrMetallicRoughness":{
				"baseColorTexture":{
					"index":5
				},
				"metallicFactor":0,
				"roughnessFactor":0.5
			}
		},
		{
			"doubleSided":true,
			"extensions":{
				"KHR_materials_specular":{
					"specularFactor":0
				}
			},
			"name":"_silen",
			"pbrMetallicRoughness":{
				"baseColorTexture":{
					"index":6
				},
				"metallicFactor":0,
				"roughnessFactor":0.5
			}
		},
		{
			"doubleSided":true,
			"extensions":{
				"KHR_materials_specular":{
					"specularFactor":0
				}
			},
			"name":"_plane",
			"pbrMetallicRoughness":{
				"baseColorTexture":{
					"index":7
				},
				"metallicFactor":0,
				"roughnessFactor":0.5
			}
		},
		{
			"doubleSided":true,
			"extensions":{
				"KHR_materials_specular":{
					"specularFactor":0
				}
			},
			"name":"_cloud",
			"pbrMetallicRoughness":{
				"baseColorTexture":{
					"index":8
				},
				"metallicFactor":0,
				"roughnessFactor":0.5
			}
		}
	],
	"meshes":[
		{
			"name":"mesh8_1",
			"primitives":[
				{
					"attributes":{
						"POSITION":0,
						"NORMAL":1,
						"TEXCOORD_0":2
					},
					"indices":3,
					"material":0
				}
			]
		},
		{
			"name":"mesh0",
			"primitives":[
				{
					"attributes":{
						"POSITION":4,
						"NORMAL":5,
						"TEXCOORD_0":6,
						"COLOR_0":7,
						"COLOR_1":8,
						"JOINTS_0":9,
						"WEIGHTS_0":10
					},
					"indices":11,
					"material":1
				}
			]
		},
		{
			"name":"mesh1",
			"primitives":[
				{
					"attributes":{
						"POSITION":13,
						"NORMAL":14,
						"TEXCOORD_0":15,
						"COLOR_0":16,
						"COLOR_1":17,
						"JOINTS_0":18,
						"WEIGHTS_0":19
					},
					"indices":11,
					"material":2
				}
			]
		},
		{
			"name":"mesh2",
			"primitives":[
				{
					"attributes":{
						"POSITION":20,
						"NORMAL":21,
						"TEXCOORD_0":22,
						"COLOR_0":23,
						"COLOR_1":24,
						"JOINTS_0":25,
						"WEIGHTS_0":26
					},
					"indices":11,
					"material":3
				}
			]
		},
		{
			"name":"mesh3",
			"primitives":[
				{
					"attributes":{
						"POSITION":27,
						"NORMAL":28,
						"TEXCOORD_0":29,
						"COLOR_0":30,
						"COLOR_1":31,
						"JOINTS_0":32,
						"WEIGHTS_0":33
					},
					"indices":11,
					"material":4
				}
			]
		},
		{
			"name":"mesh4",
			"primitives":[
				{
					"attributes":{
						"POSITION":34,
						"NORMAL":35,
						"TEXCOORD_0":36,
						"COLOR_0":37,
						"COLOR_1":38,
						"JOINTS_0":39,
						"WEIGHTS_0":40
					},
					"indices":41,
					"material":5
				}
			]
		},
		{
			"name":"mesh5",
			"primitives":[
				{
					"attributes":{
						"POSITION":42,
						"NORMAL":43,
						"TEXCOORD_0":44,
						"COLOR_0":45,
						"COLOR_1":46,
						"JOINTS_0":47,
						"WEIGHTS_0":48
					},
					"indices":49,
					"material":6
				}
			]
		},
		{
			"name":"mesh6",
			"primitives":[
				{
					"attributes":{
						"POSITION":50,
						"NORMAL":51,
						"TEXCOORD_0":52,
						"COLOR_0":53,
						"COLOR_1":54,
						"JOINTS_0":55,
						"WEIGHTS_0":56
					},
					"indices":57,
					"material":7
				}
			]
		},
		{
			"name":"mesh7",
			"primitives":[
				{
					"attributes":{
						"POSITION":58,
						"NORMAL":59,
						"TEXCOORD_0":60,
						"COLOR_0":61,
						"COLOR_1":62,
						"JOINTS_0":63,
						"WEIGHTS_0":64
					},
					"indices":65,
					"material":8
				}
			]
		}
	],
	"textures":[
		{
			"sampler":0,
			"source":0
		},
		{
			"sampler":0,
			"source":1
		},
		{
			"sampler":0,
			"source":1
		},
		{
			"sampler":0,
			"source":1
		},
		{
			"sampler":0,
			"source":1
		},
		{
			"sampler":0,
			"source":2
		},
		{
			"sampler":0,
			"source":3
		},
		{
			"sampler":0,
			"source":4
		},
		{
			"sampler":0,
			"source":3
		}
	],
	"images":[
		{
			"mimeType":"image/png",
			"name":"B_sunsetgrade",
			"uri":"B_sunsetgrade.png"
		},
		{
			"mimeType":"image/png",
			"name":"B_exsky_Rail",
			"uri":"B_exsky_Rail.png"
		},
		{
			"mimeType":"image/png",
			"name":"B_exsky_Train",
			"uri":"B_exsky_Train.png"
		},
		{
			"mimeType":"image/png",
			"name":"B_exsky_Silen",
			"uri":"B_exsky_Silen.png"
		},
		{
			"mimeType":"image/png",
			"name":"B_exsky_Aplane",
			"uri":"B_exsky_Aplane.png"
		}
	],
	"skins":[
		{
			"inverseBindMatrices":12,
			"joints":[
				4,
				3,
				1,
				2
			],
			"name":"Armature"
		}
	],
	"accessors":[
		{
			"bufferView":0,
			"componentType":5126,
			"count":756,
			"max":[
				90000,
				90000,
				88891.9453125
			],
			"min":[
				-90000,
				-90000,
				-88891.9453125
			],
			"type":"VEC3"
		},
		{
			"bufferView":1,
			"componentType":5126,
			"count":756,
			"type":"VEC3"
		},
		{
			"bufferView":2,
			"componentType":5126,
			"count":756,
			"type":"VEC2"
		},
		{
			"bufferView":3,
			"componentType":5123,
			"count":4092,
			"type":"SCALAR"
		},
		{
			"bufferView":4,
			"componentType":5126,
			"count":90,
			"max":[
				62.51307678222656,
				4.719606295111589e-06,
				62.51307678222656
			],
			"min":[
				-62.51307678222656,
				-6.251312732696533,
				-62.51307678222656
			],
			"type":"VEC3"
		},
		{
			"bufferView":5,
			"componentType":5126,
			"count":90,
			"type":"VEC3"
		},
		{
			"bufferView":6,
			"componentType":5126,
			"count":90,
			"type":"VEC2"
		},
		{
			"bufferView":7,
			"componentType":5121,
			"count":90,
			"normalized":true,
			"type":"VEC4"
		},
		{
			"bufferView":8,
			"componentType":5126,
			"count":90,
			"type":"VEC3"
		},
		{
			"bufferView":9,
			"componentType":5121,
			"count":90,
			"type":"VEC4"
		},
		{
			"bufferView":10,
			"componentType":5126,
			"count":90,
			"type":"VEC4"
		},
		{
			"bufferView":11,
			"componentType":5123,
			"count":264,
			"type":"SCALAR"
		},
		{
			"bufferView":12,
			"componentType":5126,
			"count":4,
			"type":"MAT4"
		},
		{
			"bufferView":13,
			"componentType":5126,
			"count":90,
			"max":[
				51.76240158081055,
				13.474899291992188,
				53.70637130737305
			],
			"min":[
				-53.38036346435547,
				-19.513198852539062,
				-53.70637130737305
			],
			"type":"VEC3"
		},
		{
			"bufferView":14,
			"componentType":5126,
			"count":90,
			"type":"VEC3"
		},
		{
			"bufferView":15,
			"componentType":5126,
			"count":90,
			"type":"VEC2"
		},
		{
			"bufferView":16,
			"componentType":5121,
			"count":90,
			"normalized":true,
			"type":"VEC4"
		},
		{
			"bufferView":17,
			"componentType":5126,
			"count":90,
			"type":"VEC3"
		},
		{
			"bufferView":18,
			"componentType":5121,
			"count":90,
			"type":"VEC4"
		},
		{
			"bufferView":19,
			"componentType":5126,
			"count":90,
			"type":"VEC4"
		},
		{
			"bufferView":20,
			"componentType":5126,
			"count":90,
			"max":[
				57.34772872924805,
				20.05464744567871,
				53.251625061035156
			],
			"min":[
				-56.76959228515625,
				-26.247848510742188,
				-55.569190979003906
			],
			"type":"VEC3"
		},
		{
			"bufferView":21,
			"componentType":5126,
			"count":90,
			"type":"VEC3"
		},
		{
			"bufferView":22,
			"componentType":5126,
			"count":90,
			"type":"VEC2"
		},
		{
			"bufferView":23,
			"componentType":5121,
			"count":90,
			"normalized":true,
			"type":"VEC4"
		},
		{
			"bufferView":24,
			"componentType":5126,
			"count":90,
			"type":"VEC3"
		},
		{
			"bufferView":25,
			"componentType":5121,
			"count":90,
			"type":"VEC4"
		},
		{
			"bufferView":26,
			"componentType":5126,
			"count":90,
			"type":"VEC4"
		},
		{
			"bufferView":27,
			"componentType":5126,
			"count":90,
			"max":[
				26.468259811401367,
				43.575138092041016,
				48.10151290893555
			],
			"min":[
				-31.363595962524414,
				-46.34431838989258,
				-49.553707122802734
			],
			"type":"VEC3"
		},
		{
			"bufferView":28,
			"componentType":5126,
			"count":90,
			"type":"VEC3"
		},
		{
			"bufferView":29,
			"componentType":5126,
			"count":90,
			"type":"VEC2"
		},
		{
			"bufferView":30,
			"componentType":5121,
			"count":90,
			"normalized":true,
			"type":"VEC4"
		},
		{
			"bufferView":31,
			"componentType":5126,
			"count":90,
			"type":"VEC3"
		},
		{
			"bufferView":32,
			"componentType":5121,
			"count":90,
			"type":"VEC4"
		},
		{
			"bufferView":33,
			"componentType":5126,
			"count":90,
			"type":"VEC4"
		},
		{
			"bufferView":34,
			"componentType":5126,
			"count":90,
			"max":[
				57.24848175048828,
				26.438512802124023,
				55.640541076660156
			],
			"min":[
				-57.36552047729492,
				-25.1846981048584,
				-55.171348571777344
			],
			"type":"VEC3"
		},
		{
			"bufferView":35,
			"componentType":5126,
			"count":90,
			"type":"VEC3"
		},
		{
			"bufferView":36,
			"componentType":5126,
			"count":90,
			"type":"VEC2"
		},
		{
			"bufferView":37,
			"componentType":5121,
			"count":90,
			"normalized":true,
			"type":"VEC4"
		},
		{
			"bufferView":38,
			"componentType":5126,
			"count":90,
			"type":"VEC3"
		},
		{
			"bufferView":39,
			"componentType":5121,
			"count":90,
			"type":"VEC4"
		},
		{
			"bufferView":40,
			"componentType":5126,
			"count":90,
			"type":"VEC4"
		},
		{
			"bufferView":41,
			"componentType":5123,
			"count":264,
			"type":"SCALAR"
		},
		{
			"bufferView":42,
			"componentType":5126,
			"count":20,
			"max":[
				62.51307678222656,
				16.855138778686523,
				47.856475830078125
			],
			"min":[
				-56.86389923095703,
				-51.58506774902344,
				-63.245216369628906
			],
			"type":"VEC3"
		},
		{
			"bufferView":43,
			"componentType":5126,
			"count":20,
			"type":"VEC3"
		},
		{
			"bufferView":44,
			"componentType":5126,
			"count":20,
			"type":"VEC2"
		},
		{
			"bufferView":45,
			"componentType":5121,
			"count":20,
			"normalized":true,
			"type":"VEC4"
		},
		{
			"bufferView":46,
			"componentType":5126,
			"count":20,
			"type":"VEC3"
		},
		{
			"bufferView":47,
			"componentType":5121,
			"count":20,
			"type":"VEC4"
		},
		{
			"bufferView":48,
			"componentType":5126,
			"count":20,
			"type":"VEC4"
		},
		{
			"bufferView":49,
			"componentType":5123,
			"count":30,
			"type":"SCALAR"
		},
		{
			"bufferView":50,
			"componentType":5126,
			"count":180,
			"max":[
				73.32666015625,
				74.70854949951172,
				68.7643814086914
			],
			"min":[
				-62.996551513671875,
				19.39931869506836,
				-56.26177215576172
			],
			"type":"VEC3"
		},
		{
			"bufferView":51,
			"componentType":5126,
			"count":180,
			"type":"VEC3"
		},
		{
			"bufferView":52,
			"componentType":5126,
			"count":180,
			"type":"VEC2"
		},
		{
			"bufferView":53,
			"componentType":5121,
			"count":180,
			"normalized":true,
			"type":"VEC4"
		},
		{
			"bufferView":54,
			"componentType":5126,
			"count":180,
			"type":"VEC3"
		},
		{
			"bufferView":55,
			"componentType":5121,
			"count":180,
			"type":"VEC4"
		},
		{
			"bufferView":56,
			"componentType":5126,
			"count":180,
			"type":"VEC4"
		},
		{
			"bufferView":57,
			"componentType":5123,
			"count":528,
			"type":"SCALAR"
		},
		{
			"bufferView":58,
			"componentType":5126,
			"count":16,
			"max":[
				69.64704132080078,
				40.451446533203125,
				64.9922103881836
			],
			"min":[
				-49.39113998413086,
				26.55189323425293,
				-68.04029083251953
			],
			"type":"VEC3"
		},
		{
			"bufferView":59,
			"componentType":5126,
			"count":16,
			"type":"VEC3"
		},
		{
			"bufferView":60,
			"componentType":5126,
			"count":16,
			"type":"VEC2"
		},
		{
			"bufferView":61,
			"componentType":5121,
			"count":16,
			"normalized":true,
			"type":"VEC4"
		},
		{
			"bufferView":62,
			"componentType":5126,
			"count":16,
			"type":"VEC3"
		},
		{
			"bufferView":63,
			"componentType":5121,
			"count":16,
			"type":"VEC4"
		},
		{
			"bufferView":64,
			"componentType":5126,
			"count":16,
			"type":"VEC4"
		},
		{
			"bufferView":65,
			"componentType":5123,
			"count":24,
			"type":"SCALAR"
		}
	],
	"bufferViews":[
		{
			"buffer":0,
			"byteLength":9072,
			"byteOffset":0,
			"target":34962
		},
		{
			"buffer":0,
			"byteLength":9072,
			"byteOffset":9072,
			"target":34962
		},
		{
			"buffer":0,
			"byteLength":6048,
			"byteOffset":18144,
			"target":34962
		},
		{
			"buffer":0,
			"byteLength":8184,
			"byteOffset":24192,
			"target":34963
		},
		{
			"buffer":0,
			"byteLength":1080,
			"byteOffset":32376,
			"target":34962
		},
		{
			"buffer":0,
			"byteLength":1080,
			"byteOffset":33456,
			"target":34962
		},
		{
			"buffer":0,
			"byteLength":720,
			"byteOffset":34536,
			"target":34962
		},
		{
			"buffer":0,
			"byteLength":360,
			"byteOffset":35256,
			"target":34962
		},
		{
			"buffer":0,
			"byteLength":1080,
			"byteOffset":35616,
			"target":34962
		},
		{
			"buffer":0,
			"byteLength":360,
			"byteOffset":36696,
			"target":34962
		},
		{
			"buffer":0,
			"byteLength":1440,
			"byteOffset":37056,
			"target":34962
		},
		{
			"buffer":0,
			"byteLength":528,
			"byteOffset":38496,
			"target":34963
		},
		{
			"buffer":0,
			"byteLength":256,
			"byteOffset":39024
		},
		{
			"buffer":0,
			"byteLength":1080,
			"byteOffset":39280,
			"target":34962
		},
		{
			"buffer":0,
			"byteLength":1080,
			"byteOffset":40360,
			"target":34962
		},
		{
			"buffer":0,
			"byteLength":720,
			"byteOffset":41440,
			"target":34962
		},
		{
			"buffer":0,
			"byteLength":360,
			"byteOffset":42160,
			"target":34962
		},
		{
			"buffer":0,
			"byteLength":1080,
			"byteOffset":42520,
			"target":34962
		},
		{
			"buffer":0,
			"byteLength":360,
			"byteOffset":43600,
			"target":34962
		},
		{
			"buffer":0,
			"byteLength":1440,
			"byteOffset":43960,
			"target":34962
		},
		{
			"buffer":0,
			"byteLength":1080,
			"byteOffset":45400,
			"target":34962
		},
		{
			"buffer":0,
			"byteLength":1080,
			"byteOffset":46480,
			"target":34962
		},
		{
			"buffer":0,
			"byteLength":720,
			"byteOffset":47560,
			"target":34962
		},
		{
			"buffer":0,
			"byteLength":360,
			"byteOffset":48280,
			"target":34962
		},
		{
			"buffer":0,
			"byteLength":1080,
			"byteOffset":48640,
			"target":34962
		},
		{
			"buffer":0,
			"byteLength":360,
			"byteOffset":49720,
			"target":34962
		},
		{
			"buffer":0,
			"byteLength":1440,
			"byteOffset":50080,
			"target":34962
		},
		{
			"buffer":0,
			"byteLength":1080,
			"byteOffset":51520,
			"target":34962
		},
		{
			"buffer":0,
			"byteLength":1080,
			"byteOffset":52600,
			"target":34962
		},
		{
			"buffer":0,
			"byteLength":720,
			"byteOffset":53680,
			"target":34962
		},
		{
			"buffer":0,
			"byteLength":360,
			"byteOffset":54400,
			"target":34962
		},
		{
			"buffer":0,
			"byteLength":1080,
			"byteOffset":54760,
			"target":34962
		},
		{
			"buffer":0,
			"byteLength":360,
			"byteOffset":55840,
			"target":34962
		},
		{
			"buffer":0,
			"byteLength":1440,
			"byteOffset":56200,
			"target":34962
		},
		{
			"buffer":0,
			"byteLength":1080,
			"byteOffset":57640,
			"target":34962
		},
		{
			"buffer":0,
			"byteLength":1080,
			"byteOffset":58720,
			"target":34962
		},
		{
			"buffer":0,
			"byteLength":720,
			"byteOffset":59800,
			"target":34962
		},
		{
			"buffer":0,
			"byteLength":360,
			"byteOffset":60520,
			"target":34962
		},
		{
			"buffer":0,
			"byteLength":1080,
			"byteOffset":60880,
			"target":34962
		},
		{
			"buffer":0,
			"byteLength":360,
			"byteOffset":61960,
			"target":34962
		},
		{
			"buffer":0,
			"byteLength":1440,
			"byteOffset":62320,
			"target":34962
		},
		{
			"buffer":0,
			"byteLength":528,
			"byteOffset":63760,
			"target":34963
		},
		{
			"buffer":0,
			"byteLength":240,
			"byteOffset":64288,
			"target":34962
		},
		{
			"buffer":0,
			"byteLength":240,
			"byteOffset":64528,
			"target":34962
		},
		{
			"buffer":0,
			"byteLength":160,
			"byteOffset":64768,
			"target":34962
		},
		{
			"buffer":0,
			"byteLength":80,
			"byteOffset":64928,
			"target":34962
		},
		{
			"buffer":0,
			"byteLength":240,
			"byteOffset":65008,
			"target":34962
		},
		{
			"buffer":0,
			"byteLength":80,
			"byteOffset":65248,
			"target":34962
		},
		{
			"buffer":0,
			"byteLength":320,
			"byteOffset":65328,
			"target":34962
		},
		{
			"buffer":0,
			"byteLength":60,
			"byteOffset":65648,
			"target":34963
		},
		{
			"buffer":0,
			"byteLength":2160,
			"byteOffset":65708,
			"target":34962
		},
		{
			"buffer":0,
			"byteLength":2160,
			"byteOffset":67868,
			"target":34962
		},
		{
			"buffer":0,
			"byteLength":1440,
			"byteOffset":70028,
			"target":34962
		},
		{
			"buffer":0,
			"byteLength":720,
			"byteOffset":71468,
			"target":34962
		},
		{
			"buffer":0,
			"byteLength":2160,
			"byteOffset":72188,
			"target":34962
		},
		{
			"buffer":0,
			"byteLength":720,
			"byteOffset":74348,
			"target":34962
		},
		{
			"buffer":0,
			"byteLength":2880,
			"byteOffset":75068,
			"target":34962
		},
		{
			"buffer":0,
			"byteLength":1056,
			"byteOffset":77948,
			"target":34963
		},
		{
			"buffer":0,
			"byteLength":192,
			"byteOffset":79004,
			"target":34962
		},
		{
			"buffer":0,
			"byteLength":192,
			"byteOffset":79196,
			"target":34962
		},
		{
			"buffer":0,
			"byteLength":128,
			"byteOffset":79388,
			"target":34962
		},
		{
			"buffer":0,
			"byteLength":64,
			"byteOffset":79516,
			"target":34962
		},
		{
			"buffer":0,
			"byteLength":192,
			"byteOffset":79580,
			"target":34962
		},
		{
			"buffer":0,
			"byteLength":64,
			"byteOffset":79772,
			"target":34962
		},
		{
			"buffer":0,
			"byteLength":256,
			"byteOffset":79836,
			"target":34962
		},
		{
			"buffer":0,
			"byteLength":48,
			"byteOffset":80092,
			"target":34963
		}
	],
	"samplers":[
		{
			"magFilter":9729,
			"minFilter":9987
		}
	],
	"buffers":[
		{
			"byteLength":80140,
			"uri":"skySecret.bin"
		}
	]
}
