{
	"asset":{
		"generator":"Khronos glTF Blender I/O v4.2.60",
		"version":"2.0"
	},
	"extensionsUsed":[
		"KHR_materials_transmission",
		"KHR_materials_specular"
	],
	"scene":0,
	"scenes":[
		{
			"name":"Scene",
			"nodes":[
				0
			]
		}
	],
	"nodes":[
		{
			"mesh":0,
			"name":"Plasmacutter",
			"rotation":[
				0.7071068286895752,
				0,
				0,
				0.7071068286895752
			],
			"scale":[
				0.017204420641064644,
				0.017204420641064644,
				0.017204420641064644
			]
		}
	],
	"materials":[
		{
			"doubleSided":true,
			"extensions":{
				"KHR_materials_transmission":{
					"transmissionFactor":1
				},
				"KHR_materials_specular":{
					"specularTexture":{
						"index":0
					}
				}
			},
			"name":"Material__25",
			"normalTexture":{
				"index":1,
				"scale":0
			},
			"pbrMetallicRoughness":{
				"baseColorTexture":{
					"index":2
				},
				"metallicFactor":0,
				"roughnessFactor":0.7354248762130737
			}
		}
	],
	"meshes":[
		{
			"name":"Plasmacutter",
			"primitives":[
				{
					"attributes":{
						"POSITION":0,
						"NORMAL":1,
						"TEXCOORD_0":2
					},
					"indices":3,
					"material":0
				}
			]
		}
	],
	"textures":[
		{
			"sampler":0,
			"source":0
		},
		{
			"sampler":0,
			"source":1
		},
		{
			"sampler":0,
			"source":2
		}
	],
	"images":[
		{
			"mimeType":"image/png",
			"name":"plasmacutter_s",
			"uri":"plasmacutter_s.png"
		},
		{
			"mimeType":"image/png",
			"name":"plasmacutter_n",
			"uri":"plasmacutter_n.png"
		},
		{
			"mimeType":"image/png",
			"name":"plasmacutter",
			"uri":"plasmacutter.png"
		}
	],
	"accessors":[
		{
			"bufferView":0,
			"componentType":5126,
			"count":2432,
			"max":[
				5.236499786376953,
				30.34939956665039,
				16.5314998626709
			],
			"min":[
				-5.709400177001953,
				-12.361800193786621,
				-15.350299835205078
			],
			"type":"VEC3"
		},
		{
			"bufferView":1,
			"componentType":5126,
			"count":2432,
			"type":"VEC3"
		},
		{
			"bufferView":2,
			"componentType":5126,
			"count":2432,
			"type":"VEC2"
		},
		{
			"bufferView":3,
			"componentType":5123,
			"count":4938,
			"type":"SCALAR"
		}
	],
	"bufferViews":[
		{
			"buffer":0,
			"byteLength":29184,
			"byteOffset":0,
			"target":34962
		},
		{
			"buffer":0,
			"byteLength":29184,
			"byteOffset":29184,
			"target":34962
		},
		{
			"buffer":0,
			"byteLength":19456,
			"byteOffset":58368,
			"target":34962
		},
		{
			"buffer":0,
			"byteLength":9876,
			"byteOffset":77824,
			"target":34963
		}
	],
	"samplers":[
		{
			"magFilter":9729,
			"minFilter":9987
		}
	],
	"buffers":[
		{
			"byteLength":87700,
			"uri":"plasmacutter.bin"
		}
	]
}
