{
    "asset" : {
        "generator" : "Khronos glTF Blender I/O v1.7.33",
        "version" : "2.0"
    },
    "scene" : 0,
    "scenes" : [
        {
            "name" : "Scene",
            "nodes" : [
                20
            ]
        }
    ],
    "nodes" : [
        {
            "mesh" : 0,
            "name" : "defaultMaterial.001"
        },
        {
            "children" : [
                0
            ],
            "name" : "Bottle_Low"
        },
        {
            "mesh" : 1,
            "name" : "defaultMaterial.002"
        },
        {
            "children" : [
                2
            ],
            "name" : "Joint_Low"
        },
        {
            "mesh" : 2,
            "name" : "defaultMaterial"
        },
        {
            "children" : [
                4
            ],
            "name" : "Main_Low"
        },
        {
            "mesh" : 3,
            "name" : "defaultMaterial.008"
        },
        {
            "children" : [
                6
            ],
            "name" : "Switch1_Low"
        },
        {
            "mesh" : 4,
            "name" : "defaultMaterial.007"
        },
        {
            "children" : [
                8
            ],
            "name" : "Switch2_Low"
        },
        {
            "mesh" : 5,
            "name" : "defaultMaterial.004"
        },
        {
            "children" : [
                10
            ],
            "name" : "Tap1_Low"
        },
        {
            "mesh" : 6,
            "name" : "defaultMaterial.005"
        },
        {
            "children" : [
                12
            ],
            "name" : "Tap2_Low",
            "translation" : [
                9.396265029907227,
                0,
                0
            ]
        },
        {
            "mesh" : 7,
            "name" : "defaultMaterial.003"
        },
        {
            "children" : [
                14
            ],
            "name" : "TapConnector1_Low"
        },
        {
            "mesh" : 8,
            "name" : "defaultMaterial.006"
        },
        {
            "children" : [
                16
            ],
            "name" : "TapConnector2_Low",
            "translation" : [
                9.39626407623291,
                0,
                0
            ]
        },
        {
            "children" : [
                1,
                3,
                5,
                7,
                9,
                11,
                13,
                15,
                17
            ],
            "name" : "Cooler_Low"
        },
        {
            "children" : [
                18
            ],
            "name" : "Collada visual scene group",
            "rotation" : [
                0.7071068286895752,
                0,
                0,
                0.7071068286895752
            ]
        },
        {
            "children" : [
                19
            ],
            "name" : "Sketchfab_model",
            "rotation" : [
                -0.7071068286895752,
                0,
                0,
                0.7071068286895752
            ],
            "scale" : [
                0.030006084591150284,
                0.030006084591150284,
                0.030006084591150284
            ]
        }
    ],
    "materials" : [
        {
            "alphaMode" : "BLEND",
            "doubleSided" : true,
            "emissiveFactor" : [
                1,
                1,
                1
            ],
            "emissiveTexture" : {
                "index" : 0
            },
            "name" : "lambert1",
            "normalTexture" : {
                "index" : 1
            },
            "occlusionTexture" : {
                "index" : 2
            },
            "pbrMetallicRoughness" : {
                "baseColorTexture" : {
                    "index" : 3
                },
                "metallicRoughnessTexture" : {
                    "index" : 2
                }
            }
        }
    ],
    "meshes" : [
        {
            "name" : "defaultMaterial.001",
            "primitives" : [
                {
                    "attributes" : {
                        "POSITION" : 0,
                        "NORMAL" : 1,
                        "TEXCOORD_0" : 2
                    },
                    "indices" : 3,
                    "material" : 0
                }
            ]
        },
        {
            "name" : "defaultMaterial.002",
            "primitives" : [
                {
                    "attributes" : {
                        "POSITION" : 4,
                        "NORMAL" : 5,
                        "TEXCOORD_0" : 6
                    },
                    "indices" : 7,
                    "material" : 0
                }
            ]
        },
        {
            "name" : "defaultMaterial",
            "primitives" : [
                {
                    "attributes" : {
                        "POSITION" : 8,
                        "NORMAL" : 9,
                        "TEXCOORD_0" : 10
                    },
                    "indices" : 11,
                    "material" : 0
                }
            ]
        },
        {
            "name" : "defaultMaterial.008",
            "primitives" : [
                {
                    "attributes" : {
                        "POSITION" : 12,
                        "NORMAL" : 13,
                        "TEXCOORD_0" : 14
                    },
                    "indices" : 15,
                    "material" : 0
                }
            ]
        },
        {
            "name" : "defaultMaterial.007",
            "primitives" : [
                {
                    "attributes" : {
                        "POSITION" : 16,
                        "NORMAL" : 17,
                        "TEXCOORD_0" : 18
                    },
                    "indices" : 15,
                    "material" : 0
                }
            ]
        },
        {
            "name" : "defaultMaterial.004",
            "primitives" : [
                {
                    "attributes" : {
                        "POSITION" : 19,
                        "NORMAL" : 20,
                        "TEXCOORD_0" : 21
                    },
                    "indices" : 22,
                    "material" : 0
                }
            ]
        },
        {
            "name" : "defaultMaterial.005",
            "primitives" : [
                {
                    "attributes" : {
                        "POSITION" : 23,
                        "NORMAL" : 24,
                        "TEXCOORD_0" : 25
                    },
                    "indices" : 26,
                    "material" : 0
                }
            ]
        },
        {
            "name" : "defaultMaterial.003",
            "primitives" : [
                {
                    "attributes" : {
                        "POSITION" : 27,
                        "NORMAL" : 28,
                        "TEXCOORD_0" : 29
                    },
                    "indices" : 30,
                    "material" : 0
                }
            ]
        },
        {
            "name" : "defaultMaterial.006",
            "primitives" : [
                {
                    "attributes" : {
                        "POSITION" : 31,
                        "NORMAL" : 32,
                        "TEXCOORD_0" : 33
                    },
                    "indices" : 34,
                    "material" : 0
                }
            ]
        }
    ],
    "textures" : [
        {
            "sampler" : 0,
            "source" : 0
        },
        {
            "sampler" : 0,
            "source" : 1
        },
        {
            "sampler" : 0,
            "source" : 2
        },
        {
            "sampler" : 0,
            "source" : 3
        }
    ],
    "images" : [
        {
            "mimeType" : "image/jpeg",
            "name" : "lambert1_emissive",
            "uri" : "lambert1_emissive.jpg"
        },
        {
            "mimeType" : "image/png",
            "name" : "lambert1_normal",
            "uri" : "lambert1_normal.png"
        },
        {
            "mimeType" : "image/png",
            "name" : "lambert1_metallicRoughness",
            "uri" : "lambert1_metallicRoughness.png"
        },
        {
            "mimeType" : "image/png",
            "name" : "lambert1_baseColor",
            "uri" : "lambert1_baseColor.png"
        }
    ],
    "accessors" : [
        {
            "bufferView" : 0,
            "componentType" : 5126,
            "count" : 321,
            "max" : [
                14.124174118041992,
                138.25994873046875,
                14.124176025390625
            ],
            "min" : [
                -14.124174118041992,
                97.41273498535156,
                -14.124165534973145
            ],
            "type" : "VEC3"
        },
        {
            "bufferView" : 1,
            "componentType" : 5126,
            "count" : 321,
            "type" : "VEC3"
        },
        {
            "bufferView" : 2,
            "componentType" : 5126,
            "count" : 321,
            "type" : "VEC2"
        },
        {
            "bufferView" : 3,
            "componentType" : 5123,
            "count" : 1680,
            "type" : "SCALAR"
        },
        {
            "bufferView" : 4,
            "componentType" : 5126,
            "count" : 81,
            "max" : [
                7.741118907928467,
                97.93894958496094,
                7.741118907928467
            ],
            "min" : [
                -7.741118907928467,
                96,
                -7.7411208152771
            ],
            "type" : "VEC3"
        },
        {
            "bufferView" : 5,
            "componentType" : 5126,
            "count" : 81,
            "type" : "VEC3"
        },
        {
            "bufferView" : 6,
            "componentType" : 5126,
            "count" : 81,
            "type" : "VEC2"
        },
        {
            "bufferView" : 7,
            "componentType" : 5123,
            "count" : 432,
            "type" : "SCALAR"
        },
        {
            "bufferView" : 8,
            "componentType" : 5126,
            "count" : 433,
            "max" : [
                15.5,
                96,
                17.022640228271484
            ],
            "min" : [
                -15.5,
                0.07431799918413162,
                -15.5
            ],
            "type" : "VEC3"
        },
        {
            "bufferView" : 9,
            "componentType" : 5126,
            "count" : 433,
            "type" : "VEC3"
        },
        {
            "bufferView" : 10,
            "componentType" : 5126,
            "count" : 433,
            "type" : "VEC2"
        },
        {
            "bufferView" : 11,
            "componentType" : 5123,
            "count" : 1920,
            "type" : "SCALAR"
        },
        {
            "bufferView" : 12,
            "componentType" : 5126,
            "count" : 52,
            "max" : [
                -9.834504127502441,
                85.13536071777344,
                -15.5
            ],
            "min" : [
                -10.882893562316895,
                83.04463195800781,
                -16.11348533630371
            ],
            "type" : "VEC3"
        },
        {
            "bufferView" : 13,
            "componentType" : 5126,
            "count" : 52,
            "type" : "VEC3"
        },
        {
            "bufferView" : 14,
            "componentType" : 5126,
            "count" : 52,
            "type" : "VEC2"
        },
        {
            "bufferView" : 15,
            "componentType" : 5123,
            "count" : 78,
            "type" : "SCALAR"
        },
        {
            "bufferView" : 16,
            "componentType" : 5126,
            "count" : 52,
            "max" : [
                -7.43644905090332,
                85.13536071777344,
                -15.5
            ],
            "min" : [
                -8.484837532043457,
                83.04463195800781,
                -16.11348533630371
            ],
            "type" : "VEC3"
        },
        {
            "bufferView" : 17,
            "componentType" : 5126,
            "count" : 52,
            "type" : "VEC3"
        },
        {
            "bufferView" : 18,
            "componentType" : 5126,
            "count" : 52,
            "type" : "VEC2"
        },
        {
            "bufferView" : 19,
            "componentType" : 5126,
            "count" : 418,
            "max" : [
                -3.572532892227173,
                77.44186401367188,
                17.681488037109375
            ],
            "min" : [
                -7.846833229064941,
                72.64967346191406,
                14.518974304199219
            ],
            "type" : "VEC3"
        },
        {
            "bufferView" : 20,
            "componentType" : 5126,
            "count" : 418,
            "type" : "VEC3"
        },
        {
            "bufferView" : 21,
            "componentType" : 5126,
            "count" : 418,
            "type" : "VEC2"
        },
        {
            "bufferView" : 22,
            "componentType" : 5123,
            "count" : 678,
            "type" : "SCALAR"
        },
        {
            "bufferView" : 23,
            "componentType" : 5126,
            "count" : 418,
            "max" : [
                -3.5725319385528564,
                77.44186401367188,
                17.681488037109375
            ],
            "min" : [
                -7.846831798553467,
                72.64967346191406,
                14.518974304199219
            ],
            "type" : "VEC3"
        },
        {
            "bufferView" : 24,
            "componentType" : 5126,
            "count" : 418,
            "type" : "VEC3"
        },
        {
            "bufferView" : 25,
            "componentType" : 5126,
            "count" : 418,
            "type" : "VEC2"
        },
        {
            "bufferView" : 26,
            "componentType" : 5123,
            "count" : 678,
            "type" : "SCALAR"
        },
        {
            "bufferView" : 27,
            "componentType" : 5126,
            "count" : 311,
            "max" : [
                -3.0837409496307373,
                76.13803100585938,
                15.257064819335938
            ],
            "min" : [
                -6.290072917938232,
                72.93167877197266,
                11.767326354980469
            ],
            "type" : "VEC3"
        },
        {
            "bufferView" : 28,
            "componentType" : 5126,
            "count" : 311,
            "type" : "VEC3"
        },
        {
            "bufferView" : 29,
            "componentType" : 5126,
            "count" : 311,
            "type" : "VEC2"
        },
        {
            "bufferView" : 30,
            "componentType" : 5123,
            "count" : 504,
            "type" : "SCALAR"
        },
        {
            "bufferView" : 31,
            "componentType" : 5126,
            "count" : 302,
            "max" : [
                -3.0837419033050537,
                76.13803100585938,
                15.257064819335938
            ],
            "min" : [
                -6.290072917938232,
                72.93167877197266,
                11.767326354980469
            ],
            "type" : "VEC3"
        },
        {
            "bufferView" : 32,
            "componentType" : 5126,
            "count" : 302,
            "type" : "VEC3"
        },
        {
            "bufferView" : 33,
            "componentType" : 5126,
            "count" : 302,
            "type" : "VEC2"
        },
        {
            "bufferView" : 34,
            "componentType" : 5123,
            "count" : 504,
            "type" : "SCALAR"
        }
    ],
    "bufferViews" : [
        {
            "buffer" : 0,
            "byteLength" : 3852,
            "byteOffset" : 0
        },
        {
            "buffer" : 0,
            "byteLength" : 3852,
            "byteOffset" : 3852
        },
        {
            "buffer" : 0,
            "byteLength" : 2568,
            "byteOffset" : 7704
        },
        {
            "buffer" : 0,
            "byteLength" : 3360,
            "byteOffset" : 10272
        },
        {
            "buffer" : 0,
            "byteLength" : 972,
            "byteOffset" : 13632
        },
        {
            "buffer" : 0,
            "byteLength" : 972,
            "byteOffset" : 14604
        },
        {
            "buffer" : 0,
            "byteLength" : 648,
            "byteOffset" : 15576
        },
        {
            "buffer" : 0,
            "byteLength" : 864,
            "byteOffset" : 16224
        },
        {
            "buffer" : 0,
            "byteLength" : 5196,
            "byteOffset" : 17088
        },
        {
            "buffer" : 0,
            "byteLength" : 5196,
            "byteOffset" : 22284
        },
        {
            "buffer" : 0,
            "byteLength" : 3464,
            "byteOffset" : 27480
        },
        {
            "buffer" : 0,
            "byteLength" : 3840,
            "byteOffset" : 30944
        },
        {
            "buffer" : 0,
            "byteLength" : 624,
            "byteOffset" : 34784
        },
        {
            "buffer" : 0,
            "byteLength" : 624,
            "byteOffset" : 35408
        },
        {
            "buffer" : 0,
            "byteLength" : 416,
            "byteOffset" : 36032
        },
        {
            "buffer" : 0,
            "byteLength" : 156,
            "byteOffset" : 36448
        },
        {
            "buffer" : 0,
            "byteLength" : 624,
            "byteOffset" : 36604
        },
        {
            "buffer" : 0,
            "byteLength" : 624,
            "byteOffset" : 37228
        },
        {
            "buffer" : 0,
            "byteLength" : 416,
            "byteOffset" : 37852
        },
        {
            "buffer" : 0,
            "byteLength" : 5016,
            "byteOffset" : 38268
        },
        {
            "buffer" : 0,
            "byteLength" : 5016,
            "byteOffset" : 43284
        },
        {
            "buffer" : 0,
            "byteLength" : 3344,
            "byteOffset" : 48300
        },
        {
            "buffer" : 0,
            "byteLength" : 1356,
            "byteOffset" : 51644
        },
        {
            "buffer" : 0,
            "byteLength" : 5016,
            "byteOffset" : 53000
        },
        {
            "buffer" : 0,
            "byteLength" : 5016,
            "byteOffset" : 58016
        },
        {
            "buffer" : 0,
            "byteLength" : 3344,
            "byteOffset" : 63032
        },
        {
            "buffer" : 0,
            "byteLength" : 1356,
            "byteOffset" : 66376
        },
        {
            "buffer" : 0,
            "byteLength" : 3732,
            "byteOffset" : 67732
        },
        {
            "buffer" : 0,
            "byteLength" : 3732,
            "byteOffset" : 71464
        },
        {
            "buffer" : 0,
            "byteLength" : 2488,
            "byteOffset" : 75196
        },
        {
            "buffer" : 0,
            "byteLength" : 1008,
            "byteOffset" : 77684
        },
        {
            "buffer" : 0,
            "byteLength" : 3624,
            "byteOffset" : 78692
        },
        {
            "buffer" : 0,
            "byteLength" : 3624,
            "byteOffset" : 82316
        },
        {
            "buffer" : 0,
            "byteLength" : 2416,
            "byteOffset" : 85940
        },
        {
            "buffer" : 0,
            "byteLength" : 1008,
            "byteOffset" : 88356
        }
    ],
    "samplers" : [
        {
            "magFilter" : 9729,
            "minFilter" : 9987
        }
    ],
    "buffers" : [
        {
            "byteLength" : 89364,
            "uri" : "scene-scaled.bin"
        }
    ]
}
