{
	"asset":{
		"generator":"Khronos glTF Blender I/O v4.2.60",
		"version":"2.0"
	},
	"extensionsUsed":[
		"KHR_materials_specular"
	],
	"scene":0,
	"scenes":[
		{
			"name":"Scene",
			"nodes":[
				0,
				1,
				2,
				3,
				4,
				5,
				6,
				7,
				8,
				9,
				10,
				11,
				12,
				13,
				14,
				15,
				16,
				17,
				18,
				19,
				20,
				21,
				22,
				23,
				24,
				25,
				26,
				27,
				28,
				29,
				30,
				31,
				32
			]
		}
	],
	"nodes":[
		{
			"name":"group8685",
			"translation":[
				0,
				0,
				108
			]
		},
		{
			"mesh":0,
			"name":"polySurface937",
			"rotation":[
				0.70710688829422,
				0,
				0,
				0.7071066498756409
			],
			"translation":[
				18.5234375,
				3.8124988079071045,
				4.875000953674316
			]
		},
		{
			"mesh":1,
			"name":"polySurface938",
			"rotation":[
				0.70710688829422,
				0,
				0,
				0.7071066498756409
			],
			"translation":[
				18.5234375,
				3.8125016689300537,
				-4.874999046325684
			]
		},
		{
			"name":"group843",
			"rotation":[
				0.70710688829422,
				0,
				0,
				0.7071066498756409
			],
			"translation":[
				75,
				0,
				0
			]
		},
		{
			"name":"group8466",
			"rotation":[
				0.70710688829422,
				0,
				0,
				0.7071066498756409
			],
			"translation":[
				75,
				0,
				0
			]
		},
		{
			"name":"group8477",
			"rotation":[
				0.70710688829422,
				0,
				0,
				0.7071066498756409
			],
			"translation":[
				75,
				0,
				0
			]
		},
		{
			"mesh":2,
			"name":"polySurface852_q00171_part0",
			"rotation":[
				0.70710688829422,
				0,
				0,
				0.7071066498756409
			],
			"translation":[
				69.58332824707031,
				-0.16496416926383972,
				-6.0204081535339355
			]
		},
		{
			"mesh":3,
			"name":"polySurface852_q00171_part1",
			"rotation":[
				0.70710688829422,
				0,
				0,
				0.7071066498756409
			],
			"translation":[
				70.24285888671875,
				-0.8299981951713562,
				-6.000000476837158
			]
		},
		{
			"mesh":4,
			"name":"polySurface853_q00172",
			"rotation":[
				0.70710688829422,
				0,
				0,
				0.7071066498756409
			],
			"translation":[
				71.05769348144531,
				1.5000017881393433,
				-5.999999523162842
			]
		},
		{
			"mesh":5,
			"name":"polySurface854_q00173_part0",
			"rotation":[
				0.70710688829422,
				0,
				0,
				0.7071066498756409
			],
			"translation":[
				69.58332824707031,
				-0.16496577858924866,
				5.979593753814697
			]
		},
		{
			"mesh":6,
			"name":"polySurface854_q00173_part1",
			"rotation":[
				0.70710688829422,
				0,
				0,
				0.7071066498756409
			],
			"translation":[
				70.24285888671875,
				-0.8299998044967651,
				6.000001430511475
			]
		},
		{
			"mesh":7,
			"name":"polySurface855_q00174",
			"rotation":[
				0.70710688829422,
				0,
				0,
				0.7071066498756409
			],
			"translation":[
				71.05769348144531,
				1.5000001192092896,
				6.000002384185791
			]
		},
		{
			"mesh":8,
			"name":"polySurface447_q00179",
			"rotation":[
				0.70710688829422,
				0,
				0,
				0.7071066498756409
			],
			"translation":[
				62.0625,
				0,
				0
			]
		},
		{
			"mesh":9,
			"name":"polySurface856_q00180",
			"rotation":[
				0.70710688829422,
				0,
				0,
				0.7071066498756409
			],
			"translation":[
				70.54583740234375,
				-12.93281364440918,
				-0.1000039279460907
			]
		},
		{
			"name":"group8681",
			"scale":[
				1.100000023841858,
				1.100000023841858,
				1
			],
			"translation":[
				0,
				0,
				108
			]
		},
		{
			"name":"group8683d",
			"scale":[
				1.100000023841858,
				1.100000023841858,
				1
			],
			"translation":[
				0,
				0,
				108
			]
		},
		{
			"name":"polySurface872_q00185",
			"scale":[
				0.8800000548362732,
				1.100000023841858,
				1
			],
			"translation":[
				0,
				0,
				108
			]
		},
		{
			"name":"polySurface888_q00186",
			"rotation":[
				0,
				0,
				-0.7071068286895752,
				0.7071067094802856
			],
			"scale":[
				0.880000114440918,
				1.100000023841858,
				1
			],
			"translation":[
				0,
				0,
				108
			]
		},
		{
			"name":"polySurface889_q00187",
			"rotation":[
				0,
				0,
				-0.7071068286895752,
				0.7071067094802856
			],
			"scale":[
				0.880000114440918,
				1.100000023841858,
				1
			],
			"translation":[
				-34.5,
				0,
				108
			]
		},
		{
			"name":"polySurface892_q00188",
			"rotation":[
				0,
				0,
				-0.3826834559440613,
				0.9238795638084412
			],
			"scale":[
				0.880000114440918,
				1.100000023841858,
				1
			],
			"translation":[
				0,
				0,
				108
			]
		},
		{
			"name":"polySurface894_q00189",
			"rotation":[
				0,
				0,
				0.9238795638084412,
				0.3826833963394165
			],
			"scale":[
				0.880000114440918,
				1.100000262260437,
				1
			],
			"translation":[
				0,
				0,
				108
			]
		},
		{
			"name":"polySurface895_q00190",
			"rotation":[
				0,
				0,
				0.3826834559440613,
				0.9238795638084412
			],
			"scale":[
				0.880000114440918,
				1.100000023841858,
				1
			],
			"translation":[
				0,
				0,
				108
			]
		},
		{
			"name":"group8684d",
			"scale":[
				1.100000023841858,
				1.100000023841858,
				1
			],
			"translation":[
				0,
				0,
				108
			]
		},
		{
			"name":"polySurface870_q00196",
			"scale":[
				1.100000023841858,
				1.100000023841858,
				1
			],
			"translation":[
				0,
				0,
				108
			]
		},
		{
			"name":"polySurface884_q00197",
			"scale":[
				1.100000023841858,
				1.100000023841858,
				1
			],
			"translation":[
				0,
				0,
				108
			]
		},
		{
			"name":"polySurface885_q00198",
			"rotation":[
				0,
				0,
				-0.7071068286895752,
				0.7071067094802856
			],
			"scale":[
				1.100000023841858,
				1.100000023841858,
				1
			],
			"translation":[
				0,
				0,
				108
			]
		},
		{
			"name":"polySurface886_q00199",
			"rotation":[
				0,
				0,
				-0.7071068286895752,
				0.7071067094802856
			],
			"scale":[
				1.100000023841858,
				1.100000023841858,
				1
			],
			"translation":[
				0,
				0,
				108
			]
		},
		{
			"name":"polySurface887_q00200",
			"scale":[
				0.8800000548362732,
				1.100000023841858,
				1
			],
			"translation":[
				0,
				0,
				108
			]
		},
		{
			"name":"group8689",
			"translation":[
				0,
				0,
				108
			]
		},
		{
			"name":"polySurface922_q00205",
			"translation":[
				0,
				0,
				108
			]
		},
		{
			"name":"group8694",
			"translation":[
				0,
				0,
				108
			]
		},
		{
			"name":"polySurface917_q00212",
			"translation":[
				-33,
				0.5,
				108
			]
		},
		{
			"name":"s_saku",
			"translation":[
				0,
				0,
				108
			]
		}
	],
	"materials":[
		{
			"doubleSided":true,
			"extensions":{
				"KHR_materials_specular":{
					"specularFactor":0
				}
			},
			"name":"lambert1",
			"pbrMetallicRoughness":{
				"baseColorFactor":[
					0.4000000059604645,
					0.4000000059604645,
					0.4000000059604645,
					1
				],
				"metallicFactor":0,
				"roughnessFactor":0.5
			}
		},
		{
			"doubleSided":true,
			"extensions":{
				"KHR_materials_specular":{
					"specularFactor":0
				}
			},
			"name":"lambert2_v",
			"pbrMetallicRoughness":{
				"baseColorTexture":{
					"index":0
				},
				"metallicFactor":0,
				"roughnessFactor":0.5
			}
		},
		{
			"doubleSided":true,
			"extensions":{
				"KHR_materials_specular":{
					"specularFactor":0
				}
			},
			"name":"lambert59_v",
			"pbrMetallicRoughness":{
				"baseColorTexture":{
					"index":1
				},
				"metallicFactor":0,
				"roughnessFactor":0.5
			}
		},
		{
			"doubleSided":true,
			"extensions":{
				"KHR_materials_specular":{
					"specularFactor":0
				}
			},
			"name":"lambert61",
			"pbrMetallicRoughness":{
				"baseColorTexture":{
					"index":2
				},
				"metallicFactor":0,
				"roughnessFactor":0.5
			}
		},
		{
			"doubleSided":true,
			"extensions":{
				"KHR_materials_specular":{
					"specularFactor":0
				}
			},
			"name":"lambert60_v",
			"pbrMetallicRoughness":{
				"baseColorTexture":{
					"index":3
				},
				"metallicFactor":0,
				"roughnessFactor":0.5
			}
		}
	],
	"meshes":[
		{
			"name":"meshpolySurface937",
			"primitives":[
				{
					"attributes":{
						"POSITION":0,
						"NORMAL":1,
						"TEXCOORD_0":2
					},
					"indices":3,
					"material":0
				}
			]
		},
		{
			"name":"meshpolySurface938",
			"primitives":[
				{
					"attributes":{
						"POSITION":4,
						"NORMAL":5,
						"TEXCOORD_0":6
					},
					"indices":3,
					"material":0
				}
			]
		},
		{
			"name":"meshpolySurface852_q00171_part0",
			"primitives":[
				{
					"attributes":{
						"POSITION":7,
						"NORMAL":8,
						"TEXCOORD_0":9,
						"COLOR_0":10,
						"COLOR_1":11
					},
					"indices":12,
					"material":1
				}
			]
		},
		{
			"name":"meshpolySurface852_q00171_part1",
			"primitives":[
				{
					"attributes":{
						"POSITION":13,
						"NORMAL":14,
						"TEXCOORD_0":15,
						"COLOR_0":16,
						"COLOR_1":17
					},
					"indices":18,
					"material":2
				}
			]
		},
		{
			"name":"meshpolySurface853_q00172",
			"primitives":[
				{
					"attributes":{
						"POSITION":19,
						"NORMAL":20,
						"TEXCOORD_0":21
					},
					"indices":22,
					"material":3
				}
			]
		},
		{
			"name":"meshpolySurface854_q00173_part0",
			"primitives":[
				{
					"attributes":{
						"POSITION":23,
						"NORMAL":24,
						"TEXCOORD_0":25,
						"COLOR_0":26,
						"COLOR_1":27
					},
					"indices":12,
					"material":1
				}
			]
		},
		{
			"name":"meshpolySurface854_q00173_part1",
			"primitives":[
				{
					"attributes":{
						"POSITION":28,
						"NORMAL":29,
						"TEXCOORD_0":30,
						"COLOR_0":31,
						"COLOR_1":32
					},
					"indices":18,
					"material":2
				}
			]
		},
		{
			"name":"meshpolySurface855_q00174",
			"primitives":[
				{
					"attributes":{
						"POSITION":33,
						"NORMAL":34,
						"TEXCOORD_0":35
					},
					"indices":22,
					"material":3
				}
			]
		},
		{
			"name":"meshpolySurface447_q00179",
			"primitives":[
				{
					"attributes":{
						"POSITION":36,
						"NORMAL":37,
						"TEXCOORD_0":38,
						"COLOR_0":39,
						"COLOR_1":40
					},
					"indices":41,
					"material":4
				}
			]
		},
		{
			"name":"meshpolySurface856_q00180",
			"primitives":[
				{
					"attributes":{
						"POSITION":42,
						"NORMAL":43,
						"TEXCOORD_0":44,
						"COLOR_0":45,
						"COLOR_1":46
					},
					"indices":47,
					"material":1
				}
			]
		}
	],
	"textures":[
		{
			"sampler":0,
			"source":0
		},
		{
			"sampler":0,
			"source":1
		},
		{
			"sampler":0,
			"source":2
		},
		{
			"sampler":0,
			"source":3
		}
	],
	"images":[
		{
			"mimeType":"image/png",
			"name":"gon_kabe_02",
			"uri":"gon_kabe_02.png"
		},
		{
			"mimeType":"image/png",
			"name":"gon_line_01",
			"uri":"gon_line_01.png"
		},
		{
			"mimeType":"image/png",
			"name":"gon_saku_02",
			"uri":"gon_saku_02.png"
		},
		{
			"mimeType":"image/png",
			"name":"gon_yuka_02",
			"uri":"gon_yuka_02.png"
		}
	],
	"accessors":[
		{
			"bufferView":0,
			"componentType":5126,
			"count":4,
			"max":[
				0.4765625,
				0.125,
				3.812500238418579
			],
			"min":[
				-0.4765605926513672,
				-0.125,
				-3.812500238418579
			],
			"type":"VEC3"
		},
		{
			"bufferView":1,
			"componentType":5126,
			"count":4,
			"type":"VEC3"
		},
		{
			"bufferView":2,
			"componentType":5126,
			"count":4,
			"type":"VEC2"
		},
		{
			"bufferView":3,
			"componentType":5123,
			"count":6,
			"type":"SCALAR"
		},
		{
			"bufferView":4,
			"componentType":5126,
			"count":4,
			"max":[
				0.4765625,
				0.125,
				3.812500238418579
			],
			"min":[
				-0.4765605926513672,
				-0.125,
				-3.812500238418579
			],
			"type":"VEC3"
		},
		{
			"bufferView":5,
			"componentType":5126,
			"count":4,
			"type":"VEC3"
		},
		{
			"bufferView":6,
			"componentType":5126,
			"count":4,
			"type":"VEC2"
		},
		{
			"bufferView":7,
			"componentType":5126,
			"count":588,
			"max":[
				51.91667175292969,
				1.0204081535339355,
				2.335033893585205
			],
			"min":[
				-51.58332824707031,
				-0.9795918464660645,
				-2.664966106414795
			],
			"type":"VEC3"
		},
		{
			"bufferView":8,
			"componentType":5126,
			"count":588,
			"type":"VEC3"
		},
		{
			"bufferView":9,
			"componentType":5126,
			"count":588,
			"type":"VEC2"
		},
		{
			"bufferView":10,
			"componentType":5126,
			"count":588,
			"type":"VEC3"
		},
		{
			"bufferView":11,
			"componentType":5126,
			"count":588,
			"type":"VEC3"
		},
		{
			"bufferView":12,
			"componentType":5123,
			"count":948,
			"type":"SCALAR"
		},
		{
			"bufferView":13,
			"componentType":5126,
			"count":700,
			"max":[
				51.25714111328125,
				1,
				3.6700000762939453
			],
			"min":[
				-52.24285888671875,
				-1,
				-4.329999923706055
			],
			"type":"VEC3"
		},
		{
			"bufferView":14,
			"componentType":5126,
			"count":700,
			"type":"VEC3"
		},
		{
			"bufferView":15,
			"componentType":5126,
			"count":700,
			"type":"VEC2"
		},
		{
			"bufferView":16,
			"componentType":5126,
			"count":700,
			"type":"VEC3"
		},
		{
			"bufferView":17,
			"componentType":5126,
			"count":700,
			"type":"VEC3"
		},
		{
			"bufferView":18,
			"componentType":5123,
			"count":1050,
			"type":"SCALAR"
		},
		{
			"bufferView":19,
			"componentType":5126,
			"count":104,
			"max":[
				46.94230651855469,
				0,
				1
			],
			"min":[
				-45.55769348144531,
				0,
				-1
			],
			"type":"VEC3"
		},
		{
			"bufferView":20,
			"componentType":5126,
			"count":104,
			"type":"VEC3"
		},
		{
			"bufferView":21,
			"componentType":5126,
			"count":104,
			"type":"VEC2"
		},
		{
			"bufferView":22,
			"componentType":5123,
			"count":156,
			"type":"SCALAR"
		},
		{
			"bufferView":23,
			"componentType":5126,
			"count":588,
			"max":[
				51.91667175292969,
				1.0204081535339355,
				2.335033893585205
			],
			"min":[
				-51.58332824707031,
				-0.9795918464660645,
				-2.664966106414795
			],
			"type":"VEC3"
		},
		{
			"bufferView":24,
			"componentType":5126,
			"count":588,
			"type":"VEC3"
		},
		{
			"bufferView":25,
			"componentType":5126,
			"count":588,
			"type":"VEC2"
		},
		{
			"bufferView":26,
			"componentType":5126,
			"count":588,
			"type":"VEC3"
		},
		{
			"bufferView":27,
			"componentType":5126,
			"count":588,
			"type":"VEC3"
		},
		{
			"bufferView":28,
			"componentType":5126,
			"count":700,
			"max":[
				51.25714111328125,
				1,
				3.6700000762939453
			],
			"min":[
				-52.24285888671875,
				-1,
				-4.329999923706055
			],
			"type":"VEC3"
		},
		{
			"bufferView":29,
			"componentType":5126,
			"count":700,
			"type":"VEC3"
		},
		{
			"bufferView":30,
			"componentType":5126,
			"count":700,
			"type":"VEC2"
		},
		{
			"bufferView":31,
			"componentType":5126,
			"count":700,
			"type":"VEC3"
		},
		{
			"bufferView":32,
			"componentType":5126,
			"count":700,
			"type":"VEC3"
		},
		{
			"bufferView":33,
			"componentType":5126,
			"count":104,
			"max":[
				46.94230651855469,
				0,
				1
			],
			"min":[
				-45.55769348144531,
				0,
				-1
			],
			"type":"VEC3"
		},
		{
			"bufferView":34,
			"componentType":5126,
			"count":104,
			"type":"VEC3"
		},
		{
			"bufferView":35,
			"componentType":5126,
			"count":104,
			"type":"VEC2"
		},
		{
			"bufferView":36,
			"componentType":5126,
			"count":32,
			"max":[
				59.4375,
				5,
				0
			],
			"min":[
				-43.5625,
				-5,
				0
			],
			"type":"VEC3"
		},
		{
			"bufferView":37,
			"componentType":5126,
			"count":32,
			"type":"VEC3"
		},
		{
			"bufferView":38,
			"componentType":5126,
			"count":32,
			"type":"VEC2"
		},
		{
			"bufferView":39,
			"componentType":5126,
			"count":32,
			"type":"VEC3"
		},
		{
			"bufferView":40,
			"componentType":5126,
			"count":32,
			"type":"VEC3"
		},
		{
			"bufferView":41,
			"componentType":5123,
			"count":48,
			"type":"SCALAR"
		},
		{
			"bufferView":42,
			"componentType":5126,
			"count":120,
			"max":[
				50.95416259765625,
				6.099999904632568,
				26.06718635559082
			],
			"min":[
				-52.04583740234375,
				-5.900000095367432,
				-11.93281364440918
			],
			"type":"VEC3"
		},
		{
			"bufferView":43,
			"componentType":5126,
			"count":120,
			"type":"VEC3"
		},
		{
			"bufferView":44,
			"componentType":5126,
			"count":120,
			"type":"VEC2"
		},
		{
			"bufferView":45,
			"componentType":5126,
			"count":120,
			"type":"VEC3"
		},
		{
			"bufferView":46,
			"componentType":5126,
			"count":120,
			"type":"VEC3"
		},
		{
			"bufferView":47,
			"componentType":5123,
			"count":186,
			"type":"SCALAR"
		}
	],
	"bufferViews":[
		{
			"buffer":0,
			"byteLength":48,
			"byteOffset":0,
			"target":34962
		},
		{
			"buffer":0,
			"byteLength":48,
			"byteOffset":48,
			"target":34962
		},
		{
			"buffer":0,
			"byteLength":32,
			"byteOffset":96,
			"target":34962
		},
		{
			"buffer":0,
			"byteLength":12,
			"byteOffset":128,
			"target":34963
		},
		{
			"buffer":0,
			"byteLength":48,
			"byteOffset":140,
			"target":34962
		},
		{
			"buffer":0,
			"byteLength":48,
			"byteOffset":188,
			"target":34962
		},
		{
			"buffer":0,
			"byteLength":32,
			"byteOffset":236,
			"target":34962
		},
		{
			"buffer":0,
			"byteLength":7056,
			"byteOffset":268,
			"target":34962
		},
		{
			"buffer":0,
			"byteLength":7056,
			"byteOffset":7324,
			"target":34962
		},
		{
			"buffer":0,
			"byteLength":4704,
			"byteOffset":14380,
			"target":34962
		},
		{
			"buffer":0,
			"byteLength":7056,
			"byteOffset":19084,
			"target":34962
		},
		{
			"buffer":0,
			"byteLength":7056,
			"byteOffset":26140,
			"target":34962
		},
		{
			"buffer":0,
			"byteLength":1896,
			"byteOffset":33196,
			"target":34963
		},
		{
			"buffer":0,
			"byteLength":8400,
			"byteOffset":35092,
			"target":34962
		},
		{
			"buffer":0,
			"byteLength":8400,
			"byteOffset":43492,
			"target":34962
		},
		{
			"buffer":0,
			"byteLength":5600,
			"byteOffset":51892,
			"target":34962
		},
		{
			"buffer":0,
			"byteLength":8400,
			"byteOffset":57492,
			"target":34962
		},
		{
			"buffer":0,
			"byteLength":8400,
			"byteOffset":65892,
			"target":34962
		},
		{
			"buffer":0,
			"byteLength":2100,
			"byteOffset":74292,
			"target":34963
		},
		{
			"buffer":0,
			"byteLength":1248,
			"byteOffset":76392,
			"target":34962
		},
		{
			"buffer":0,
			"byteLength":1248,
			"byteOffset":77640,
			"target":34962
		},
		{
			"buffer":0,
			"byteLength":832,
			"byteOffset":78888,
			"target":34962
		},
		{
			"buffer":0,
			"byteLength":312,
			"byteOffset":79720,
			"target":34963
		},
		{
			"buffer":0,
			"byteLength":7056,
			"byteOffset":80032,
			"target":34962
		},
		{
			"buffer":0,
			"byteLength":7056,
			"byteOffset":87088,
			"target":34962
		},
		{
			"buffer":0,
			"byteLength":4704,
			"byteOffset":94144,
			"target":34962
		},
		{
			"buffer":0,
			"byteLength":7056,
			"byteOffset":98848,
			"target":34962
		},
		{
			"buffer":0,
			"byteLength":7056,
			"byteOffset":105904,
			"target":34962
		},
		{
			"buffer":0,
			"byteLength":8400,
			"byteOffset":112960,
			"target":34962
		},
		{
			"buffer":0,
			"byteLength":8400,
			"byteOffset":121360,
			"target":34962
		},
		{
			"buffer":0,
			"byteLength":5600,
			"byteOffset":129760,
			"target":34962
		},
		{
			"buffer":0,
			"byteLength":8400,
			"byteOffset":135360,
			"target":34962
		},
		{
			"buffer":0,
			"byteLength":8400,
			"byteOffset":143760,
			"target":34962
		},
		{
			"buffer":0,
			"byteLength":1248,
			"byteOffset":152160,
			"target":34962
		},
		{
			"buffer":0,
			"byteLength":1248,
			"byteOffset":153408,
			"target":34962
		},
		{
			"buffer":0,
			"byteLength":832,
			"byteOffset":154656,
			"target":34962
		},
		{
			"buffer":0,
			"byteLength":384,
			"byteOffset":155488,
			"target":34962
		},
		{
			"buffer":0,
			"byteLength":384,
			"byteOffset":155872,
			"target":34962
		},
		{
			"buffer":0,
			"byteLength":256,
			"byteOffset":156256,
			"target":34962
		},
		{
			"buffer":0,
			"byteLength":384,
			"byteOffset":156512,
			"target":34962
		},
		{
			"buffer":0,
			"byteLength":384,
			"byteOffset":156896,
			"target":34962
		},
		{
			"buffer":0,
			"byteLength":96,
			"byteOffset":157280,
			"target":34963
		},
		{
			"buffer":0,
			"byteLength":1440,
			"byteOffset":157376,
			"target":34962
		},
		{
			"buffer":0,
			"byteLength":1440,
			"byteOffset":158816,
			"target":34962
		},
		{
			"buffer":0,
			"byteLength":960,
			"byteOffset":160256,
			"target":34962
		},
		{
			"buffer":0,
			"byteLength":1440,
			"byteOffset":161216,
			"target":34962
		},
		{
			"buffer":0,
			"byteLength":1440,
			"byteOffset":162656,
			"target":34962
		},
		{
			"buffer":0,
			"byteLength":372,
			"byteOffset":164096,
			"target":34963
		}
	],
	"samplers":[
		{
			"magFilter":9729,
			"minFilter":9987
		}
	],
	"buffers":[
		{
			"byteLength":164468,
			"uri":"puente.bin"
		}
	]
}
