{
	"asset":{
		"generator":"Khronos glTF Blender I/O v4.2.60",
		"version":"2.0"
	},
	"extensionsUsed":[
		"KHR_materials_specular",
		"KHR_materials_ior"
	],
	"scene":0,
	"scenes":[
		{
			"name":"Scene",
			"nodes":[
				0
			]
		}
	],
	"nodes":[
		{
			"mesh":0,
			"name":"USS_Saladin_model_ship_Fed_Kelvin_01_016_QLT4",
			"rotation":[
				0.7071068286895752,
				0,
				0,
				0.7071068286895752
			]
		}
	],
	"materials":[
		{
			"doubleSided":true,
			"emissiveFactor":[
				1,
				1,
				1
			],
			"emissiveTexture":{
				"index":0
			},
			"extensions":{
				"KHR_materials_specular":{
					"specularTexture":{
						"index":1
					}
				},
				"KHR_materials_ior":{
					"ior":1.4500000476837158
				}
			},
			"name":"USS_Saladin_Base",
			"normalTexture":{
				"index":2,
				"scale":0
			},
			"pbrMetallicRoughness":{
				"baseColorTexture":{
					"index":3
				},
				"metallicFactor":0,
				"roughnessFactor":0.525658369064331
			}
		}
	],
	"meshes":[
		{
			"name":"USS_Saladin_model_ship_Fed_Kelvin_01_016_QLT4",
			"primitives":[
				{
					"attributes":{
						"POSITION":0,
						"NORMAL":1,
						"TEXCOORD_0":2
					},
					"indices":3,
					"material":0
				}
			]
		}
	],
	"textures":[
		{
			"sampler":0,
			"source":0
		},
		{
			"sampler":0,
			"source":1
		},
		{
			"sampler":0,
			"source":2
		},
		{
			"sampler":0,
			"source":3
		}
	],
	"images":[
		{
			"mimeType":"image/png",
			"name":"texture_ship_Fed_Kelvin_01_emi",
			"uri":"texture_ship_Fed_Kelvin_01_emi.png"
		},
		{
			"mimeType":"image/png",
			"name":"texture_ship_Fed_Kelvin_01_spec",
			"uri":"texture_ship_Fed_Kelvin_01_spec.png"
		},
		{
			"mimeType":"image/png",
			"name":"texture_ship_Fed_Kelvin_01_nm",
			"uri":"texture_ship_Fed_Kelvin_01_nm.png"
		},
		{
			"mimeType":"image/png",
			"name":"texture_ship_Fed_Kelvin_01_diff",
			"uri":"texture_ship_Fed_Kelvin_01_diff.png"
		}
	],
	"accessors":[
		{
			"bufferView":0,
			"componentType":5126,
			"count":9794,
			"max":[
				1.197090983390808,
				2.0906970500946045,
				0.3361850082874298
			],
			"min":[
				-1.197090983390808,
				-2.0899600982666016,
				-0.3371720016002655
			],
			"type":"VEC3"
		},
		{
			"bufferView":1,
			"componentType":5126,
			"count":9794,
			"type":"VEC3"
		},
		{
			"bufferView":2,
			"componentType":5126,
			"count":9794,
			"type":"VEC2"
		},
		{
			"bufferView":3,
			"componentType":5123,
			"count":40671,
			"type":"SCALAR"
		}
	],
	"bufferViews":[
		{
			"buffer":0,
			"byteLength":117528,
			"byteOffset":0,
			"target":34962
		},
		{
			"buffer":0,
			"byteLength":117528,
			"byteOffset":117528,
			"target":34962
		},
		{
			"buffer":0,
			"byteLength":78352,
			"byteOffset":235056,
			"target":34962
		},
		{
			"buffer":0,
			"byteLength":81342,
			"byteOffset":313408,
			"target":34963
		}
	],
	"samplers":[
		{
			"magFilter":9729,
			"minFilter":9987
		}
	],
	"buffers":[
		{
			"byteLength":394752,
			"uri":"uss.bin"
		}
	]
}
