{
	"asset":{
		"generator":"Khronos glTF Blender I/O v4.2.60",
		"version":"2.0"
	},
	"scene":0,
	"scenes":[
		{
			"name":"Scene",
			"nodes":[
				0
			]
		}
	],
	"nodes":[
		{
			"mesh":0,
			"name":"MODELS_bin_016:poly000_Untitled",
			"rotation":[
				0.7071068286895752,
				0,
				0,
				0.7071068286895752
			]
		}
	],
	"materials":[
		{
			"alphaMode":"BLEND",
			"doubleSided":true,
			"name":"MODELS_bin_016:poly000Material",
			"pbrMetallicRoughness":{
				"baseColorTexture":{
					"index":0
				},
				"roughnessFactor":0.696426510810852
			}
		},
		{
			"doubleSided":true,
			"name":"MODELS_bin_016:poly001Material",
			"pbrMetallicRoughness":{
				"baseColorTexture":{
					"index":1
				},
				"metallicFactor":0,
				"roughnessFactor":0.696426510810852
			}
		}
	],
	"meshes":[
		{
			"name":"MODELS_bin_016:poly000_Untitled",
			"primitives":[
				{
					"attributes":{
						"POSITION":0,
						"NORMAL":1,
						"TEXCOORD_0":2
					},
					"indices":3,
					"material":0
				},
				{
					"attributes":{
						"POSITION":4,
						"NORMAL":5,
						"TEXCOORD_0":6
					},
					"indices":7,
					"material":1
				}
			]
		}
	],
	"textures":[
		{
			"sampler":0,
			"source":0
		},
		{
			"sampler":0,
			"source":0
		}
	],
	"images":[
		{
			"mimeType":"image/png",
			"name":"MODELS.bin.016.000",
			"uri":"MODELS_bin_016_000.png"
		}
	],
	"accessors":[
		{
			"bufferView":0,
			"componentType":5126,
			"count":1417,
			"max":[
				1.7968759536743164,
				2.3437509536743164,
				0.6875
			],
			"min":[
				-1.7968759536743164,
				-2.2812509536743164,
				-1.0664069652557373
			],
			"type":"VEC3"
		},
		{
			"bufferView":1,
			"componentType":5126,
			"count":1417,
			"type":"VEC3"
		},
		{
			"bufferView":2,
			"componentType":5126,
			"count":1417,
			"type":"VEC2"
		},
		{
			"bufferView":3,
			"componentType":5123,
			"count":3897,
			"type":"SCALAR"
		},
		{
			"bufferView":4,
			"componentType":5126,
			"count":493,
			"max":[
				1.7968759536743164,
				2.3242199420928955,
				0.65625
			],
			"min":[
				-1.7968759536743164,
				-2.2421889305114746,
				-1.0664069652557373
			],
			"type":"VEC3"
		},
		{
			"bufferView":5,
			"componentType":5126,
			"count":493,
			"type":"VEC3"
		},
		{
			"bufferView":6,
			"componentType":5126,
			"count":493,
			"type":"VEC2"
		},
		{
			"bufferView":7,
			"componentType":5123,
			"count":1257,
			"type":"SCALAR"
		}
	],
	"bufferViews":[
		{
			"buffer":0,
			"byteLength":17004,
			"byteOffset":0,
			"target":34962
		},
		{
			"buffer":0,
			"byteLength":17004,
			"byteOffset":17004,
			"target":34962
		},
		{
			"buffer":0,
			"byteLength":11336,
			"byteOffset":34008,
			"target":34962
		},
		{
			"buffer":0,
			"byteLength":7794,
			"byteOffset":45344,
			"target":34963
		},
		{
			"buffer":0,
			"byteLength":5916,
			"byteOffset":53140,
			"target":34962
		},
		{
			"buffer":0,
			"byteLength":5916,
			"byteOffset":59056,
			"target":34962
		},
		{
			"buffer":0,
			"byteLength":3944,
			"byteOffset":64972,
			"target":34962
		},
		{
			"buffer":0,
			"byteLength":2514,
			"byteOffset":68916,
			"target":34963
		}
	],
	"samplers":[
		{
			"magFilter":9729,
			"minFilter":9987
		}
	],
	"buffers":[
		{
			"byteLength":71432,
			"uri":"gfox.bin"
		}
	]
}
