{
	"asset":{
		"generator":"Khronos glTF Blender I/O v4.2.60",
		"version":"2.0"
	},
	"extensionsUsed":[
		"KHR_materials_specular",
		"KHR_materials_ior"
	],
	"scene":0,
	"scenes":[
		{
			"name":"Scene",
			"nodes":[
				0
			]
		}
	],
	"nodes":[
		{
			"mesh":0,
			"name":"saber",
			"rotation":[
				0.7071068286895752,
				0,
				0,
				0.7071068286895752
			]
		}
	],
	"materials":[
		{
			"doubleSided":true,
			"extensions":{
				"KHR_materials_specular":{
					"specularFactor":0
				},
				"KHR_materials_ior":{
					"ior":1
				}
			},
			"name":"saber",
			"pbrMetallicRoughness":{
				"baseColorTexture":{
					"index":0
				},
				"metallicFactor":0
			}
		}
	],
	"meshes":[
		{
			"name":"saber",
			"primitives":[
				{
					"attributes":{
						"POSITION":0,
						"NORMAL":1,
						"TEXCOORD_0":2
					},
					"indices":3,
					"material":0
				}
			]
		}
	],
	"textures":[
		{
			"sampler":0,
			"source":0
		}
	],
	"images":[
		{
			"mimeType":"image/png",
			"name":"lightsaber",
			"uri":"lightsaber.png"
		}
	],
	"accessors":[
		{
			"bufferView":0,
			"componentType":5126,
			"count":146,
			"max":[
				0.04707099869847298,
				0.014515000395476818,
				0
			],
			"min":[
				-0.04707099869847298,
				-0.0903019979596138,
				-2.1565699577331543
			],
			"type":"VEC3"
		},
		{
			"bufferView":1,
			"componentType":5126,
			"count":146,
			"type":"VEC3"
		},
		{
			"bufferView":2,
			"componentType":5126,
			"count":146,
			"type":"VEC2"
		},
		{
			"bufferView":3,
			"componentType":5123,
			"count":384,
			"type":"SCALAR"
		}
	],
	"bufferViews":[
		{
			"buffer":0,
			"byteLength":1752,
			"byteOffset":0,
			"target":34962
		},
		{
			"buffer":0,
			"byteLength":1752,
			"byteOffset":1752,
			"target":34962
		},
		{
			"buffer":0,
			"byteLength":1168,
			"byteOffset":3504,
			"target":34962
		},
		{
			"buffer":0,
			"byteLength":768,
			"byteOffset":4672,
			"target":34963
		}
	],
	"samplers":[
		{
			"magFilter":9729,
			"minFilter":9987
		}
	],
	"buffers":[
		{
			"byteLength":5440,
			"uri":"lightsaber.bin"
		}
	]
}
