# Blender v2.79 (sub 0) OBJ File: ''
# www.blender.org
mtllib lightsaber.mtl
o saber
v -0.000055 2.156570 -0.044075
v 0.000054 2.156350 -0.014575
v 0.006125 2.156510 -0.029401
v -0.014874 2.156170 -0.008641
v -0.014884 2.156500 -0.050395
v -0.029449 2.156100 -0.014716
v -0.029309 2.156330 -0.044219
v -0.026950 0.577661 -0.066277
v -0.002575 0.577948 -0.076574
v 0.022308 0.577832 -0.066126
v 0.032352 0.577978 -0.041749
v 0.022156 0.577699 -0.016872
v -0.002474 0.577410 -0.006820
v -0.027096 0.577279 -0.017025
v -0.037397 0.577381 -0.041649
v 0.029599 0.583875 -0.009720
v -0.002112 0.583485 0.003444
v -0.001882 0.584116 -0.086474
v -0.033818 0.583697 -0.073411
v -0.033955 0.583383 -0.009782
v -0.035628 2.156160 -0.029390
v -0.016991 0.422748 -0.014267
v 0.015034 0.427593 0.006810
v -0.017172 0.427205 0.006838
v 0.015126 0.423037 -0.014081
v 0.014510 0.507483 0.007299
v -0.017694 0.507096 0.007323
v 0.014425 0.512961 -0.013443
v -0.017691 0.512673 -0.013633
v -0.017281 0.467273 0.014406
v 0.014900 0.467336 0.014515
v -0.029501 0.000000 -0.014010
v 0.002054 0.000305 -0.000809
v -0.042702 0.000025 -0.045639
v -0.029604 0.000350 -0.077137
v 0.033966 0.000396 -0.013737
v 0.002108 0.000740 -0.090302
v 0.047071 0.000721 -0.045231
v 0.033954 0.000843 -0.077073
v 0.042853 0.584068 -0.041506
v -0.000989 0.458399 -0.082373
v -0.047071 0.583501 -0.041626
v -0.029251 0.458123 -0.070665
v 0.001475 0.082706 -0.084786
v -0.026719 0.082195 -0.073158
v -0.041106 0.457908 -0.042434
v -0.038576 0.081979 -0.044923
v -0.029395 0.457777 -0.014115
v -0.026778 0.081950 -0.016817
v -0.001276 0.457898 -0.002421
v 0.001569 0.082095 -0.005018
v 0.027208 0.458201 -0.014024
v 0.029737 0.082276 -0.016513
v 0.038843 0.458393 -0.042358
v 0.041532 0.082723 -0.044667
v 0.027125 0.458524 -0.070680
v 0.029883 0.082624 -0.073066
v 0.001657 0.080406 -0.089891
v -0.030056 0.080014 -0.076723
v -0.043311 0.079819 -0.044943
v -0.030336 0.079769 -0.013414
v 0.001511 0.079872 -0.000186
v 0.033136 0.080166 -0.013143
v 0.046388 0.080357 -0.044925
v 0.033500 0.080509 -0.076664
v -0.000914 0.460953 -0.087338
v -0.032849 0.460536 -0.074279
v -0.046101 0.460340 -0.042494
v -0.032987 0.460220 -0.010647
v -0.001144 0.460322 0.002580
v 0.030569 0.460714 -0.010588
v 0.043823 0.460907 -0.042374
v 0.029737 0.584191 -0.073352
v 0.030706 0.461029 -0.074216
vt 0.942336 -0.395272
vt 0.942471 -0.401565
vt 0.938623 -0.398418
vt 0.951626 -0.402868
vt 0.951435 -0.393968
vt 0.960724 -0.401565
vt 0.960589 -0.395272
vt 0.964437 -0.398418
vt 0.939514 -0.395778
vt 0.936121 -0.987132
vt 0.956327 -0.396091
vt 0.917279 -0.988051
vt 0.920956 -0.395221
vt 0.936121 -0.987132
vt 0.939765 -0.395112
vt 0.955236 -0.987316
vt 0.956681 -0.395149
vt 0.978401 -0.988511
vt 0.973493 -0.395462
vt 0.994691 -0.988512
vt 0.992647 -0.395680
vt 0.978401 -0.988511
vt 0.973243 -0.396128
vt 0.954646 -0.988886
vt 0.876521 -0.001498
vt 0.762570 -0.118768
vt 0.795945 -0.035845
vt 0.795945 -0.201690
vt 0.957096 -0.035845
vt 0.990471 -0.118768
vt 0.876521 -0.236037
vt 0.957096 -0.201690
vt 0.733774 -0.061298
vt 0.638253 -0.105767
vt 0.734375 -0.105168
vt 0.637019 -0.061899
vt 0.639423 -0.384615
vt 0.733774 -0.328125
vt 0.638253 -0.329340
vt 0.732572 -0.383413
vt 0.636548 -0.213412
vt 0.577364 -0.315514
vt 0.621365 -0.304744
vt 0.576861 -0.110135
vt 0.620918 -0.122169
vt 0.636548 -0.213412
vt 0.576861 -0.110135
vt 0.620918 -0.122169
vt 0.577364 -0.315514
vt 0.621365 -0.304744
vt 0.733774 -0.216947
vt 0.638253 -0.217553
vt 0.864784 -0.364183
vt 0.763822 -0.358173
vt 0.815505 -0.383413
vt 0.889423 -0.311298
vt 0.745192 -0.305288
vt 0.869591 -0.257212
vt 0.766226 -0.255409
vt 0.820913 -0.232572
vt 0.007105 -0.188723
vt 0.076487 -0.995366
vt 0.006715 -0.995321
vt 0.077038 -0.188768
vt 0.146402 -0.995411
vt 0.146791 -0.188813
vt 0.216418 -0.995430
vt 0.216418 -0.188831
vt 0.286434 -0.995411
vt 0.286044 -0.188813
vt 0.356348 -0.995366
vt 0.355797 -0.188768
vt 0.426120 -0.995321
vt 0.425730 -0.188723
vt 0.495792 -0.995302
vt 0.495792 -0.188704
vt 0.565464 -0.995321
vt 0.565854 -0.188723
vt 0.007151 -0.002213
vt 0.076997 -0.183538
vt 0.007076 -0.183486
vt 0.077103 -0.002266
vt 0.146762 -0.183591
vt 0.146836 -0.002318
vt 0.216418 -0.183613
vt 0.216418 -0.002340
vt 0.286073 -0.183591
vt 0.285999 -0.002318
vt 0.355838 -0.183538
vt 0.355733 -0.002266
vt 0.425760 -0.183486
vt 0.425684 -0.002213
vt 0.495792 -0.183464
vt 0.495792 -0.002191
vt 0.565824 -0.183486
vt 0.565899 -0.002213
vt 0.901380 -0.403816
vt 0.579905 -0.476355
vt 0.579794 -0.403806
vt 0.901490 -0.476422
vt 0.580016 -0.549160
vt 0.901601 -0.549172
vt 0.580167 -0.622149
vt 0.901752 -0.622024
vt 0.580375 -0.695138
vt 0.901960 -0.694876
vt 0.580623 -0.767944
vt 0.902208 -0.767626
vt 0.580871 -0.840493
vt 0.902455 -0.840232
vt 0.581077 -0.912862
vt 0.902662 -0.912737
vt 0.581227 -0.985231
vt 0.902812 -0.985242
vt 0.920220 -0.069878
vt 0.915261 -0.075067
vt 0.938952 -0.117187
vt 0.875000 -0.057620
vt 0.875000 -0.050281
vt 0.834739 -0.075067
vt 0.829779 -0.069878
vt 0.818063 -0.117187
vt 0.811049 -0.117187
vt 0.834739 -0.159308
vt 0.829779 -0.164498
vt 0.875000 -0.176755
vt 0.875000 -0.184094
vt 0.915261 -0.159308
vt 0.920220 -0.164498
vt 0.931937 -0.117187
vt 0.947915 -0.043449
vt 0.957012 -0.034367
vt 0.978499 -0.117167
vt 0.874080 -0.000071
vt 0.874080 -0.012915
vt 0.791148 -0.034367
vt 0.800244 -0.043449
vt 0.756796 -0.117167
vt 0.769661 -0.117167
vt 0.791148 -0.199966
vt 0.800244 -0.190885
vt 0.874080 -0.234263
vt 0.874080 -0.221419
vt 0.957012 -0.199966
vt 0.947915 -0.190885
vt 0.991363 -0.117167
vn 0.5366 0.7409 -0.4040
vn 0.4803 0.5861 0.6525
vn 0.9280 0.3503 0.1269
vn -0.1027 0.7272 0.6787
vn 0.0877 0.7412 -0.6655
vn -0.5466 0.7261 0.4172
vn -0.4968 0.5859 -0.6403
vn -0.9320 0.3384 -0.1300
vn -0.7946 0.0077 -0.6071
vn -0.1418 0.0158 -0.9898
vn 0.6082 0.0214 -0.7935
vn 0.9901 0.0166 -0.1392
vn 0.7977 0.0109 0.6029
vn 0.1300 0.0027 0.9915
vn -0.6035 -0.0015 0.7973
vn -0.9905 0.0006 0.1374
vn 0.5392 0.7377 -0.4063
vn 0.4876 0.5808 0.6519
vn 0.9302 0.3424 0.1324
vn -0.0850 0.8153 0.5728
vn 0.1082 0.5878 -0.8018
vn -0.4141 0.7320 -0.5410
vn -0.6530 0.5742 0.4938
vn -0.9348 0.3306 -0.1294
vn -0.7023 -0.6966 0.1466
vn 0.2923 -0.6675 0.6848
vn -0.5105 -0.6039 0.6121
vn 0.8969 -0.4319 0.0950
vn 0.7006 0.6907 0.1794
vn -0.2920 0.6469 0.7045
vn 0.5040 0.5887 0.6320
vn -0.8986 0.4236 0.1145
vn -0.7137 -0.0525 0.6985
vn 0.7116 0.0432 0.7013
vn -0.8000 -0.5902 0.1079
vn 0.0961 -0.7342 0.6721
vn -0.5650 -0.3475 0.7484
vn -0.5379 -0.7329 -0.4166
vn 0.5469 -0.7300 0.4099
vn -0.0881 -0.7277 -0.6802
vn 0.8105 -0.5749 -0.1124
vn 0.5713 -0.3294 -0.7518
vn -0.0511 0.5659 -0.8229
vn -0.5565 -0.5484 -0.6242
vn 0.0474 -0.5377 -0.8418
vn -0.6202 0.5575 -0.5519
vn -0.8348 -0.5485 -0.0471
vn -0.8307 0.5548 0.0467
vn -0.6190 -0.5492 0.5614
vn -0.5552 0.5563 0.6183
vn -0.0385 -0.5464 0.8367
vn 0.0395 0.5557 0.8304
vn 0.5684 -0.5370 0.6233
vn 0.6096 0.5625 0.5586
vn 0.8415 -0.5388 0.0392
vn 0.8299 0.5565 -0.0387
vn 0.6255 -0.5366 -0.5663
vn 0.5518 0.5692 -0.6095
vn -0.5567 0.5606 -0.6130
vn 0.0392 0.5641 -0.8248
vn -0.8291 0.5574 -0.0450
vn -0.6192 0.5556 0.5549
vn -0.0504 0.5539 0.8310
vn 0.5508 0.5558 0.6226
vn 0.8286 0.5573 0.0522
vn 0.6128 0.5732 -0.5440
vn -0.0357 -0.5360 -0.8435
vn -0.6147 -0.5480 -0.5673
vn -0.8330 -0.5520 0.0381
vn -0.5614 -0.5499 0.6185
vn 0.0443 -0.5482 0.8352
vn 0.6281 -0.5365 0.5636
vn 0.8448 -0.5334 -0.0410
vn 0.5665 -0.5373 -0.6248
usemtl saber
s 1
f 1/1/1 2/2/2 3/3/3
f 4/4/4 2/2/2 1/1/1
f 5/5/5 4/4/4 1/1/1
f 6/6/6 4/4/4 5/5/5
f 7/7/7 6/6/6 5/5/5
f 21/8/8 6/6/6 7/7/7
f 7/9/7 8/10/9 21/11/8
f 9/12/10 8/10/9 7/9/7
f 5/13/5 9/12/10 7/9/7
f 10/14/11 9/12/10 5/13/5
f 1/15/1 10/14/11 5/13/5
f 11/16/12 10/14/11 1/15/1
f 3/17/3 11/16/12 1/15/1
f 12/18/13 11/16/12 3/17/3
f 2/19/2 12/18/13 3/17/3
f 13/20/14 12/18/13 2/19/2
f 4/21/4 13/20/14 2/19/2
f 14/22/15 13/20/14 4/21/4
f 6/23/6 14/22/15 4/21/4
f 15/24/16 14/22/15 6/23/6
f 21/11/8 15/24/16 6/23/6
f 8/10/9 15/24/16 21/11/8
f 73/25/17 16/26/18 40/27/19
f 17/28/20 16/26/18 73/25/17
f 18/29/21 17/28/20 73/25/17
f 19/30/22 17/28/20 18/29/21
f 20/31/23 17/28/20 19/30/22
f 42/32/24 20/31/23 19/30/22
f 22/33/25 23/34/26 24/35/27
f 25/36/28 23/34/26 22/33/25
f 28/37/29 27/38/30 26/39/31
f 29/40/32 27/38/30 28/37/29
f 30/41/33 22/42/25 24/43/27
f 29/44/32 22/42/25 30/41/33
f 27/45/30 29/44/32 30/41/33
f 31/46/34 28/47/29 26/48/31
f 25/49/28 28/47/29 31/46/34
f 23/50/26 25/49/28 31/46/34
f 23/34/26 30/51/33 24/35/27
f 31/52/34 30/51/33 23/34/26
f 27/38/30 30/51/33 31/52/34
f 26/39/31 27/38/30 31/52/34
f 34/53/35 33/54/36 32/55/37
f 35/56/38 33/54/36 34/53/35
f 36/57/39 33/54/36 35/56/38
f 37/58/40 36/57/39 35/56/38
f 38/59/41 36/57/39 37/58/40
f 39/60/42 38/59/41 37/58/40
f 44/61/43 43/62/44 41/63/45
f 45/64/46 43/62/44 44/61/43
f 46/65/47 43/62/44 45/64/46
f 47/66/48 46/65/47 45/64/46
f 48/67/49 46/65/47 47/66/48
f 49/68/50 48/67/49 47/66/48
f 50/69/51 48/67/49 49/68/50
f 51/70/52 50/69/51 49/68/50
f 52/71/53 50/69/51 51/70/52
f 53/72/54 52/71/53 51/70/52
f 54/73/55 52/71/53 53/72/54
f 55/74/56 54/73/55 53/72/54
f 56/75/57 54/73/55 55/74/56
f 57/76/58 56/75/57 55/74/56
f 41/77/45 56/75/57 57/76/58
f 44/78/43 41/77/45 57/76/58
f 37/79/40 59/80/59 58/81/60
f 35/82/38 59/80/59 37/79/40
f 60/83/61 59/80/59 35/82/38
f 34/84/35 60/83/61 35/82/38
f 61/85/62 60/83/61 34/84/35
f 32/86/37 61/85/62 34/84/35
f 62/87/63 61/85/62 32/86/37
f 33/88/36 62/87/63 32/86/37
f 63/89/64 62/87/63 33/88/36
f 36/90/39 63/89/64 33/88/36
f 64/91/65 63/89/64 36/90/39
f 38/92/41 64/91/65 36/90/39
f 65/93/66 64/91/65 38/92/41
f 39/94/42 65/93/66 38/92/41
f 58/95/60 65/93/66 39/94/42
f 37/96/40 58/95/60 39/94/42
f 66/97/67 19/98/22 18/99/21
f 67/100/68 19/98/22 66/97/67
f 42/101/24 19/98/22 67/100/68
f 68/102/69 42/101/24 67/100/68
f 20/103/23 42/101/24 68/102/69
f 69/104/70 20/103/23 68/102/69
f 17/105/20 20/103/23 69/104/70
f 70/106/71 17/105/20 69/104/70
f 16/107/18 17/105/20 70/106/71
f 71/108/72 16/107/18 70/106/71
f 40/109/19 16/107/18 71/108/72
f 72/110/73 40/109/19 71/108/72
f 73/111/17 40/109/19 72/110/73
f 74/112/74 73/111/17 72/110/73
f 18/113/21 73/111/17 74/112/74
f 66/114/67 18/113/21 74/112/74
f 66/115/67 41/116/45 67/117/68
f 56/118/57 41/116/45 66/115/67
f 74/119/74 56/118/57 66/115/67
f 54/120/55 56/118/57 74/119/74
f 72/121/73 54/120/55 74/119/74
f 52/122/53 54/120/55 72/121/73
f 71/123/72 52/122/53 72/121/73
f 50/124/51 52/122/53 71/123/72
f 70/125/71 50/124/51 71/123/72
f 48/126/49 50/124/51 70/125/71
f 69/127/70 48/126/49 70/125/71
f 46/128/47 48/126/49 69/127/70
f 68/129/69 46/128/47 69/127/70
f 43/130/44 46/128/47 68/129/69
f 67/117/68 43/130/44 68/129/69
f 41/116/45 43/130/44 67/117/68
f 44/131/43 58/132/60 45/133/46
f 65/134/66 58/132/60 44/131/43
f 57/135/58 65/134/66 44/131/43
f 64/136/65 65/134/66 57/135/58
f 55/137/56 64/136/65 57/135/58
f 63/138/64 64/136/65 55/137/56
f 53/139/54 63/138/64 55/137/56
f 62/140/63 63/138/64 53/139/54
f 51/141/52 62/140/63 53/139/54
f 61/142/62 62/140/63 51/141/52
f 49/143/50 61/142/62 51/141/52
f 60/144/61 61/142/62 49/143/50
f 47/145/48 60/144/61 49/143/50
f 59/146/59 60/144/61 47/145/48
f 45/133/46 59/146/59 47/145/48
f 58/132/60 59/146/59 45/133/46
