{
	"asset":{
		"generator":"Khronos glTF Blender I/O v4.2.60",
		"version":"2.0"
	},
	"scene":0,
	"scenes":[
		{
			"name":"Scene",
			"nodes":[
				10
			]
		}
	],
	"nodes":[
		{
			"mesh":0,
			"name":"pCylinder147_lambert1_0"
		},
		{
			"mesh":1,
			"name":"pCylinder147_lambert1_0.001"
		},
		{
			"mesh":2,
			"name":"pCylinder147_lambert1_0.002"
		},
		{
			"mesh":3,
			"name":"pCylinder147_lambert1_0.003"
		},
		{
			"mesh":4,
			"name":"pCylinder147_lambert1_0.004"
		},
		{
			"mesh":5,
			"name":"pCylinder147_lambert2_0"
		},
		{
			"mesh":6,
			"name":"pCylinder147_lambert2_0.001"
		},
		{
			"children":[
				0,
				1,
				2,
				3,
				4,
				5,
				6
			],
			"name":"pCylinder147"
		},
		{
			"children":[
				7
			],
			"name":"RootNode"
		},
		{
			"children":[
				8
			],
			"name":"93d90e0c91944b028c9eac86fbd2d261.fbx",
			"rotation":[
				0.70710688829422,
				0,
				0,
				0.7071066498756409
			]
		},
		{
			"children":[
				9
			],
			"name":"Sketchfab_model",
			"rotation":[
				-0.70710688829422,
				0,
				0,
				0.7071066498756409
			],
			"scale":[
				0.31210753321647644,
				0.3121075928211212,
				0.3121075928211212
			]
		}
	],
	"materials":[
		{
			"doubleSided":true,
			"name":"lambert1",
			"pbrMetallicRoughness":{
				"baseColorFactor":[
					0.5,
					0.5,
					0.5,
					1
				],
				"metallicFactor":0,
				"roughnessFactor":0.6000000238418579
			}
		},
		{
			"doubleSided":true,
			"name":"lambert2",
			"pbrMetallicRoughness":{
				"baseColorFactor":[
					0.5,
					0.5,
					0.5,
					1
				],
				"metallicFactor":0,
				"roughnessFactor":0.6000000238418579
			}
		}
	],
	"meshes":[
		{
			"name":"pCylinder147_lambert1_0",
			"primitives":[
				{
					"attributes":{
						"POSITION":0,
						"NORMAL":1,
						"TEXCOORD_0":2
					},
					"indices":3,
					"material":0
				}
			]
		},
		{
			"name":"pCylinder147_lambert1_0.001",
			"primitives":[
				{
					"attributes":{
						"POSITION":4,
						"NORMAL":5,
						"TEXCOORD_0":6
					},
					"indices":7,
					"material":0
				}
			]
		},
		{
			"name":"pCylinder147_lambert1_0.002",
			"primitives":[
				{
					"attributes":{
						"POSITION":8,
						"NORMAL":9,
						"TEXCOORD_0":10
					},
					"indices":11,
					"material":0
				}
			]
		},
		{
			"name":"pCylinder147_lambert1_0.003",
			"primitives":[
				{
					"attributes":{
						"POSITION":12,
						"NORMAL":13,
						"TEXCOORD_0":14
					},
					"indices":15,
					"material":0
				}
			]
		},
		{
			"name":"pCylinder147_lambert1_0.004",
			"primitives":[
				{
					"attributes":{
						"POSITION":16,
						"NORMAL":17,
						"TEXCOORD_0":18
					},
					"indices":19,
					"material":0
				}
			]
		},
		{
			"name":"pCylinder147_lambert2_0",
			"primitives":[
				{
					"attributes":{
						"POSITION":20,
						"NORMAL":21,
						"TEXCOORD_0":22
					},
					"indices":23,
					"material":1
				}
			]
		},
		{
			"name":"pCylinder147_lambert2_0.001",
			"primitives":[
				{
					"attributes":{
						"POSITION":24,
						"NORMAL":25,
						"TEXCOORD_0":26
					},
					"indices":27,
					"material":1
				}
			]
		}
	],
	"accessors":[
		{
			"bufferView":0,
			"componentType":5126,
			"count":66191,
			"max":[
				3.6337456703186035,
				39.4737548828125,
				3.6426773071289062
			],
			"min":[
				-3.644498825073242,
				9.01579761505127,
				-3.6426849365234375
			],
			"type":"VEC3"
		},
		{
			"bufferView":1,
			"componentType":5126,
			"count":66191,
			"type":"VEC3"
		},
		{
			"bufferView":2,
			"componentType":5126,
			"count":66191,
			"type":"VEC2"
		},
		{
			"bufferView":3,
			"componentType":5125,
			"count":326625,
			"type":"SCALAR"
		},
		{
			"bufferView":4,
			"componentType":5126,
			"count":67415,
			"max":[
				11.070417404174805,
				66.46063232421875,
				17.278350830078125
			],
			"min":[
				-11.070451736450195,
				14.924741744995117,
				-17.278297424316406
			],
			"type":"VEC3"
		},
		{
			"bufferView":5,
			"componentType":5126,
			"count":67415,
			"type":"VEC3"
		},
		{
			"bufferView":6,
			"componentType":5126,
			"count":67415,
			"type":"VEC2"
		},
		{
			"bufferView":7,
			"componentType":5125,
			"count":364941,
			"type":"SCALAR"
		},
		{
			"bufferView":8,
			"componentType":5126,
			"count":66282,
			"max":[
				27.715253829956055,
				77.80978393554688,
				20.884788513183594
			],
			"min":[
				-27.71533966064453,
				9.263237953186035,
				-20.884723663330078
			],
			"type":"VEC3"
		},
		{
			"bufferView":9,
			"componentType":5126,
			"count":66282,
			"type":"VEC3"
		},
		{
			"bufferView":10,
			"componentType":5126,
			"count":66282,
			"type":"VEC2"
		},
		{
			"bufferView":11,
			"componentType":5125,
			"count":352431,
			"type":"SCALAR"
		},
		{
			"bufferView":12,
			"componentType":5126,
			"count":65605,
			"max":[
				28.03035545349121,
				83.10939025878906,
				37.22978210449219
			],
			"min":[
				-11.428751945495605,
				2.6533308029174805,
				-36.93301010131836
			],
			"type":"VEC3"
		},
		{
			"bufferView":13,
			"componentType":5126,
			"count":65605,
			"type":"VEC3"
		},
		{
			"bufferView":14,
			"componentType":5126,
			"count":65605,
			"type":"VEC2"
		},
		{
			"bufferView":15,
			"componentType":5125,
			"count":313284,
			"type":"SCALAR"
		},
		{
			"bufferView":16,
			"componentType":5126,
			"count":27494,
			"max":[
				28.030498504638672,
				49.03517150878906,
				37.2301139831543
			],
			"min":[
				-11.430427551269531,
				36.802650451660156,
				-16.05129051208496
			],
			"type":"VEC3"
		},
		{
			"bufferView":17,
			"componentType":5126,
			"count":27494,
			"type":"VEC3"
		},
		{
			"bufferView":18,
			"componentType":5126,
			"count":27494,
			"type":"VEC2"
		},
		{
			"bufferView":19,
			"componentType":5123,
			"count":131700,
			"type":"SCALAR"
		},
		{
			"bufferView":20,
			"componentType":5126,
			"count":65570,
			"max":[
				28.818466186523438,
				49.048858642578125,
				37.948020935058594
			],
			"min":[
				-21.097686767578125,
				0,
				-21.097667694091797
			],
			"type":"VEC3"
		},
		{
			"bufferView":21,
			"componentType":5126,
			"count":65570,
			"type":"VEC3"
		},
		{
			"bufferView":22,
			"componentType":5126,
			"count":65570,
			"type":"VEC2"
		},
		{
			"bufferView":23,
			"componentType":5125,
			"count":370800,
			"type":"SCALAR"
		},
		{
			"bufferView":24,
			"componentType":5126,
			"count":10162,
			"max":[
				28.09625244140625,
				48.5455436706543,
				20.852230072021484
			],
			"min":[
				-9.089874267578125,
				44.36977767944336,
				-16.11495590209961
			],
			"type":"VEC3"
		},
		{
			"bufferView":25,
			"componentType":5126,
			"count":10162,
			"type":"VEC3"
		},
		{
			"bufferView":26,
			"componentType":5126,
			"count":10162,
			"type":"VEC2"
		},
		{
			"bufferView":27,
			"componentType":5123,
			"count":55476,
			"type":"SCALAR"
		}
	],
	"bufferViews":[
		{
			"buffer":0,
			"byteLength":794292,
			"byteOffset":0,
			"target":34962
		},
		{
			"buffer":0,
			"byteLength":794292,
			"byteOffset":794292,
			"target":34962
		},
		{
			"buffer":0,
			"byteLength":529528,
			"byteOffset":1588584,
			"target":34962
		},
		{
			"buffer":0,
			"byteLength":1306500,
			"byteOffset":2118112,
			"target":34963
		},
		{
			"buffer":0,
			"byteLength":808980,
			"byteOffset":3424612,
			"target":34962
		},
		{
			"buffer":0,
			"byteLength":808980,
			"byteOffset":4233592,
			"target":34962
		},
		{
			"buffer":0,
			"byteLength":539320,
			"byteOffset":5042572,
			"target":34962
		},
		{
			"buffer":0,
			"byteLength":1459764,
			"byteOffset":5581892,
			"target":34963
		},
		{
			"buffer":0,
			"byteLength":795384,
			"byteOffset":7041656,
			"target":34962
		},
		{
			"buffer":0,
			"byteLength":795384,
			"byteOffset":7837040,
			"target":34962
		},
		{
			"buffer":0,
			"byteLength":530256,
			"byteOffset":8632424,
			"target":34962
		},
		{
			"buffer":0,
			"byteLength":1409724,
			"byteOffset":9162680,
			"target":34963
		},
		{
			"buffer":0,
			"byteLength":787260,
			"byteOffset":10572404,
			"target":34962
		},
		{
			"buffer":0,
			"byteLength":787260,
			"byteOffset":11359664,
			"target":34962
		},
		{
			"buffer":0,
			"byteLength":524840,
			"byteOffset":12146924,
			"target":34962
		},
		{
			"buffer":0,
			"byteLength":1253136,
			"byteOffset":12671764,
			"target":34963
		},
		{
			"buffer":0,
			"byteLength":329928,
			"byteOffset":13924900,
			"target":34962
		},
		{
			"buffer":0,
			"byteLength":329928,
			"byteOffset":14254828,
			"target":34962
		},
		{
			"buffer":0,
			"byteLength":219952,
			"byteOffset":14584756,
			"target":34962
		},
		{
			"buffer":0,
			"byteLength":263400,
			"byteOffset":14804708,
			"target":34963
		},
		{
			"buffer":0,
			"byteLength":786840,
			"byteOffset":15068108,
			"target":34962
		},
		{
			"buffer":0,
			"byteLength":786840,
			"byteOffset":15854948,
			"target":34962
		},
		{
			"buffer":0,
			"byteLength":524560,
			"byteOffset":16641788,
			"target":34962
		},
		{
			"buffer":0,
			"byteLength":1483200,
			"byteOffset":17166348,
			"target":34963
		},
		{
			"buffer":0,
			"byteLength":121944,
			"byteOffset":18649548,
			"target":34962
		},
		{
			"buffer":0,
			"byteLength":121944,
			"byteOffset":18771492,
			"target":34962
		},
		{
			"buffer":0,
			"byteLength":81296,
			"byteOffset":18893436,
			"target":34962
		},
		{
			"buffer":0,
			"byteLength":110952,
			"byteOffset":18974732,
			"target":34963
		}
	],
	"buffers":[
		{
			"byteLength":19085684,
			"uri":"scene.bin"
		}
	]
}
