{
	"asset":{
		"generator":"Khronos glTF Blender I/O v4.2.60",
		"version":"2.0"
	},
	"extensionsUsed":[
		"KHR_materials_specular"
	],
	"scene":0,
	"scenes":[
		{
			"name":"Scene",
			"nodes":[
				13
			]
		}
	],
	"nodes":[
		{
			"mesh":0,
			"name":"down_light_a"
		},
		{
			"mesh":1,
			"name":"down_light_b"
		},
		{
			"mesh":2,
			"name":"down_light_c_hne_01"
		},
		{
			"mesh":3,
			"name":"down_light_c_hne_02a"
		},
		{
			"mesh":4,
			"name":"down_light_c_hne_02b"
		},
		{
			"children":[
				3,
				4
			],
			"name":"down_light_c_hne_02"
		},
		{
			"children":[
				2,
				5
			],
			"name":"down_light_c"
		},
		{
			"children":[
				0,
				1,
				6
			],
			"name":"down_light"
		},
		{
			"mesh":5,
			"name":"down_light_hane_1"
		},
		{
			"mesh":6,
			"name":"down_light_hane_2"
		},
		{
			"mesh":7,
			"name":"down_light_hane_3"
		},
		{
			"mesh":8,
			"name":"down_light_hane_4"
		},
		{
			"children":[
				8,
				9,
				10,
				11
			],
			"name":"down_light_hane"
		},
		{
			"children":[
				7,
				12
			],
			"name":"__bti_S",
			"rotation":[
				0.7071067690849304,
				0,
				0,
				0.7071068286895752
			],
			"scale":[
				0.4426073431968689,
				0.4426073431968689,
				0.4426073431968689
			]
		}
	],
	"materials":[
		{
			"doubleSided":true,
			"extensions":{
				"KHR_materials_specular":{
					"specularFactor":0
				}
			},
			"name":"vertexColors",
			"pbrMetallicRoughness":{
				"baseColorTexture":{
					"index":0
				},
				"metallicFactor":0,
				"roughnessFactor":0.5
			}
		},
		{
			"doubleSided":true,
			"extensions":{
				"KHR_materials_specular":{
					"specularFactor":0
				}
			},
			"name":"mat0",
			"pbrMetallicRoughness":{
				"baseColorTexture":{
					"index":1
				},
				"metallicFactor":0,
				"roughnessFactor":0.5
			}
		}
	],
	"meshes":[
		{
			"name":"ID54",
			"primitives":[
				{
					"attributes":{
						"POSITION":0,
						"NORMAL":1,
						"TEXCOORD_0":2
					},
					"indices":3,
					"material":0
				}
			]
		},
		{
			"name":"ID63",
			"primitives":[
				{
					"attributes":{
						"POSITION":4,
						"NORMAL":5,
						"TEXCOORD_0":6
					},
					"indices":7,
					"material":0
				}
			]
		},
		{
			"name":"ID92",
			"primitives":[
				{
					"attributes":{
						"POSITION":8,
						"NORMAL":9,
						"TEXCOORD_0":10
					},
					"indices":11,
					"material":0
				}
			]
		},
		{
			"name":"ID83",
			"primitives":[
				{
					"attributes":{
						"POSITION":12,
						"NORMAL":13,
						"TEXCOORD_0":14
					},
					"indices":15,
					"material":0
				}
			]
		},
		{
			"name":"ID74",
			"primitives":[
				{
					"attributes":{
						"POSITION":16,
						"NORMAL":17,
						"TEXCOORD_0":18
					},
					"indices":19,
					"material":1
				}
			]
		},
		{
			"name":"ID44",
			"primitives":[
				{
					"attributes":{
						"POSITION":20,
						"NORMAL":21,
						"TEXCOORD_0":22
					},
					"indices":23,
					"material":0
				}
			]
		},
		{
			"name":"ID35",
			"primitives":[
				{
					"attributes":{
						"POSITION":24,
						"NORMAL":25,
						"TEXCOORD_0":26
					},
					"indices":27,
					"material":0
				}
			]
		},
		{
			"name":"ID26",
			"primitives":[
				{
					"attributes":{
						"POSITION":28,
						"NORMAL":29,
						"TEXCOORD_0":30
					},
					"indices":23,
					"material":0
				}
			]
		},
		{
			"name":"ID17",
			"primitives":[
				{
					"attributes":{
						"POSITION":31,
						"NORMAL":32,
						"TEXCOORD_0":33
					},
					"indices":27,
					"material":0
				}
			]
		}
	],
	"textures":[
		{
			"sampler":0,
			"source":0
		},
		{
			"sampler":0,
			"source":1
		}
	],
	"images":[
		{
			"mimeType":"image/png",
			"name":"vertexColors",
			"uri":"vertexColors.png"
		},
		{
			"mimeType":"image/png",
			"name":"hei_bt_light_01",
			"uri":"hei_bt_light_01.png"
		}
	],
	"accessors":[
		{
			"bufferView":0,
			"componentType":5126,
			"count":80,
			"max":[
				1.350000023841858,
				0.14999999105930328,
				-0.8499999642372131
			],
			"min":[
				-1.350000023841858,
				-0.14999999105930328,
				-1.149999976158142
			],
			"type":"VEC3"
		},
		{
			"bufferView":1,
			"componentType":5126,
			"count":80,
			"type":"VEC3"
		},
		{
			"bufferView":2,
			"componentType":5126,
			"count":80,
			"type":"VEC2"
		},
		{
			"bufferView":3,
			"componentType":5123,
			"count":96,
			"type":"SCALAR"
		},
		{
			"bufferView":4,
			"componentType":5126,
			"count":152,
			"max":[
				1.25,
				0.20000000298023224,
				-0.75
			],
			"min":[
				-1.25,
				-0.20000000298023224,
				-3.2250001430511475
			],
			"type":"VEC3"
		},
		{
			"bufferView":5,
			"componentType":5126,
			"count":152,
			"type":"VEC3"
		},
		{
			"bufferView":6,
			"componentType":5126,
			"count":152,
			"type":"VEC2"
		},
		{
			"bufferView":7,
			"componentType":5123,
			"count":228,
			"type":"SCALAR"
		},
		{
			"bufferView":8,
			"componentType":5126,
			"count":120,
			"max":[
				0.9659249782562256,
				0.9659259915351868,
				-0.4999989867210388
			],
			"min":[
				-0.9659259915351868,
				-0.9659259915351868,
				-2.25
			],
			"type":"VEC3"
		},
		{
			"bufferView":9,
			"componentType":5126,
			"count":120,
			"type":"VEC3"
		},
		{
			"bufferView":10,
			"componentType":5126,
			"count":120,
			"type":"VEC2"
		},
		{
			"bufferView":11,
			"componentType":5123,
			"count":144,
			"type":"SCALAR"
		},
		{
			"bufferView":12,
			"componentType":5126,
			"count":180,
			"max":[
				1.209999918937683,
				1.209999918937683,
				8.344649700120499e-07
			],
			"min":[
				-1.209999918937683,
				-1.209999918937683,
				-0.5000010132789612
			],
			"type":"VEC3"
		},
		{
			"bufferView":13,
			"componentType":5126,
			"count":180,
			"type":"VEC3"
		},
		{
			"bufferView":14,
			"componentType":5126,
			"count":180,
			"type":"VEC2"
		},
		{
			"bufferView":15,
			"componentType":5123,
			"count":252,
			"type":"SCALAR"
		},
		{
			"bufferView":16,
			"componentType":5126,
			"count":36,
			"max":[
				0.9108870029449463,
				0.9108870029449463,
				-0.2499990016222
			],
			"min":[
				-0.9108870029449463,
				-0.9108870029449463,
				-0.2500010132789612
			],
			"type":"VEC3"
		},
		{
			"bufferView":17,
			"componentType":5126,
			"count":36,
			"type":"VEC3"
		},
		{
			"bufferView":18,
			"componentType":5126,
			"count":36,
			"type":"VEC2"
		},
		{
			"bufferView":19,
			"componentType":5123,
			"count":36,
			"type":"SCALAR"
		},
		{
			"bufferView":20,
			"componentType":5126,
			"count":40,
			"max":[
				-1.2066999673843384,
				0.9000000357627869,
				1.5405399799346924
			],
			"min":[
				-2.168299913406372,
				-0.9000000357627869,
				-0.025000600144267082
			],
			"type":"VEC3"
		},
		{
			"bufferView":21,
			"componentType":5126,
			"count":40,
			"type":"VEC3"
		},
		{
			"bufferView":22,
			"componentType":5126,
			"count":40,
			"type":"VEC2"
		},
		{
			"bufferView":23,
			"componentType":5123,
			"count":60,
			"type":"SCALAR"
		},
		{
			"bufferView":24,
			"componentType":5126,
			"count":24,
			"max":[
				1.209999918937683,
				-1.2066999673843384,
				1.5405399799346924
			],
			"min":[
				-1.209999918937683,
				-2.168299913406372,
				-0.025000199675559998
			],
			"type":"VEC3"
		},
		{
			"bufferView":25,
			"componentType":5126,
			"count":24,
			"type":"VEC3"
		},
		{
			"bufferView":26,
			"componentType":5126,
			"count":24,
			"type":"VEC2"
		},
		{
			"bufferView":27,
			"componentType":5123,
			"count":36,
			"type":"SCALAR"
		},
		{
			"bufferView":28,
			"componentType":5126,
			"count":40,
			"max":[
				2.168299913406372,
				0.9000000357627869,
				1.5405399799346924
			],
			"min":[
				1.2066999673843384,
				-0.9000000357627869,
				-0.025000600144267082
			],
			"type":"VEC3"
		},
		{
			"bufferView":29,
			"componentType":5126,
			"count":40,
			"type":"VEC3"
		},
		{
			"bufferView":30,
			"componentType":5126,
			"count":40,
			"type":"VEC2"
		},
		{
			"bufferView":31,
			"componentType":5126,
			"count":24,
			"max":[
				1.209999918937683,
				2.168299913406372,
				1.5405399799346924
			],
			"min":[
				-1.209999918937683,
				1.2066999673843384,
				-0.025000600144267082
			],
			"type":"VEC3"
		},
		{
			"bufferView":32,
			"componentType":5126,
			"count":24,
			"type":"VEC3"
		},
		{
			"bufferView":33,
			"componentType":5126,
			"count":24,
			"type":"VEC2"
		}
	],
	"bufferViews":[
		{
			"buffer":0,
			"byteLength":960,
			"byteOffset":0,
			"target":34962
		},
		{
			"buffer":0,
			"byteLength":960,
			"byteOffset":960,
			"target":34962
		},
		{
			"buffer":0,
			"byteLength":640,
			"byteOffset":1920,
			"target":34962
		},
		{
			"buffer":0,
			"byteLength":192,
			"byteOffset":2560,
			"target":34963
		},
		{
			"buffer":0,
			"byteLength":1824,
			"byteOffset":2752,
			"target":34962
		},
		{
			"buffer":0,
			"byteLength":1824,
			"byteOffset":4576,
			"target":34962
		},
		{
			"buffer":0,
			"byteLength":1216,
			"byteOffset":6400,
			"target":34962
		},
		{
			"buffer":0,
			"byteLength":456,
			"byteOffset":7616,
			"target":34963
		},
		{
			"buffer":0,
			"byteLength":1440,
			"byteOffset":8072,
			"target":34962
		},
		{
			"buffer":0,
			"byteLength":1440,
			"byteOffset":9512,
			"target":34962
		},
		{
			"buffer":0,
			"byteLength":960,
			"byteOffset":10952,
			"target":34962
		},
		{
			"buffer":0,
			"byteLength":288,
			"byteOffset":11912,
			"target":34963
		},
		{
			"buffer":0,
			"byteLength":2160,
			"byteOffset":12200,
			"target":34962
		},
		{
			"buffer":0,
			"byteLength":2160,
			"byteOffset":14360,
			"target":34962
		},
		{
			"buffer":0,
			"byteLength":1440,
			"byteOffset":16520,
			"target":34962
		},
		{
			"buffer":0,
			"byteLength":504,
			"byteOffset":17960,
			"target":34963
		},
		{
			"buffer":0,
			"byteLength":432,
			"byteOffset":18464,
			"target":34962
		},
		{
			"buffer":0,
			"byteLength":432,
			"byteOffset":18896,
			"target":34962
		},
		{
			"buffer":0,
			"byteLength":288,
			"byteOffset":19328,
			"target":34962
		},
		{
			"buffer":0,
			"byteLength":72,
			"byteOffset":19616,
			"target":34963
		},
		{
			"buffer":0,
			"byteLength":480,
			"byteOffset":19688,
			"target":34962
		},
		{
			"buffer":0,
			"byteLength":480,
			"byteOffset":20168,
			"target":34962
		},
		{
			"buffer":0,
			"byteLength":320,
			"byteOffset":20648,
			"target":34962
		},
		{
			"buffer":0,
			"byteLength":120,
			"byteOffset":20968,
			"target":34963
		},
		{
			"buffer":0,
			"byteLength":288,
			"byteOffset":21088,
			"target":34962
		},
		{
			"buffer":0,
			"byteLength":288,
			"byteOffset":21376,
			"target":34962
		},
		{
			"buffer":0,
			"byteLength":192,
			"byteOffset":21664,
			"target":34962
		},
		{
			"buffer":0,
			"byteLength":72,
			"byteOffset":21856,
			"target":34963
		},
		{
			"buffer":0,
			"byteLength":480,
			"byteOffset":21928,
			"target":34962
		},
		{
			"buffer":0,
			"byteLength":480,
			"byteOffset":22408,
			"target":34962
		},
		{
			"buffer":0,
			"byteLength":320,
			"byteOffset":22888,
			"target":34962
		},
		{
			"buffer":0,
			"byteLength":288,
			"byteOffset":23208,
			"target":34962
		},
		{
			"buffer":0,
			"byteLength":288,
			"byteOffset":23496,
			"target":34962
		},
		{
			"buffer":0,
			"byteLength":192,
			"byteOffset":23784,
			"target":34962
		}
	],
	"samplers":[
		{
			"magFilter":9729,
			"minFilter":9987
		}
	],
	"buffers":[
		{
			"byteLength":23976,
			"uri":"stageLight.bin"
		}
	]
}
