{
	"asset":{
		"generator":"Khronos glTF Blender I/O v4.2.60",
		"version":"2.0"
	},
	"extensionsUsed":[
		"KHR_materials_specular"
	],
	"scene":0,
	"scenes":[
		{
			"name":"Scene",
			"nodes":[
				5
			]
		}
	],
	"nodes":[
		{
			"name":"00_map",
			"translation":[
				0,
				0.0011393568711355329,
				0.00011813559103757143
			]
		},
		{
			"children":[
				0
			],
			"name":"OOsunadoriStage",
			"translation":[
				0,
				0.0011393568711355329,
				0.00011813559103757143
			]
		},
		{
			"children":[
				1
			],
			"name":"OOsunadoriStage2",
			"translation":[
				0,
				0.0011393568711355329,
				0.00011813559103757143
			]
		},
		{
			"children":[
				2
			],
			"name":"root",
			"rotation":[
				-0.7071067690849304,
				0,
				0,
				0.7071067690849304
			],
			"translation":[
				0,
				0.00011813559103757143,
				-0.0011393568711355329
			]
		},
		{
			"mesh":0,
			"name":"m3.001",
			"skin":0
		},
		{
			"children":[
				4,
				3
			],
			"name":"Armature",
			"rotation":[
				0.70710688829422,
				0,
				0,
				0.7071066498756409
			],
			"scale":[
				0.009999999776482582,
				0.010000000707805157,
				0.010000000707805157
			],
			"translation":[
				73.82503509521484,
				-145.07347106933594,
				12.116388320922852
			]
		}
	],
	"materials":[
		{
			"doubleSided":true,
			"extensions":{
				"KHR_materials_specular":{
					"specularFactor":0
				}
			},
			"name":"_tower_1.001",
			"pbrMetallicRoughness":{
				"baseColorTexture":{
					"index":0
				},
				"metallicFactor":0,
				"roughnessFactor":0.5
			}
		}
	],
	"meshes":[
		{
			"name":"mesh3.002",
			"primitives":[
				{
					"attributes":{
						"POSITION":0,
						"NORMAL":1,
						"TEXCOORD_0":2,
						"COLOR_0":3,
						"COLOR_1":4,
						"JOINTS_0":5,
						"WEIGHTS_0":6
					},
					"indices":7,
					"material":0
				}
			]
		}
	],
	"textures":[
		{
			"sampler":0,
			"source":0
		}
	],
	"images":[
		{
			"mimeType":"image/png",
			"name":"A_joheki02",
			"uri":"A_joheki02.png"
		}
	],
	"skins":[
		{
			"inverseBindMatrices":8,
			"joints":[
				3,
				2,
				1,
				0
			],
			"name":"Armature"
		}
	],
	"accessors":[
		{
			"bufferView":0,
			"componentType":5126,
			"count":3026,
			"max":[
				23.29863166809082,
				186.59425354003906,
				13.58085823059082
			],
			"min":[
				15.40540885925293,
				12.364690780639648,
				5.687621116638184
			],
			"type":"VEC3"
		},
		{
			"bufferView":1,
			"componentType":5126,
			"count":3026,
			"type":"VEC3"
		},
		{
			"bufferView":2,
			"componentType":5126,
			"count":3026,
			"type":"VEC2"
		},
		{
			"bufferView":3,
			"componentType":5121,
			"count":3026,
			"normalized":true,
			"type":"VEC4"
		},
		{
			"bufferView":4,
			"componentType":5126,
			"count":3026,
			"type":"VEC3"
		},
		{
			"bufferView":5,
			"componentType":5121,
			"count":3026,
			"type":"VEC4"
		},
		{
			"bufferView":6,
			"componentType":5126,
			"count":3026,
			"type":"VEC4"
		},
		{
			"bufferView":7,
			"componentType":5123,
			"count":8784,
			"type":"SCALAR"
		},
		{
			"bufferView":8,
			"componentType":5126,
			"count":4,
			"type":"MAT4"
		}
	],
	"bufferViews":[
		{
			"buffer":0,
			"byteLength":36312,
			"byteOffset":0,
			"target":34962
		},
		{
			"buffer":0,
			"byteLength":36312,
			"byteOffset":36312,
			"target":34962
		},
		{
			"buffer":0,
			"byteLength":24208,
			"byteOffset":72624,
			"target":34962
		},
		{
			"buffer":0,
			"byteLength":12104,
			"byteOffset":96832,
			"target":34962
		},
		{
			"buffer":0,
			"byteLength":36312,
			"byteOffset":108936,
			"target":34962
		},
		{
			"buffer":0,
			"byteLength":12104,
			"byteOffset":145248,
			"target":34962
		},
		{
			"buffer":0,
			"byteLength":48416,
			"byteOffset":157352,
			"target":34962
		},
		{
			"buffer":0,
			"byteLength":17568,
			"byteOffset":205768,
			"target":34963
		},
		{
			"buffer":0,
			"byteLength":256,
			"byteOffset":223336
		}
	],
	"samplers":[
		{
			"magFilter":9729,
			"minFilter":9987
		}
	],
	"buffers":[
		{
			"byteLength":223592,
			"uri":"test.bin"
		}
	]
}
