{
	"asset":{
		"generator":"Khronos glTF Blender I/O v4.2.60",
		"version":"2.0"
	},
	"extensionsUsed":[
		"KHR_materials_specular"
	],
	"scene":0,
	"scenes":[
		{
			"name":"Scene",
			"nodes":[
				0,
				1
			]
		}
	],
	"nodes":[
		{
			"name":"m3.001",
			"rotation":[
				0.70710688829422,
				0,
				0,
				0.7071066498756409
			],
			"scale":[
				0.009999999776482582,
				0.009999998845160007,
				0.009999998845160007
			],
			"translation":[
				110.54066467285156,
				-83.75265502929688,
				-42.94053268432617
			]
		},
		{
			"mesh":0,
			"name":"m3.002",
			"rotation":[
				0.70710688829422,
				0,
				0,
				0.7071066498756409
			],
			"scale":[
				0.009999999776482582,
				0.009999998845160007,
				0.009999998845160007
			]
		}
	],
	"materials":[
		{
			"doubleSided":true,
			"extensions":{
				"KHR_materials_specular":{
					"specularFactor":0
				}
			},
			"name":"_tower_1.001",
			"pbrMetallicRoughness":{
				"baseColorTexture":{
					"index":0
				},
				"metallicFactor":0,
				"roughnessFactor":0.5
			}
		}
	],
	"meshes":[
		{
			"name":"mesh3.001",
			"primitives":[
				{
					"attributes":{
						"POSITION":0,
						"NORMAL":1,
						"TEXCOORD_0":2,
						"COLOR_0":3,
						"COLOR_1":4
					},
					"indices":5,
					"material":0
				}
			]
		}
	],
	"textures":[
		{
			"sampler":0,
			"source":0
		}
	],
	"images":[
		{
			"mimeType":"image/png",
			"name":"A_joheki02",
			"uri":"A_joheki02.png"
		}
	],
	"accessors":[
		{
			"bufferView":0,
			"componentType":5126,
			"count":3078,
			"max":[
				398.96240234375,
				388.4130859375,
				20.349609375
			],
			"min":[
				-390.35986328125,
				-400.90966796875,
				-17402.603515625
			],
			"type":"VEC3"
		},
		{
			"bufferView":1,
			"componentType":5126,
			"count":3078,
			"type":"VEC3"
		},
		{
			"bufferView":2,
			"componentType":5126,
			"count":3078,
			"type":"VEC2"
		},
		{
			"bufferView":3,
			"componentType":5126,
			"count":3078,
			"type":"VEC3"
		},
		{
			"bufferView":4,
			"componentType":5126,
			"count":3078,
			"type":"VEC3"
		},
		{
			"bufferView":5,
			"componentType":5123,
			"count":8784,
			"type":"SCALAR"
		}
	],
	"bufferViews":[
		{
			"buffer":0,
			"byteLength":36936,
			"byteOffset":0,
			"target":34962
		},
		{
			"buffer":0,
			"byteLength":36936,
			"byteOffset":36936,
			"target":34962
		},
		{
			"buffer":0,
			"byteLength":24624,
			"byteOffset":73872,
			"target":34962
		},
		{
			"buffer":0,
			"byteLength":36936,
			"byteOffset":98496,
			"target":34962
		},
		{
			"buffer":0,
			"byteLength":36936,
			"byteOffset":135432,
			"target":34962
		},
		{
			"buffer":0,
			"byteLength":17568,
			"byteOffset":172368,
			"target":34963
		}
	],
	"samplers":[
		{
			"magFilter":9729,
			"minFilter":9987
		}
	],
	"buffers":[
		{
			"byteLength":189936,
			"uri":"torre.bin"
		}
	]
}
