{
	"asset":{
		"generator":"Khronos glTF Blender I/O v4.2.60",
		"version":"2.0"
	},
	"extensionsUsed":[
		"KHR_materials_specular"
	],
	"scene":0,
	"scenes":[
		{
			"name":"Scene",
			"nodes":[
				0
			]
		}
	],
	"nodes":[
		{
			"mesh":0,
			"name":"wavefront obj",
			"rotation":[
				0.7071068286895752,
				0,
				0,
				0.7071068286895752
			],
			"scale":[
				0.05118602514266968,
				0.05118602514266968,
				0.05118602514266968
			]
		}
	],
	"materials":[
		{
			"doubleSided":true,
			"extensions":{
				"KHR_materials_specular":{
					"specularFactor":0.4000000059604645
				}
			},
			"name":"acmat_0",
			"pbrMetallicRoughness":{
				"baseColorTexture":{
					"index":0
				},
				"metallicFactor":0,
				"roughnessFactor":0.6422290802001953
			}
		}
	],
	"meshes":[
		{
			"name":"wavefront obj",
			"primitives":[
				{
					"attributes":{
						"POSITION":0,
						"NORMAL":1,
						"TEXCOORD_0":2
					},
					"indices":3,
					"material":0
				}
			]
		}
	],
	"textures":[
		{
			"sampler":0,
			"source":0
		}
	],
	"images":[
		{
			"mimeType":"image/png",
			"name":"Portalgun_Prop",
			"uri":"Portalgun_Prop.png"
		}
	],
	"accessors":[
		{
			"bufferView":0,
			"componentType":5126,
			"count":8573,
			"max":[
				11.058199882507324,
				5.958119869232178,
				-0.07880590111017227
			],
			"min":[
				-11.892000198364258,
				-6.007730007171631,
				-10.206199645996094
			],
			"type":"VEC3"
		},
		{
			"bufferView":1,
			"componentType":5126,
			"count":8573,
			"type":"VEC3"
		},
		{
			"bufferView":2,
			"componentType":5126,
			"count":8573,
			"type":"VEC2"
		},
		{
			"bufferView":3,
			"componentType":5123,
			"count":12351,
			"type":"SCALAR"
		}
	],
	"bufferViews":[
		{
			"buffer":0,
			"byteLength":102876,
			"byteOffset":0,
			"target":34962
		},
		{
			"buffer":0,
			"byteLength":102876,
			"byteOffset":102876,
			"target":34962
		},
		{
			"buffer":0,
			"byteLength":68584,
			"byteOffset":205752,
			"target":34962
		},
		{
			"buffer":0,
			"byteLength":24702,
			"byteOffset":274336,
			"target":34963
		}
	],
	"samplers":[
		{
			"magFilter":9729,
			"minFilter":9987
		}
	],
	"buffers":[
		{
			"byteLength":299040,
			"uri":"portalgun.bin"
		}
	]
}
