{
	"asset":{
		"generator":"Khronos glTF Blender I/O v4.2.60",
		"version":"2.0"
	},
	"extensionsUsed":[
		"KHR_materials_specular"
	],
	"scene":0,
	"scenes":[
		{
			"name":"Scene",
			"nodes":[
				0,
				1,
				2,
				3,
				4,
				5,
				6,
				7,
				8
			]
		}
	],
	"nodes":[
		{
			"mesh":0,
			"name":"arm",
			"rotation":[
				0.7071068286895752,
				0,
				0,
				0.7071068286895752
			]
		},
		{
			"mesh":1,
			"name":"body",
			"rotation":[
				0.7071068286895752,
				0,
				0,
				0.7071068286895752
			]
		},
		{
			"mesh":2,
			"name":"foot_C",
			"rotation":[
				0.7071068286895752,
				0,
				0,
				0.7071068286895752
			]
		},
		{
			"mesh":3,
			"name":"foot_L",
			"rotation":[
				0.7071068286895752,
				0,
				0,
				0.7071068286895752
			]
		},
		{
			"mesh":4,
			"name":"foot_R",
			"rotation":[
				0.7071068286895752,
				0,
				0,
				0.7071068286895752
			]
		},
		{
			"mesh":5,
			"name":"head",
			"rotation":[
				0.7071068286895752,
				0,
				0,
				0.7071068286895752
			]
		},
		{
			"mesh":6,
			"name":"leg_C",
			"rotation":[
				0.7071068286895752,
				0,
				0,
				0.7071068286895752
			]
		},
		{
			"mesh":7,
			"name":"leg_L",
			"rotation":[
				0.7071068286895752,
				0,
				0,
				0.7071068286895752
			]
		},
		{
			"mesh":8,
			"name":"leg_R",
			"rotation":[
				0.7071068286895752,
				0,
				0,
				0.7071068286895752
			]
		}
	],
	"materials":[
		{
			"doubleSided":true,
			"extensions":{
				"KHR_materials_specular":{
					"specularColorFactor":[
						1.600000023841858,
						1.600000023841858,
						1.600000023841858
					]
				}
			},
			"name":"None_r2d2arm.png",
			"pbrMetallicRoughness":{
				"baseColorTexture":{
					"index":0
				},
				"metallicFactor":0
			}
		},
		{
			"doubleSided":true,
			"extensions":{
				"KHR_materials_specular":{
					"specularColorFactor":[
						1.600000023841858,
						1.600000023841858,
						1.600000023841858
					]
				}
			},
			"name":"None_r2d2bod.png",
			"pbrMetallicRoughness":{
				"baseColorTexture":{
					"index":1
				},
				"metallicFactor":0
			}
		},
		{
			"doubleSided":true,
			"extensions":{
				"KHR_materials_specular":{
					"specularColorFactor":[
						1.600000023841858,
						1.600000023841858,
						1.600000023841858
					]
				}
			},
			"name":"None_r2d2fts.png",
			"pbrMetallicRoughness":{
				"baseColorTexture":{
					"index":2
				},
				"metallicFactor":0
			}
		},
		{
			"doubleSided":true,
			"extensions":{
				"KHR_materials_specular":{
					"specularColorFactor":[
						1.600000023841858,
						1.600000023841858,
						1.600000023841858
					]
				}
			},
			"name":"None_r2d2ftf.png",
			"pbrMetallicRoughness":{
				"baseColorTexture":{
					"index":3
				},
				"metallicFactor":0
			}
		},
		{
			"doubleSided":true,
			"extensions":{
				"KHR_materials_specular":{
					"specularColorFactor":[
						1.600000023841858,
						1.600000023841858,
						1.600000023841858
					]
				}
			},
			"name":"None_r2d2head.png",
			"pbrMetallicRoughness":{
				"baseColorTexture":{
					"index":4
				},
				"metallicFactor":0
			}
		},
		{
			"doubleSided":true,
			"extensions":{
				"KHR_materials_specular":{
					"specularColorFactor":[
						1.600000023841858,
						1.600000023841858,
						1.600000023841858
					]
				}
			},
			"name":"None",
			"pbrMetallicRoughness":{
				"baseColorTexture":{
					"index":5
				},
				"metallicFactor":0
			}
		},
		{
			"doubleSided":true,
			"extensions":{
				"KHR_materials_specular":{
					"specularColorFactor":[
						1.600000023841858,
						1.600000023841858,
						1.600000023841858
					]
				}
			},
			"name":"None_r2d2lgsd.png",
			"pbrMetallicRoughness":{
				"baseColorTexture":{
					"index":6
				},
				"metallicFactor":0
			}
		}
	],
	"meshes":[
		{
			"name":"arm",
			"primitives":[
				{
					"attributes":{
						"POSITION":0,
						"NORMAL":1,
						"TEXCOORD_0":2
					},
					"indices":3,
					"material":0
				}
			]
		},
		{
			"name":"body",
			"primitives":[
				{
					"attributes":{
						"POSITION":4,
						"NORMAL":5,
						"TEXCOORD_0":6
					},
					"indices":7,
					"material":1
				}
			]
		},
		{
			"name":"foot_C",
			"primitives":[
				{
					"attributes":{
						"POSITION":8,
						"NORMAL":9,
						"TEXCOORD_0":10
					},
					"indices":11,
					"material":2
				},
				{
					"attributes":{
						"POSITION":12,
						"NORMAL":13,
						"TEXCOORD_0":14
					},
					"indices":15,
					"material":3
				}
			]
		},
		{
			"name":"foot_L",
			"primitives":[
				{
					"attributes":{
						"POSITION":16,
						"NORMAL":17,
						"TEXCOORD_0":18
					},
					"indices":19,
					"material":2
				},
				{
					"attributes":{
						"POSITION":20,
						"NORMAL":21,
						"TEXCOORD_0":22
					},
					"indices":23,
					"material":3
				}
			]
		},
		{
			"name":"foot_R",
			"primitives":[
				{
					"attributes":{
						"POSITION":24,
						"NORMAL":25,
						"TEXCOORD_0":26
					},
					"indices":27,
					"material":2
				},
				{
					"attributes":{
						"POSITION":28,
						"NORMAL":29,
						"TEXCOORD_0":30
					},
					"indices":31,
					"material":3
				}
			]
		},
		{
			"name":"head",
			"primitives":[
				{
					"attributes":{
						"POSITION":32,
						"NORMAL":33,
						"TEXCOORD_0":34
					},
					"indices":35,
					"material":4
				}
			]
		},
		{
			"name":"leg_C",
			"primitives":[
				{
					"attributes":{
						"POSITION":36,
						"NORMAL":37,
						"TEXCOORD_0":38
					},
					"indices":39,
					"material":5
				},
				{
					"attributes":{
						"POSITION":40,
						"NORMAL":41,
						"TEXCOORD_0":42
					},
					"indices":43,
					"material":6
				}
			]
		},
		{
			"name":"leg_L",
			"primitives":[
				{
					"attributes":{
						"POSITION":44,
						"NORMAL":45,
						"TEXCOORD_0":46
					},
					"indices":47,
					"material":5
				},
				{
					"attributes":{
						"POSITION":48,
						"NORMAL":49,
						"TEXCOORD_0":50
					},
					"indices":51,
					"material":6
				}
			]
		},
		{
			"name":"leg_R",
			"primitives":[
				{
					"attributes":{
						"POSITION":52,
						"NORMAL":53,
						"TEXCOORD_0":54
					},
					"indices":55,
					"material":5
				},
				{
					"attributes":{
						"POSITION":56,
						"NORMAL":57,
						"TEXCOORD_0":58
					},
					"indices":59,
					"material":6
				}
			]
		}
	],
	"textures":[
		{
			"sampler":0,
			"source":0
		},
		{
			"sampler":0,
			"source":1
		},
		{
			"sampler":0,
			"source":2
		},
		{
			"sampler":0,
			"source":3
		},
		{
			"sampler":0,
			"source":4
		},
		{
			"sampler":0,
			"source":5
		},
		{
			"sampler":0,
			"source":6
		}
	],
	"images":[
		{
			"mimeType":"image/png",
			"name":"r2d2arm",
			"uri":"r2d2arm.png"
		},
		{
			"mimeType":"image/png",
			"name":"r2d2bod",
			"uri":"r2d2bod.png"
		},
		{
			"mimeType":"image/png",
			"name":"r2d2fts",
			"uri":"r2d2fts.png"
		},
		{
			"mimeType":"image/png",
			"name":"r2d2ftf",
			"uri":"r2d2ftf.png"
		},
		{
			"mimeType":"image/png",
			"name":"r2d2head",
			"uri":"r2d2head.png"
		},
		{
			"mimeType":"image/png",
			"name":"r2d2lgf",
			"uri":"r2d2lgf.png"
		},
		{
			"mimeType":"image/png",
			"name":"r2d2lgsd",
			"uri":"r2d2lgsd.png"
		}
	],
	"accessors":[
		{
			"bufferView":0,
			"componentType":5126,
			"count":18,
			"max":[
				-0.5840409994125366,
				-0.8922070264816284,
				-1.9233499765396118
			],
			"min":[
				-0.7958459854125977,
				-1.1088279485702515,
				-3.74501895904541
			],
			"type":"VEC3"
		},
		{
			"bufferView":1,
			"componentType":5126,
			"count":18,
			"type":"VEC3"
		},
		{
			"bufferView":2,
			"componentType":5126,
			"count":18,
			"type":"VEC2"
		},
		{
			"bufferView":3,
			"componentType":5123,
			"count":36,
			"type":"SCALAR"
		},
		{
			"bufferView":4,
			"componentType":5126,
			"count":44,
			"max":[
				1.1253440380096436,
				1.1501950025558472,
				-0.8383569717407227
			],
			"min":[
				-1.3176560401916504,
				-1.3978079557418823,
				-4.239356994628906
			],
			"type":"VEC3"
		},
		{
			"bufferView":5,
			"componentType":5126,
			"count":44,
			"type":"VEC3"
		},
		{
			"bufferView":6,
			"componentType":5126,
			"count":44,
			"type":"VEC2"
		},
		{
			"bufferView":7,
			"componentType":5123,
			"count":120,
			"type":"SCALAR"
		},
		{
			"bufferView":8,
			"componentType":5126,
			"count":5,
			"max":[
				0.23373599350452423,
				0.6469669938087463,
				-0.9513670206069946
			],
			"min":[
				-0.4761829972267151,
				-0.6763030290603638,
				-2.7183070182800293
			],
			"type":"VEC3"
		},
		{
			"bufferView":9,
			"componentType":5126,
			"count":5,
			"type":"VEC3"
		},
		{
			"bufferView":10,
			"componentType":5126,
			"count":5,
			"type":"VEC2"
		},
		{
			"bufferView":11,
			"componentType":5123,
			"count":6,
			"type":"SCALAR"
		},
		{
			"bufferView":12,
			"componentType":5126,
			"count":5,
			"max":[
				0.23373599350452423,
				0.6469669938087463,
				-0.9513670206069946
			],
			"min":[
				-0.4761829972267151,
				-0.6763030290603638,
				-2.7183070182800293
			],
			"type":"VEC3"
		},
		{
			"bufferView":13,
			"componentType":5126,
			"count":5,
			"type":"VEC3"
		},
		{
			"bufferView":14,
			"componentType":5126,
			"count":5,
			"type":"VEC2"
		},
		{
			"bufferView":15,
			"componentType":5123,
			"count":6,
			"type":"SCALAR"
		},
		{
			"bufferView":16,
			"componentType":5126,
			"count":5,
			"max":[
				-1.1396570205688477,
				0.6854389905929565,
				-0.0211350005120039
			],
			"min":[
				-2.0334479808807373,
				-0.9775369763374329,
				-1.8044849634170532
			],
			"type":"VEC3"
		},
		{
			"bufferView":17,
			"componentType":5126,
			"count":5,
			"type":"VEC3"
		},
		{
			"bufferView":18,
			"componentType":5126,
			"count":5,
			"type":"VEC2"
		},
		{
			"bufferView":19,
			"componentType":5123,
			"count":6,
			"type":"SCALAR"
		},
		{
			"bufferView":20,
			"componentType":5126,
			"count":5,
			"max":[
				-1.1396570205688477,
				0.6854389905929565,
				-0.0211350005120039
			],
			"min":[
				-2.0334479808807373,
				-0.9775369763374329,
				-1.8044849634170532
			],
			"type":"VEC3"
		},
		{
			"bufferView":21,
			"componentType":5126,
			"count":5,
			"type":"VEC3"
		},
		{
			"bufferView":22,
			"componentType":5126,
			"count":5,
			"type":"VEC2"
		},
		{
			"bufferView":23,
			"componentType":5123,
			"count":6,
			"type":"SCALAR"
		},
		{
			"bufferView":24,
			"componentType":5126,
			"count":5,
			"max":[
				1.8820860385894775,
				0.6719930171966553,
				-0.03524500131607056
			],
			"min":[
				0.9882959723472595,
				-0.9909819960594177,
				-1.8183000087738037
			],
			"type":"VEC3"
		},
		{
			"bufferView":25,
			"componentType":5126,
			"count":5,
			"type":"VEC3"
		},
		{
			"bufferView":26,
			"componentType":5126,
			"count":5,
			"type":"VEC2"
		},
		{
			"bufferView":27,
			"componentType":5123,
			"count":6,
			"type":"SCALAR"
		},
		{
			"bufferView":28,
			"componentType":5126,
			"count":5,
			"max":[
				1.8820860385894775,
				0.6719930171966553,
				-0.03524500131607056
			],
			"min":[
				0.9882959723472595,
				-0.9909819960594177,
				-1.8183000087738037
			],
			"type":"VEC3"
		},
		{
			"bufferView":29,
			"componentType":5126,
			"count":5,
			"type":"VEC3"
		},
		{
			"bufferView":30,
			"componentType":5126,
			"count":5,
			"type":"VEC2"
		},
		{
			"bufferView":31,
			"componentType":5123,
			"count":6,
			"type":"SCALAR"
		},
		{
			"bufferView":32,
			"componentType":5126,
			"count":62,
			"max":[
				1.17923903465271,
				1.1791249513626099,
				-4.241098880767822
			],
			"min":[
				-1.3610010147094727,
				-1.444614052772522,
				-5.666652202606201
			],
			"type":"VEC3"
		},
		{
			"bufferView":33,
			"componentType":5126,
			"count":62,
			"type":"VEC3"
		},
		{
			"bufferView":34,
			"componentType":5126,
			"count":62,
			"type":"VEC2"
		},
		{
			"bufferView":35,
			"componentType":5123,
			"count":159,
			"type":"SCALAR"
		},
		{
			"bufferView":36,
			"componentType":5126,
			"count":12,
			"max":[
				0.118709996342659,
				0.27187299728393555,
				-1.5596590042114258
			],
			"min":[
				-0.33736300468444824,
				-0.34095698595046997,
				-3.2387890815734863
			],
			"type":"VEC3"
		},
		{
			"bufferView":37,
			"componentType":5126,
			"count":12,
			"type":"VEC3"
		},
		{
			"bufferView":38,
			"componentType":5126,
			"count":12,
			"type":"VEC2"
		},
		{
			"bufferView":39,
			"componentType":5123,
			"count":12,
			"type":"SCALAR"
		},
		{
			"bufferView":40,
			"componentType":5126,
			"count":8,
			"max":[
				0.118709996342659,
				0.27187299728393555,
				-1.5596590042114258
			],
			"min":[
				-0.33736300468444824,
				-0.34095698595046997,
				-3.2387890815734863
			],
			"type":"VEC3"
		},
		{
			"bufferView":41,
			"componentType":5126,
			"count":8,
			"type":"VEC3"
		},
		{
			"bufferView":42,
			"componentType":5126,
			"count":8,
			"type":"VEC2"
		},
		{
			"bufferView":43,
			"componentType":5123,
			"count":12,
			"type":"SCALAR"
		},
		{
			"bufferView":44,
			"componentType":5126,
			"count":24,
			"max":[
				-1.3276879787445068,
				0.36129099130630493,
				-0.8235800266265869
			],
			"min":[
				-1.8341200351715088,
				-0.7545049786567688,
				-4.232830047607422
			],
			"type":"VEC3"
		},
		{
			"bufferView":45,
			"componentType":5126,
			"count":24,
			"type":"VEC3"
		},
		{
			"bufferView":46,
			"componentType":5126,
			"count":24,
			"type":"VEC2"
		},
		{
			"bufferView":47,
			"componentType":5123,
			"count":54,
			"type":"SCALAR"
		},
		{
			"bufferView":48,
			"componentType":5126,
			"count":30,
			"max":[
				-1.3276879787445068,
				0.36129099130630493,
				-0.8235800266265869
			],
			"min":[
				-1.8341200351715088,
				-0.7545049786567688,
				-4.232830047607422
			],
			"type":"VEC3"
		},
		{
			"bufferView":49,
			"componentType":5126,
			"count":30,
			"type":"VEC3"
		},
		{
			"bufferView":50,
			"componentType":5126,
			"count":30,
			"type":"VEC2"
		},
		{
			"bufferView":51,
			"componentType":5123,
			"count":48,
			"type":"SCALAR"
		},
		{
			"bufferView":52,
			"componentType":5126,
			"count":24,
			"max":[
				1.671125054359436,
				0.3545660078525543,
				-0.8232759833335876
			],
			"min":[
				1.16115403175354,
				-0.7727159857749939,
				-4.261508941650391
			],
			"type":"VEC3"
		},
		{
			"bufferView":53,
			"componentType":5126,
			"count":24,
			"type":"VEC3"
		},
		{
			"bufferView":54,
			"componentType":5126,
			"count":24,
			"type":"VEC2"
		},
		{
			"bufferView":55,
			"componentType":5123,
			"count":54,
			"type":"SCALAR"
		},
		{
			"bufferView":56,
			"componentType":5126,
			"count":34,
			"max":[
				1.671125054359436,
				0.3545660078525543,
				-0.8232759833335876
			],
			"min":[
				1.16115403175354,
				-0.7727159857749939,
				-4.261508941650391
			],
			"type":"VEC3"
		},
		{
			"bufferView":57,
			"componentType":5126,
			"count":34,
			"type":"VEC3"
		},
		{
			"bufferView":58,
			"componentType":5126,
			"count":34,
			"type":"VEC2"
		},
		{
			"bufferView":59,
			"componentType":5123,
			"count":48,
			"type":"SCALAR"
		}
	],
	"bufferViews":[
		{
			"buffer":0,
			"byteLength":216,
			"byteOffset":0,
			"target":34962
		},
		{
			"buffer":0,
			"byteLength":216,
			"byteOffset":216,
			"target":34962
		},
		{
			"buffer":0,
			"byteLength":144,
			"byteOffset":432,
			"target":34962
		},
		{
			"buffer":0,
			"byteLength":72,
			"byteOffset":576,
			"target":34963
		},
		{
			"buffer":0,
			"byteLength":528,
			"byteOffset":648,
			"target":34962
		},
		{
			"buffer":0,
			"byteLength":528,
			"byteOffset":1176,
			"target":34962
		},
		{
			"buffer":0,
			"byteLength":352,
			"byteOffset":1704,
			"target":34962
		},
		{
			"buffer":0,
			"byteLength":240,
			"byteOffset":2056,
			"target":34963
		},
		{
			"buffer":0,
			"byteLength":60,
			"byteOffset":2296,
			"target":34962
		},
		{
			"buffer":0,
			"byteLength":60,
			"byteOffset":2356,
			"target":34962
		},
		{
			"buffer":0,
			"byteLength":40,
			"byteOffset":2416,
			"target":34962
		},
		{
			"buffer":0,
			"byteLength":12,
			"byteOffset":2456,
			"target":34963
		},
		{
			"buffer":0,
			"byteLength":60,
			"byteOffset":2468,
			"target":34962
		},
		{
			"buffer":0,
			"byteLength":60,
			"byteOffset":2528,
			"target":34962
		},
		{
			"buffer":0,
			"byteLength":40,
			"byteOffset":2588,
			"target":34962
		},
		{
			"buffer":0,
			"byteLength":12,
			"byteOffset":2628,
			"target":34963
		},
		{
			"buffer":0,
			"byteLength":60,
			"byteOffset":2640,
			"target":34962
		},
		{
			"buffer":0,
			"byteLength":60,
			"byteOffset":2700,
			"target":34962
		},
		{
			"buffer":0,
			"byteLength":40,
			"byteOffset":2760,
			"target":34962
		},
		{
			"buffer":0,
			"byteLength":12,
			"byteOffset":2800,
			"target":34963
		},
		{
			"buffer":0,
			"byteLength":60,
			"byteOffset":2812,
			"target":34962
		},
		{
			"buffer":0,
			"byteLength":60,
			"byteOffset":2872,
			"target":34962
		},
		{
			"buffer":0,
			"byteLength":40,
			"byteOffset":2932,
			"target":34962
		},
		{
			"buffer":0,
			"byteLength":12,
			"byteOffset":2972,
			"target":34963
		},
		{
			"buffer":0,
			"byteLength":60,
			"byteOffset":2984,
			"target":34962
		},
		{
			"buffer":0,
			"byteLength":60,
			"byteOffset":3044,
			"target":34962
		},
		{
			"buffer":0,
			"byteLength":40,
			"byteOffset":3104,
			"target":34962
		},
		{
			"buffer":0,
			"byteLength":12,
			"byteOffset":3144,
			"target":34963
		},
		{
			"buffer":0,
			"byteLength":60,
			"byteOffset":3156,
			"target":34962
		},
		{
			"buffer":0,
			"byteLength":60,
			"byteOffset":3216,
			"target":34962
		},
		{
			"buffer":0,
			"byteLength":40,
			"byteOffset":3276,
			"target":34962
		},
		{
			"buffer":0,
			"byteLength":12,
			"byteOffset":3316,
			"target":34963
		},
		{
			"buffer":0,
			"byteLength":744,
			"byteOffset":3328,
			"target":34962
		},
		{
			"buffer":0,
			"byteLength":744,
			"byteOffset":4072,
			"target":34962
		},
		{
			"buffer":0,
			"byteLength":496,
			"byteOffset":4816,
			"target":34962
		},
		{
			"buffer":0,
			"byteLength":318,
			"byteOffset":5312,
			"target":34963
		},
		{
			"buffer":0,
			"byteLength":144,
			"byteOffset":5632,
			"target":34962
		},
		{
			"buffer":0,
			"byteLength":144,
			"byteOffset":5776,
			"target":34962
		},
		{
			"buffer":0,
			"byteLength":96,
			"byteOffset":5920,
			"target":34962
		},
		{
			"buffer":0,
			"byteLength":24,
			"byteOffset":6016,
			"target":34963
		},
		{
			"buffer":0,
			"byteLength":96,
			"byteOffset":6040,
			"target":34962
		},
		{
			"buffer":0,
			"byteLength":96,
			"byteOffset":6136,
			"target":34962
		},
		{
			"buffer":0,
			"byteLength":64,
			"byteOffset":6232,
			"target":34962
		},
		{
			"buffer":0,
			"byteLength":24,
			"byteOffset":6296,
			"target":34963
		},
		{
			"buffer":0,
			"byteLength":288,
			"byteOffset":6320,
			"target":34962
		},
		{
			"buffer":0,
			"byteLength":288,
			"byteOffset":6608,
			"target":34962
		},
		{
			"buffer":0,
			"byteLength":192,
			"byteOffset":6896,
			"target":34962
		},
		{
			"buffer":0,
			"byteLength":108,
			"byteOffset":7088,
			"target":34963
		},
		{
			"buffer":0,
			"byteLength":360,
			"byteOffset":7196,
			"target":34962
		},
		{
			"buffer":0,
			"byteLength":360,
			"byteOffset":7556,
			"target":34962
		},
		{
			"buffer":0,
			"byteLength":240,
			"byteOffset":7916,
			"target":34962
		},
		{
			"buffer":0,
			"byteLength":96,
			"byteOffset":8156,
			"target":34963
		},
		{
			"buffer":0,
			"byteLength":288,
			"byteOffset":8252,
			"target":34962
		},
		{
			"buffer":0,
			"byteLength":288,
			"byteOffset":8540,
			"target":34962
		},
		{
			"buffer":0,
			"byteLength":192,
			"byteOffset":8828,
			"target":34962
		},
		{
			"buffer":0,
			"byteLength":108,
			"byteOffset":9020,
			"target":34963
		},
		{
			"buffer":0,
			"byteLength":408,
			"byteOffset":9128,
			"target":34962
		},
		{
			"buffer":0,
			"byteLength":408,
			"byteOffset":9536,
			"target":34962
		},
		{
			"buffer":0,
			"byteLength":272,
			"byteOffset":9944,
			"target":34962
		},
		{
			"buffer":0,
			"byteLength":96,
			"byteOffset":10216,
			"target":34963
		}
	],
	"samplers":[
		{
			"magFilter":9729,
			"minFilter":9987
		}
	],
	"buffers":[
		{
			"byteLength":10312,
			"uri":"r2d2.bin"
		}
	]
}
