{
	"asset":{
		"generator":"Khronos glTF Blender I/O v4.2.60",
		"version":"2.0"
	},
	"extensionsUsed":[
		"KHR_materials_specular"
	],
	"scene":0,
	"scenes":[
		{
			"name":"Scene",
			"nodes":[
				0
			]
		}
	],
	"nodes":[
		{
			"mesh":0,
			"name":"a05cdbaf_CMDL",
			"rotation":[
				0.7071068286895752,
				0,
				0,
				0.7071068286895752
			]
		}
	],
	"materials":[
		{
			"doubleSided":true,
			"extensions":{
				"KHR_materials_specular":{
					"specularFactor":0
				}
			},
			"name":"Material__48",
			"pbrMetallicRoughness":{
				"baseColorTexture":{
					"index":0
				},
				"metallicFactor":0,
				"roughnessFactor":0.9009852409362793
			}
		},
		{
			"doubleSided":true,
			"extensions":{
				"KHR_materials_specular":{
					"specularFactor":0
				}
			},
			"name":"Material__45",
			"pbrMetallicRoughness":{
				"baseColorTexture":{
					"index":1
				},
				"metallicFactor":0,
				"roughnessFactor":0.9009852409362793
			}
		},
		{
			"doubleSided":true,
			"extensions":{
				"KHR_materials_specular":{
					"specularFactor":0
				}
			},
			"name":"Material__46",
			"pbrMetallicRoughness":{
				"baseColorTexture":{
					"index":2
				},
				"metallicFactor":0,
				"roughnessFactor":0.9009852409362793
			}
		},
		{
			"doubleSided":true,
			"extensions":{
				"KHR_materials_specular":{
					"specularFactor":0
				}
			},
			"name":"Material__47",
			"pbrMetallicRoughness":{
				"baseColorTexture":{
					"index":3
				},
				"metallicFactor":0,
				"roughnessFactor":0.9009852409362793
			}
		}
	],
	"meshes":[
		{
			"name":"a05cdbaf_CMDL",
			"primitives":[
				{
					"attributes":{
						"POSITION":0,
						"NORMAL":1,
						"TEXCOORD_0":2
					},
					"indices":3,
					"material":0
				},
				{
					"attributes":{
						"POSITION":4,
						"NORMAL":5,
						"TEXCOORD_0":6
					},
					"indices":7,
					"material":1
				},
				{
					"attributes":{
						"POSITION":8,
						"NORMAL":9,
						"TEXCOORD_0":10
					},
					"indices":11,
					"material":2
				},
				{
					"attributes":{
						"POSITION":12,
						"NORMAL":13,
						"TEXCOORD_0":14
					},
					"indices":15,
					"material":3
				}
			]
		}
	],
	"textures":[
		{
			"sampler":0,
			"source":0
		},
		{
			"sampler":0,
			"source":1
		},
		{
			"sampler":0,
			"source":1
		},
		{
			"sampler":0,
			"source":2
		}
	],
	"images":[
		{
			"mimeType":"image/png",
			"name":"91072708",
			"uri":"91072708.png"
		},
		{
			"mimeType":"image/png",
			"name":"7e37bc82",
			"uri":"7e37bc82.png"
		},
		{
			"mimeType":"image/png",
			"name":"544e66a4",
			"uri":"544e66a4.png"
		}
	],
	"accessors":[
		{
			"bufferView":0,
			"componentType":5126,
			"count":277,
			"max":[
				0.6870999932289124,
				0.73089998960495,
				0.3799000084400177
			],
			"min":[
				-0.6870999932289124,
				-0.6779000163078308,
				-0.6004999876022339
			],
			"type":"VEC3"
		},
		{
			"bufferView":1,
			"componentType":5126,
			"count":277,
			"type":"VEC3"
		},
		{
			"bufferView":2,
			"componentType":5126,
			"count":277,
			"type":"VEC2"
		},
		{
			"bufferView":3,
			"componentType":5123,
			"count":291,
			"type":"SCALAR"
		},
		{
			"bufferView":4,
			"componentType":5126,
			"count":1156,
			"max":[
				0.656000018119812,
				0.5878999829292297,
				0.35370001196861267
			],
			"min":[
				-0.656000018119812,
				-0.42089998722076416,
				-0.5325000286102295
			],
			"type":"VEC3"
		},
		{
			"bufferView":5,
			"componentType":5126,
			"count":1156,
			"type":"VEC3"
		},
		{
			"bufferView":6,
			"componentType":5126,
			"count":1156,
			"type":"VEC2"
		},
		{
			"bufferView":7,
			"componentType":5123,
			"count":1230,
			"type":"SCALAR"
		},
		{
			"bufferView":8,
			"componentType":5126,
			"count":360,
			"max":[
				0.5774000287055969,
				0.31470000743865967,
				0.8051999807357788
			],
			"min":[
				-0.5774000287055969,
				-0.32829999923706055,
				0.062199998646974564
			],
			"type":"VEC3"
		},
		{
			"bufferView":9,
			"componentType":5126,
			"count":360,
			"type":"VEC3"
		},
		{
			"bufferView":10,
			"componentType":5126,
			"count":360,
			"type":"VEC2"
		},
		{
			"bufferView":11,
			"componentType":5123,
			"count":360,
			"type":"SCALAR"
		},
		{
			"bufferView":12,
			"componentType":5126,
			"count":341,
			"max":[
				0.6870999932289124,
				0.73089998960495,
				0.3799000084400177
			],
			"min":[
				-0.6870999932289124,
				-0.6779000163078308,
				-0.6004999876022339
			],
			"type":"VEC3"
		},
		{
			"bufferView":13,
			"componentType":5126,
			"count":341,
			"type":"VEC3"
		},
		{
			"bufferView":14,
			"componentType":5126,
			"count":341,
			"type":"VEC2"
		},
		{
			"bufferView":15,
			"componentType":5123,
			"count":357,
			"type":"SCALAR"
		}
	],
	"bufferViews":[
		{
			"buffer":0,
			"byteLength":3324,
			"byteOffset":0,
			"target":34962
		},
		{
			"buffer":0,
			"byteLength":3324,
			"byteOffset":3324,
			"target":34962
		},
		{
			"buffer":0,
			"byteLength":2216,
			"byteOffset":6648,
			"target":34962
		},
		{
			"buffer":0,
			"byteLength":582,
			"byteOffset":8864,
			"target":34963
		},
		{
			"buffer":0,
			"byteLength":13872,
			"byteOffset":9448,
			"target":34962
		},
		{
			"buffer":0,
			"byteLength":13872,
			"byteOffset":23320,
			"target":34962
		},
		{
			"buffer":0,
			"byteLength":9248,
			"byteOffset":37192,
			"target":34962
		},
		{
			"buffer":0,
			"byteLength":2460,
			"byteOffset":46440,
			"target":34963
		},
		{
			"buffer":0,
			"byteLength":4320,
			"byteOffset":48900,
			"target":34962
		},
		{
			"buffer":0,
			"byteLength":4320,
			"byteOffset":53220,
			"target":34962
		},
		{
			"buffer":0,
			"byteLength":2880,
			"byteOffset":57540,
			"target":34962
		},
		{
			"buffer":0,
			"byteLength":720,
			"byteOffset":60420,
			"target":34963
		},
		{
			"buffer":0,
			"byteLength":4092,
			"byteOffset":61140,
			"target":34962
		},
		{
			"buffer":0,
			"byteLength":4092,
			"byteOffset":65232,
			"target":34962
		},
		{
			"buffer":0,
			"byteLength":2728,
			"byteOffset":69324,
			"target":34962
		},
		{
			"buffer":0,
			"byteLength":714,
			"byteOffset":72052,
			"target":34963
		}
	],
	"samplers":[
		{
			"magFilter":9729,
			"minFilter":9987
		}
	],
	"buffers":[
		{
			"byteLength":72768,
			"uri":"metroid.bin"
		}
	]
}
