# Blender v2.78 (sub 0) OBJ File: 'Cam.blend'
# www.blender.org
mtllib FakeGlass.mtl
o n0b0_n0b0.004
v -0.564594 2.136729 -0.007751
v 0.000000 2.353140 -0.007751
v -0.325179 2.377394 -0.007751
v 0.000000 2.130728 -0.007751
v -0.691740 1.897190 -0.007751
v 0.000000 1.891189 -0.007751
v 0.000000 2.501790 -0.007751
v 0.325179 2.377394 -0.007751
v 0.564594 2.136729 -0.007751
v -0.692740 0.000000 -0.006376
v -0.000875 0.000000 -0.006376
v 0.690865 0.000000 -0.006376
v 0.691740 1.897190 -0.007751
vt 0.0930 0.8538
vt 0.5015 0.9429
vt 0.2663 0.9502
vt 0.5015 0.8538
vt 0.0010 0.7578
vt 0.5015 0.7578
vt 0.5015 1.0000
vt 0.7368 0.9502
vt 0.9100 0.8538
vt 0.0003 0.0000
vt 0.5015 0.0000
vt 1.0027 0.0000
vt 1.0021 0.7578
vn 0.0000 -0.0000 1.0000
vn -0.0000 0.0001 1.0000
vn -0.0000 0.0004 1.0000
vn 0.0000 0.0007 1.0000
usemtl m0.002
s 1
f 1/1/1 2/2/1 3/3/1
f 2/2/1 1/1/1 4/4/1
f 5/5/2 4/4/1 1/1/1
f 4/4/1 5/5/2 6/6/3
f 2/2/1 7/7/1 3/3/1
f 7/7/1 2/2/1 8/8/1
f 2/2/1 9/9/1 8/8/1
f 10/10/4 6/6/3 5/5/2
f 6/6/3 10/10/4 11/11/4
f 6/6/3 12/12/4 13/13/2
f 12/12/4 6/6/3 11/11/4
f 13/13/2 4/4/1 6/6/3
f 4/4/1 13/13/2 9/9/1
f 9/9/1 2/2/1 4/4/1
o n1b1
v -0.359310 2.440530 0.178030
v 0.359310 2.440530 0.178030
v 0.000000 2.589180 0.178030
v 0.645482 2.200240 0.178030
v -0.645482 2.200240 0.178030
v -0.823512 1.922444 0.178030
v 0.823512 1.922444 0.178030
v 0.823512 -0.000000 0.178030
v -0.823512 -0.000000 0.178030
vt 0.2798 0.9403
vt 0.7155 0.9406
vt 0.4977 0.9980
vt 0.8890 0.8474
vt 0.1063 0.8472
vt -0.0015 0.7394
vt 0.9969 0.7397
vt 0.9969 -0.0057
vt -0.0015 -0.0061
vn 0.0000 -0.0000 1.0000
usemtl m1.002
s 1
f 14/14/5 15/15/5 16/16/5
f 15/15/5 14/14/5 17/17/5
f 18/18/5 17/17/5 14/14/5
f 17/17/5 18/18/5 19/19/5
f 19/19/5 20/20/5 17/17/5
f 20/20/5 19/19/5 21/21/5
f 22/22/5 21/21/5 19/19/5
