{
	"asset":{
		"generator":"Khronos glTF Blender I/O v4.2.60",
		"version":"2.0"
	},
	"extensionsUsed":[
		"KHR_materials_specular"
	],
	"scene":0,
	"scenes":[
		{
			"name":"Scene",
			"nodes":[
				0
			]
		}
	],
	"nodes":[
		{
			"mesh":0,
			"name":"warp_1_0_node",
			"rotation":[
				0.7071068286895752,
				0,
				0,
				0.7071068286895752
			]
		}
	],
	"materials":[
		{
			"doubleSided":true,
			"extensions":{
				"KHR_materials_specular":{
					"specularFactor":0
				}
			},
			"name":"mat_st_sts_300_mdl_s1_mat",
			"pbrMetallicRoughness":{
				"baseColorTexture":{
					"index":0
				},
				"metallicFactor":0,
				"roughnessFactor":0.5
			}
		}
	],
	"meshes":[
		{
			"name":"warp_1_0",
			"primitives":[
				{
					"attributes":{
						"POSITION":0,
						"NORMAL":1,
						"TEXCOORD_0":2,
						"COLOR_0":3,
						"COLOR_1":4
					},
					"indices":5,
					"material":0
				}
			]
		}
	],
	"textures":[
		{
			"sampler":0,
			"source":0
		}
	],
	"images":[
		{
			"mimeType":"image/png",
			"name":"tex_st_sts_300_mdl_b0",
			"uri":"tex_st_sts_300_mdl_b0.png"
		}
	],
	"accessors":[
		{
			"bufferView":0,
			"componentType":5126,
			"count":256,
			"max":[
				94.24219512939453,
				94.24219512939453,
				15.593099594116211
			],
			"min":[
				-94.24219512939453,
				-94.24219512939453,
				-198.65101623535156
			],
			"type":"VEC3"
		},
		{
			"bufferView":1,
			"componentType":5126,
			"count":256,
			"type":"VEC3"
		},
		{
			"bufferView":2,
			"componentType":5126,
			"count":256,
			"type":"VEC2"
		},
		{
			"bufferView":3,
			"componentType":5121,
			"count":256,
			"normalized":true,
			"type":"VEC4"
		},
		{
			"bufferView":4,
			"componentType":5126,
			"count":256,
			"type":"VEC3"
		},
		{
			"bufferView":5,
			"componentType":5123,
			"count":1152,
			"type":"SCALAR"
		}
	],
	"bufferViews":[
		{
			"buffer":0,
			"byteLength":3072,
			"byteOffset":0,
			"target":34962
		},
		{
			"buffer":0,
			"byteLength":3072,
			"byteOffset":3072,
			"target":34962
		},
		{
			"buffer":0,
			"byteLength":2048,
			"byteOffset":6144,
			"target":34962
		},
		{
			"buffer":0,
			"byteLength":1024,
			"byteOffset":8192,
			"target":34962
		},
		{
			"buffer":0,
			"byteLength":3072,
			"byteOffset":9216,
			"target":34962
		},
		{
			"buffer":0,
			"byteLength":2304,
			"byteOffset":12288,
			"target":34963
		}
	],
	"samplers":[
		{
			"magFilter":9729,
			"minFilter":9987
		}
	],
	"buffers":[
		{
			"byteLength":14592,
			"uri":"cage.bin"
		}
	]
}
