{
	"asset":{
		"generator":"Khronos glTF Blender I/O v4.2.60",
		"version":"2.0"
	},
	"extensionsUsed":[
		"KHR_materials_specular",
		"KHR_materials_ior"
	],
	"scene":0,
	"scenes":[
		{
			"name":"Scene",
			"nodes":[
				0
			]
		}
	],
	"nodes":[
		{
			"mesh":0,
			"name":"bfg_LOD0_SEModelMesh_SEModelMesh",
			"rotation":[
				0.7071068286895752,
				0,
				0,
				0.7071068286895752
			],
			"scale":[
				0.010590162128210068,
				0.010590162128210068,
				0.010590162128210068
			]
		}
	],
	"materials":[
		{
			"doubleSided":true,
			"emissiveFactor":[
				1,
				1,
				1
			],
			"emissiveTexture":{
				"index":0
			},
			"extensions":{
				"KHR_materials_specular":{
					"specularTexture":{
						"index":1
					}
				},
				"KHR_materials_ior":{
					"ior":1.4500000476837158
				}
			},
			"name":"bfg",
			"normalTexture":{
				"index":2,
				"scale":0
			},
			"pbrMetallicRoughness":{
				"baseColorTexture":{
					"index":3
				},
				"metallicFactor":0,
				"metallicRoughnessTexture":{
					"index":4
				}
			}
		}
	],
	"meshes":[
		{
			"name":"bfg_LOD0_SEModelMesh_SEModelMesh",
			"primitives":[
				{
					"attributes":{
						"POSITION":0,
						"NORMAL":1,
						"TEXCOORD_0":2
					},
					"indices":3,
					"material":0
				}
			]
		}
	],
	"textures":[
		{
			"sampler":0,
			"source":0
		},
		{
			"sampler":0,
			"source":1
		},
		{
			"sampler":0,
			"source":2
		},
		{
			"sampler":0,
			"source":3
		},
		{
			"sampler":0,
			"source":4
		}
	],
	"images":[
		{
			"mimeType":"image/png",
			"name":"bfg_e",
			"uri":"bfg_e.png"
		},
		{
			"mimeType":"image/png",
			"name":"bfg_s",
			"uri":"bfg_s.png"
		},
		{
			"mimeType":"image/png",
			"name":"bfg_n",
			"uri":"bfg_n.png"
		},
		{
			"mimeType":"image/png",
			"name":"bfg",
			"uri":"bfg.png"
		},
		{
			"mimeType":"image/png",
			"name":"bfg_r",
			"uri":"bfg_r.png"
		}
	],
	"accessors":[
		{
			"bufferView":0,
			"componentType":5126,
			"count":23299,
			"max":[
				73.06359100341797,
				30.08100700378418,
				33.861717224121094
			],
			"min":[
				-39.92097091674805,
				-30.079153060913086,
				-18.46098518371582
			],
			"type":"VEC3"
		},
		{
			"bufferView":1,
			"componentType":5126,
			"count":23299,
			"type":"VEC3"
		},
		{
			"bufferView":2,
			"componentType":5126,
			"count":23299,
			"type":"VEC2"
		},
		{
			"bufferView":3,
			"componentType":5123,
			"count":95934,
			"type":"SCALAR"
		}
	],
	"bufferViews":[
		{
			"buffer":0,
			"byteLength":279588,
			"byteOffset":0,
			"target":34962
		},
		{
			"buffer":0,
			"byteLength":279588,
			"byteOffset":279588,
			"target":34962
		},
		{
			"buffer":0,
			"byteLength":186392,
			"byteOffset":559176,
			"target":34962
		},
		{
			"buffer":0,
			"byteLength":191868,
			"byteOffset":745568,
			"target":34963
		}
	],
	"samplers":[
		{
			"magFilter":9729,
			"minFilter":9987
		}
	],
	"buffers":[
		{
			"byteLength":937436,
			"uri":"BFG.bin"
		}
	]
}
