{
	"asset":{
		"generator":"Khronos glTF Blender I/O v4.2.60",
		"version":"2.0"
	},
	"extensionsUsed":[
		"KHR_materials_specular"
	],
	"scene":0,
	"scenes":[
		{
			"name":"Scene",
			"nodes":[
				0
			]
		}
	],
	"nodes":[
		{
			"mesh":0,
			"name":"Emperor Dalek Past",
			"rotation":[
				0.7071068286895752,
				0,
				0,
				0.7071068286895752
			],
			"scale":[
				0.0014978559920564294,
				0.0014978559920564294,
				0.0014978559920564294
			]
		}
	],
	"materials":[
		{
			"alphaMode":"BLEND",
			"doubleSided":true,
			"extensions":{
				"KHR_materials_specular":{
					"specularColorFactor":[
						2.0,
						2.0,
						2.0
					]
				}
			},
			"name":"8309ca6f_dds",
			"pbrMetallicRoughness":{
				"baseColorTexture":{
					"index":0
				},
				"metallicFactor":0,
				"roughnessFactor":0
			}
		},
		{
			"alphaMode":"BLEND",
			"doubleSided":true,
			"extensions":{
				"KHR_materials_specular":{
					"specularColorFactor":[
						2.0,
						2.0,
						2.0
					]
				}
			},
			"name":"03f7e5c4_dds",
			"pbrMetallicRoughness":{
				"baseColorTexture":{
					"index":1
				},
				"metallicFactor":0,
				"roughnessFactor":0
			}
		},
		{
			"doubleSided":true,
			"extensions":{
				"KHR_materials_specular":{
					"specularColorFactor":[
						2.0,
						2.0,
						2.0
					]
				}
			},
			"name":"b924ccfc_dds",
			"pbrMetallicRoughness":{
				"baseColorTexture":{
					"index":2
				},
				"metallicFactor":0,
				"roughnessFactor":0
			}
		},
		{
			"doubleSided":true,
			"extensions":{
				"KHR_materials_specular":{
					"specularColorFactor":[
						2.0,
						2.0,
						2.0
					]
				}
			},
			"name":"8e61fa09_dds",
			"pbrMetallicRoughness":{
				"baseColorTexture":{
					"index":3
				},
				"metallicFactor":0,
				"roughnessFactor":0
			}
		},
		{
			"doubleSided":true,
			"extensions":{
				"KHR_materials_specular":{
					"specularColorFactor":[
						2.0,
						2.0,
						2.0
					]
				}
			},
			"name":"12b5a543_dds",
			"pbrMetallicRoughness":{
				"baseColorTexture":{
					"index":4
				},
				"metallicFactor":0,
				"roughnessFactor":0
			}
		},
		{
			"doubleSided":true,
			"extensions":{
				"KHR_materials_specular":{
					"specularColorFactor":[
						2.0,
						2.0,
						2.0
					]
				}
			},
			"name":"3269c3cf_dds",
			"pbrMetallicRoughness":{
				"baseColorTexture":{
					"index":5
				},
				"metallicFactor":0,
				"roughnessFactor":0
			}
		},
		{
			"doubleSided":true,
			"extensions":{
				"KHR_materials_specular":{
					"specularColorFactor":[
						2.0,
						2.0,
						2.0
					]
				}
			},
			"name":"95d1482e_dds",
			"pbrMetallicRoughness":{
				"baseColorTexture":{
					"index":6
				},
				"metallicFactor":0,
				"roughnessFactor":0
			}
		},
		{
			"doubleSided":true,
			"extensions":{
				"KHR_materials_specular":{
					"specularColorFactor":[
						2.0,
						2.0,
						2.0
					]
				}
			},
			"name":"4c2680df_dds",
			"pbrMetallicRoughness":{
				"baseColorTexture":{
					"index":7
				},
				"metallicFactor":0,
				"roughnessFactor":0
			}
		},
		{
			"doubleSided":true,
			"extensions":{
				"KHR_materials_specular":{
					"specularColorFactor":[
						2.0,
						2.0,
						2.0
					]
				}
			},
			"name":"ba36bae6_dds",
			"pbrMetallicRoughness":{
				"baseColorTexture":{
					"index":8
				},
				"metallicFactor":0,
				"roughnessFactor":0
			}
		},
		{
			"doubleSided":true,
			"extensions":{
				"KHR_materials_specular":{
					"specularColorFactor":[
						2.0,
						2.0,
						2.0
					]
				}
			},
			"name":"30abae25_dds",
			"pbrMetallicRoughness":{
				"baseColorTexture":{
					"index":9
				},
				"metallicFactor":0,
				"roughnessFactor":0
			}
		},
		{
			"doubleSided":true,
			"extensions":{
				"KHR_materials_specular":{
					"specularColorFactor":[
						2.0,
						2.0,
						2.0
					]
				}
			},
			"name":"2b0b94f6_dds",
			"pbrMetallicRoughness":{
				"baseColorTexture":{
					"index":10
				},
				"metallicFactor":0,
				"roughnessFactor":0
			}
		}
	],
	"meshes":[
		{
			"name":"Emperor Dalek Past",
			"primitives":[
				{
					"attributes":{
						"POSITION":0,
						"NORMAL":1,
						"TEXCOORD_0":2
					},
					"indices":3,
					"material":0
				},
				{
					"attributes":{
						"POSITION":4,
						"NORMAL":5,
						"TEXCOORD_0":6
					},
					"indices":7,
					"material":1
				},
				{
					"attributes":{
						"POSITION":8,
						"NORMAL":9,
						"TEXCOORD_0":10
					},
					"indices":11,
					"material":2
				},
				{
					"attributes":{
						"POSITION":12,
						"NORMAL":13,
						"TEXCOORD_0":14
					},
					"indices":15,
					"material":3
				},
				{
					"attributes":{
						"POSITION":16,
						"NORMAL":17,
						"TEXCOORD_0":18
					},
					"indices":19,
					"material":4
				},
				{
					"attributes":{
						"POSITION":20,
						"NORMAL":21,
						"TEXCOORD_0":22
					},
					"indices":23,
					"material":5
				},
				{
					"attributes":{
						"POSITION":24,
						"NORMAL":25,
						"TEXCOORD_0":26
					},
					"indices":27,
					"material":6
				},
				{
					"attributes":{
						"POSITION":28,
						"NORMAL":29,
						"TEXCOORD_0":30
					},
					"indices":31,
					"material":7
				},
				{
					"attributes":{
						"POSITION":32,
						"NORMAL":33,
						"TEXCOORD_0":34
					},
					"indices":35,
					"material":8
				},
				{
					"attributes":{
						"POSITION":36,
						"NORMAL":37,
						"TEXCOORD_0":38
					},
					"indices":39,
					"material":9
				},
				{
					"attributes":{
						"POSITION":40,
						"NORMAL":41,
						"TEXCOORD_0":42
					},
					"indices":43,
					"material":10
				}
			]
		}
	],
	"textures":[
		{
			"sampler":0,
			"source":0
		},
		{
			"sampler":0,
			"source":1
		},
		{
			"sampler":0,
			"source":2
		},
		{
			"sampler":0,
			"source":3
		},
		{
			"sampler":0,
			"source":4
		},
		{
			"sampler":0,
			"source":5
		},
		{
			"sampler":0,
			"source":6
		},
		{
			"sampler":0,
			"source":7
		},
		{
			"sampler":0,
			"source":8
		},
		{
			"sampler":0,
			"source":9
		},
		{
			"sampler":0,
			"source":10
		}
	],
	"images":[
		{
			"mimeType":"image/png",
			"name":"8309ca6f",
			"uri":"8309ca6f.png"
		},
		{
			"mimeType":"image/png",
			"name":"03f7e5c4",
			"uri":"03f7e5c4.png"
		},
		{
			"mimeType":"image/png",
			"name":"b924ccfc",
			"uri":"b924ccfc.png"
		},
		{
			"mimeType":"image/png",
			"name":"8e61fa09",
			"uri":"8e61fa09.png"
		},
		{
			"mimeType":"image/png",
			"name":"12b5a543",
			"uri":"12b5a543.png"
		},
		{
			"mimeType":"image/png",
			"name":"3269c3cf",
			"uri":"3269c3cf.png"
		},
		{
			"mimeType":"image/png",
			"name":"95d1482e",
			"uri":"95d1482e.png"
		},
		{
			"mimeType":"image/png",
			"name":"4c2680df",
			"uri":"4c2680df.png"
		},
		{
			"mimeType":"image/png",
			"name":"ba36bae6",
			"uri":"ba36bae6.png"
		},
		{
			"mimeType":"image/png",
			"name":"30abae25",
			"uri":"30abae25.png"
		},
		{
			"mimeType":"image/png",
			"name":"2b0b94f6",
			"uri":"2b0b94f6.png"
		}
	],
	"accessors":[
		{
			"bufferView":0,
			"componentType":5126,
			"count":80,
			"max":[
				74.39350128173828,
				70.43000030517578,
				-461.97076416015625
			],
			"min":[
				-70.04899597167969,
				-73.85049438476562,
				-571.6442260742188
			],
			"type":"VEC3"
		},
		{
			"bufferView":1,
			"componentType":5126,
			"count":80,
			"type":"VEC3"
		},
		{
			"bufferView":2,
			"componentType":5126,
			"count":80,
			"type":"VEC2"
		},
		{
			"bufferView":3,
			"componentType":5123,
			"count":120,
			"type":"SCALAR"
		},
		{
			"bufferView":4,
			"componentType":5126,
			"count":965,
			"max":[
				86.16450500488281,
				96.85100555419922,
				-749.3701782226562
			],
			"min":[
				-51.279998779296875,
				-117.14450073242188,
				-801.771240234375
			],
			"type":"VEC3"
		},
		{
			"bufferView":5,
			"componentType":5126,
			"count":965,
			"type":"VEC3"
		},
		{
			"bufferView":6,
			"componentType":5126,
			"count":965,
			"type":"VEC2"
		},
		{
			"bufferView":7,
			"componentType":5123,
			"count":1092,
			"type":"SCALAR"
		},
		{
			"bufferView":8,
			"componentType":5126,
			"count":11035,
			"max":[
				247.76300048828125,
				238.6020050048828,
				-230.22023010253906
			],
			"min":[
				-244.59048461914062,
				-148.406005859375,
				-840.7282104492188
			],
			"type":"VEC3"
		},
		{
			"bufferView":9,
			"componentType":5126,
			"count":11035,
			"type":"VEC3"
		},
		{
			"bufferView":10,
			"componentType":5126,
			"count":11035,
			"type":"VEC2"
		},
		{
			"bufferView":11,
			"componentType":5123,
			"count":13482,
			"type":"SCALAR"
		},
		{
			"bufferView":12,
			"componentType":5126,
			"count":27392,
			"max":[
				466.6725158691406,
				492.5130615234375,
				4.598250389099121
			],
			"min":[
				-466.3399963378906,
				-412.219970703125,
				-684.3222045898438
			],
			"type":"VEC3"
		},
		{
			"bufferView":13,
			"componentType":5126,
			"count":27392,
			"type":"VEC3"
		},
		{
			"bufferView":14,
			"componentType":5126,
			"count":27392,
			"type":"VEC2"
		},
		{
			"bufferView":15,
			"componentType":5123,
			"count":30747,
			"type":"SCALAR"
		},
		{
			"bufferView":16,
			"componentType":5126,
			"count":160,
			"max":[
				-23.278499603271484,
				109.18949890136719,
				-262.4457702636719
			],
			"min":[
				-50.3849983215332,
				87.19200134277344,
				-582.7136840820312
			],
			"type":"VEC3"
		},
		{
			"bufferView":17,
			"componentType":5126,
			"count":160,
			"type":"VEC3"
		},
		{
			"bufferView":18,
			"componentType":5126,
			"count":160,
			"type":"VEC2"
		},
		{
			"bufferView":19,
			"componentType":5123,
			"count":180,
			"type":"SCALAR"
		},
		{
			"bufferView":20,
			"componentType":5126,
			"count":211,
			"max":[
				164.7570037841797,
				414.12548828125,
				-83.75025177001953
			],
			"min":[
				-438.9075012207031,
				241.6420135498047,
				-646.2022705078125
			],
			"type":"VEC3"
		},
		{
			"bufferView":21,
			"componentType":5126,
			"count":211,
			"type":"VEC3"
		},
		{
			"bufferView":22,
			"componentType":5126,
			"count":211,
			"type":"VEC2"
		},
		{
			"bufferView":23,
			"componentType":5123,
			"count":231,
			"type":"SCALAR"
		},
		{
			"bufferView":24,
			"componentType":5126,
			"count":8089,
			"max":[
				541.4855346679688,
				548.406982421875,
				3.3772497177124023
			],
			"min":[
				-541.6534423828125,
				-535.4110107421875,
				-652.3882446289062
			],
			"type":"VEC3"
		},
		{
			"bufferView":25,
			"componentType":5126,
			"count":8089,
			"type":"VEC3"
		},
		{
			"bufferView":26,
			"componentType":5126,
			"count":8089,
			"type":"VEC2"
		},
		{
			"bufferView":27,
			"componentType":5123,
			"count":8889,
			"type":"SCALAR"
		},
		{
			"bufferView":28,
			"componentType":5126,
			"count":310,
			"max":[
				-3.4199981689453125,
				-8.502998352050781,
				-15.327250480651855
			],
			"min":[
				-54.15850067138672,
				-59.22899627685547,
				-40.37525177001953
			],
			"type":"VEC3"
		},
		{
			"bufferView":29,
			"componentType":5126,
			"count":310,
			"type":"VEC3"
		},
		{
			"bufferView":30,
			"componentType":5126,
			"count":310,
			"type":"VEC2"
		},
		{
			"bufferView":31,
			"componentType":5123,
			"count":372,
			"type":"SCALAR"
		},
		{
			"bufferView":32,
			"componentType":5126,
			"count":2257,
			"max":[
				-1.7859992980957031,
				-6.829998016357422,
				-3.648250102996826
			],
			"min":[
				-55.84099578857422,
				-60.86399841308594,
				-45.13475036621094
			],
			"type":"VEC3"
		},
		{
			"bufferView":33,
			"componentType":5126,
			"count":2257,
			"type":"VEC3"
		},
		{
			"bufferView":34,
			"componentType":5126,
			"count":2257,
			"type":"VEC2"
		},
		{
			"bufferView":35,
			"componentType":5123,
			"count":2556,
			"type":"SCALAR"
		},
		{
			"bufferView":36,
			"componentType":5126,
			"count":15,
			"max":[
				-6.261499404907227,
				384.68048095703125,
				-2.5692501068115234
			],
			"min":[
				-117.29899597167969,
				258.52996826171875,
				-4.827250003814697
			],
			"type":"VEC3"
		},
		{
			"bufferView":37,
			"componentType":5126,
			"count":15,
			"type":"VEC3"
		},
		{
			"bufferView":38,
			"componentType":5126,
			"count":15,
			"type":"VEC2"
		},
		{
			"bufferView":39,
			"componentType":5123,
			"count":15,
			"type":"SCALAR"
		},
		{
			"bufferView":40,
			"componentType":5126,
			"count":94,
			"max":[
				502.21051025390625,
				501.41552734375,
				2.8842501640319824
			],
			"min":[
				-502.21051025390625,
				-501.41552734375,
				-2.8842501640319824
			],
			"type":"VEC3"
		},
		{
			"bufferView":41,
			"componentType":5126,
			"count":94,
			"type":"VEC3"
		},
		{
			"bufferView":42,
			"componentType":5126,
			"count":94,
			"type":"VEC2"
		},
		{
			"bufferView":43,
			"componentType":5123,
			"count":96,
			"type":"SCALAR"
		}
	],
	"bufferViews":[
		{
			"buffer":0,
			"byteLength":960,
			"byteOffset":0,
			"target":34962
		},
		{
			"buffer":0,
			"byteLength":960,
			"byteOffset":960,
			"target":34962
		},
		{
			"buffer":0,
			"byteLength":640,
			"byteOffset":1920,
			"target":34962
		},
		{
			"buffer":0,
			"byteLength":240,
			"byteOffset":2560,
			"target":34963
		},
		{
			"buffer":0,
			"byteLength":11580,
			"byteOffset":2800,
			"target":34962
		},
		{
			"buffer":0,
			"byteLength":11580,
			"byteOffset":14380,
			"target":34962
		},
		{
			"buffer":0,
			"byteLength":7720,
			"byteOffset":25960,
			"target":34962
		},
		{
			"buffer":0,
			"byteLength":2184,
			"byteOffset":33680,
			"target":34963
		},
		{
			"buffer":0,
			"byteLength":132420,
			"byteOffset":35864,
			"target":34962
		},
		{
			"buffer":0,
			"byteLength":132420,
			"byteOffset":168284,
			"target":34962
		},
		{
			"buffer":0,
			"byteLength":88280,
			"byteOffset":300704,
			"target":34962
		},
		{
			"buffer":0,
			"byteLength":26964,
			"byteOffset":388984,
			"target":34963
		},
		{
			"buffer":0,
			"byteLength":328704,
			"byteOffset":415948,
			"target":34962
		},
		{
			"buffer":0,
			"byteLength":328704,
			"byteOffset":744652,
			"target":34962
		},
		{
			"buffer":0,
			"byteLength":219136,
			"byteOffset":1073356,
			"target":34962
		},
		{
			"buffer":0,
			"byteLength":61494,
			"byteOffset":1292492,
			"target":34963
		},
		{
			"buffer":0,
			"byteLength":1920,
			"byteOffset":1353988,
			"target":34962
		},
		{
			"buffer":0,
			"byteLength":1920,
			"byteOffset":1355908,
			"target":34962
		},
		{
			"buffer":0,
			"byteLength":1280,
			"byteOffset":1357828,
			"target":34962
		},
		{
			"buffer":0,
			"byteLength":360,
			"byteOffset":1359108,
			"target":34963
		},
		{
			"buffer":0,
			"byteLength":2532,
			"byteOffset":1359468,
			"target":34962
		},
		{
			"buffer":0,
			"byteLength":2532,
			"byteOffset":1362000,
			"target":34962
		},
		{
			"buffer":0,
			"byteLength":1688,
			"byteOffset":1364532,
			"target":34962
		},
		{
			"buffer":0,
			"byteLength":462,
			"byteOffset":1366220,
			"target":34963
		},
		{
			"buffer":0,
			"byteLength":97068,
			"byteOffset":1366684,
			"target":34962
		},
		{
			"buffer":0,
			"byteLength":97068,
			"byteOffset":1463752,
			"target":34962
		},
		{
			"buffer":0,
			"byteLength":64712,
			"byteOffset":1560820,
			"target":34962
		},
		{
			"buffer":0,
			"byteLength":17778,
			"byteOffset":1625532,
			"target":34963
		},
		{
			"buffer":0,
			"byteLength":3720,
			"byteOffset":1643312,
			"target":34962
		},
		{
			"buffer":0,
			"byteLength":3720,
			"byteOffset":1647032,
			"target":34962
		},
		{
			"buffer":0,
			"byteLength":2480,
			"byteOffset":1650752,
			"target":34962
		},
		{
			"buffer":0,
			"byteLength":744,
			"byteOffset":1653232,
			"target":34963
		},
		{
			"buffer":0,
			"byteLength":27084,
			"byteOffset":1653976,
			"target":34962
		},
		{
			"buffer":0,
			"byteLength":27084,
			"byteOffset":1681060,
			"target":34962
		},
		{
			"buffer":0,
			"byteLength":18056,
			"byteOffset":1708144,
			"target":34962
		},
		{
			"buffer":0,
			"byteLength":5112,
			"byteOffset":1726200,
			"target":34963
		},
		{
			"buffer":0,
			"byteLength":180,
			"byteOffset":1731312,
			"target":34962
		},
		{
			"buffer":0,
			"byteLength":180,
			"byteOffset":1731492,
			"target":34962
		},
		{
			"buffer":0,
			"byteLength":120,
			"byteOffset":1731672,
			"target":34962
		},
		{
			"buffer":0,
			"byteLength":30,
			"byteOffset":1731792,
			"target":34963
		},
		{
			"buffer":0,
			"byteLength":1128,
			"byteOffset":1731824,
			"target":34962
		},
		{
			"buffer":0,
			"byteLength":1128,
			"byteOffset":1732952,
			"target":34962
		},
		{
			"buffer":0,
			"byteLength":752,
			"byteOffset":1734080,
			"target":34962
		},
		{
			"buffer":0,
			"byteLength":192,
			"byteOffset":1734832,
			"target":34963
		}
	],
	"samplers":[
		{
			"magFilter":9729,
			"minFilter":9987
		}
	],
	"buffers":[
		{
			"byteLength":1735024,
			"uri":"dalekEmpPast.bin"
		}
	]
}
