{
	"asset":{
		"generator":"Khronos glTF Blender I/O v4.2.60",
		"version":"2.0"
	},
	"extensionsUsed":[
		"KHR_materials_specular",
		"KHR_materials_ior"
	],
	"scene":0,
	"scenes":[
		{
			"name":"Scene",
			"nodes":[
				0
			]
		}
	],
	"nodes":[
		{
			"mesh":0,
			"name":"Emperor Dalek",
			"rotation":[
				0.7071068286895752,
				0,
				0,
				0.7071068286895752
			],
			"scale":[
				0.001376549480482936,
				0.001376549480482936,
				0.001376549480482936
			]
		}
	],
	"materials":[
		{
			"doubleSided":true,
			"extensions":{
				"KHR_materials_specular":{
					"specularColorFactor":[
						2.0,
						2.0,
						2.0
					]
				}
			},
			"name":"18e5347b_dds",
			"pbrMetallicRoughness":{
				"baseColorTexture":{
					"index":0
				},
				"metallicFactor":0,
				"roughnessFactor":0
			}
		},
		{
			"alphaMode":"MASK",
			"doubleSided":true,
			"extensions":{
				"KHR_materials_specular":{
					"specularColorFactor":[
						2.0,
						2.0,
						2.0
					]
				},
				"KHR_materials_ior":{
					"ior":1
				}
			},
			"name":"1d03e8b7_dds",
			"pbrMetallicRoughness":{
				"baseColorFactor":[
					0.800000011920929,
					0.800000011920929,
					0.800000011920929,
					0
				],
				"metallicFactor":0,
				"roughnessFactor":0
			}
		},
		{
			"alphaMode":"BLEND",
			"doubleSided":true,
			"extensions":{
				"KHR_materials_specular":{
					"specularColorFactor":[
						2.0,
						2.0,
						2.0
					]
				}
			},
			"name":"3d1f3af3_dds",
			"pbrMetallicRoughness":{
				"baseColorTexture":{
					"index":1
				},
				"metallicFactor":0,
				"roughnessFactor":0
			}
		},
		{
			"alphaMode":"BLEND",
			"doubleSided":true,
			"extensions":{
				"KHR_materials_specular":{
					"specularColorFactor":[
						2.0,
						2.0,
						2.0
					]
				}
			},
			"name":"6c7e9374_dds",
			"pbrMetallicRoughness":{
				"baseColorTexture":{
					"index":2
				},
				"metallicFactor":0,
				"roughnessFactor":0
			}
		},
		{
			"alphaMode":"BLEND",
			"doubleSided":true,
			"extensions":{
				"KHR_materials_specular":{
					"specularColorFactor":[
						2.0,
						2.0,
						2.0
					]
				}
			},
			"name":"03f7e5c4_dds.001",
			"pbrMetallicRoughness":{
				"baseColorTexture":{
					"index":3
				},
				"metallicFactor":0,
				"roughnessFactor":0
			}
		},
		{
			"doubleSided":true,
			"extensions":{
				"KHR_materials_specular":{
					"specularColorFactor":[
						2.0,
						2.0,
						2.0
					]
				}
			},
			"name":"1ae4e4a5_dds",
			"pbrMetallicRoughness":{
				"baseColorTexture":{
					"index":4
				},
				"metallicFactor":0,
				"roughnessFactor":0
			}
		},
		{
			"doubleSided":true,
			"extensions":{
				"KHR_materials_specular":{
					"specularColorFactor":[
						2.0,
						2.0,
						2.0
					]
				}
			},
			"name":"a34c32b8_dds",
			"pbrMetallicRoughness":{
				"baseColorTexture":{
					"index":5
				},
				"metallicFactor":0,
				"roughnessFactor":0
			}
		},
		{
			"doubleSided":true,
			"extensions":{
				"KHR_materials_specular":{
					"specularColorFactor":[
						2.0,
						2.0,
						2.0
					]
				}
			},
			"name":"5bafa6fe_dds",
			"pbrMetallicRoughness":{
				"baseColorTexture":{
					"index":6
				},
				"metallicFactor":0,
				"roughnessFactor":0
			}
		},
		{
			"doubleSided":true,
			"extensions":{
				"KHR_materials_specular":{
					"specularColorFactor":[
						2.0,
						2.0,
						2.0
					]
				}
			},
			"name":"b3a20ec9_dds",
			"pbrMetallicRoughness":{
				"baseColorTexture":{
					"index":7
				},
				"metallicFactor":0,
				"roughnessFactor":0
			}
		}
	],
	"meshes":[
		{
			"name":"Emperor Dalek",
			"primitives":[
				{
					"attributes":{
						"POSITION":0,
						"NORMAL":1,
						"TEXCOORD_0":2
					},
					"indices":3,
					"material":0
				},
				{
					"attributes":{
						"POSITION":4,
						"NORMAL":5,
						"TEXCOORD_0":6
					},
					"indices":7,
					"material":1
				},
				{
					"attributes":{
						"POSITION":8,
						"NORMAL":9,
						"TEXCOORD_0":10
					},
					"indices":11,
					"material":2
				},
				{
					"attributes":{
						"POSITION":12,
						"NORMAL":13,
						"TEXCOORD_0":14
					},
					"indices":15,
					"material":3
				},
				{
					"attributes":{
						"POSITION":16,
						"NORMAL":17,
						"TEXCOORD_0":18
					},
					"indices":19,
					"material":4
				},
				{
					"attributes":{
						"POSITION":20,
						"NORMAL":21,
						"TEXCOORD_0":22
					},
					"indices":23,
					"material":5
				},
				{
					"attributes":{
						"POSITION":24,
						"NORMAL":25,
						"TEXCOORD_0":26
					},
					"indices":27,
					"material":6
				},
				{
					"attributes":{
						"POSITION":28,
						"NORMAL":29,
						"TEXCOORD_0":30
					},
					"indices":31,
					"material":7
				},
				{
					"attributes":{
						"POSITION":32,
						"NORMAL":33,
						"TEXCOORD_0":34
					},
					"indices":35,
					"material":8
				}
			]
		}
	],
	"textures":[
		{
			"sampler":0,
			"source":0
		},
		{
			"sampler":0,
			"source":1
		},
		{
			"sampler":0,
			"source":2
		},
		{
			"sampler":0,
			"source":3
		},
		{
			"sampler":0,
			"source":4
		},
		{
			"sampler":0,
			"source":5
		},
		{
			"sampler":0,
			"source":6
		},
		{
			"sampler":0,
			"source":7
		}
	],
	"images":[
		{
			"mimeType":"image/png",
			"name":"18e5347b",
			"uri":"18e5347b.png"
		},
		{
			"mimeType":"image/png",
			"name":"3d1f3af3",
			"uri":"3d1f3af3.png"
		},
		{
			"mimeType":"image/png",
			"name":"6c7e9374",
			"uri":"6c7e9374.png"
		},
		{
			"mimeType":"image/png",
			"name":"03f7e5c4",
			"uri":"03f7e5c4.png"
		},
		{
			"mimeType":"image/png",
			"name":"1ae4e4a5",
			"uri":"1ae4e4a5.png"
		},
		{
			"mimeType":"image/png",
			"name":"a34c32b8",
			"uri":"a34c32b8.png"
		},
		{
			"mimeType":"image/png",
			"name":"5bafa6fe",
			"uri":"5bafa6fe.png"
		},
		{
			"mimeType":"image/png",
			"name":"b3a20ec9",
			"uri":"b3a20ec9.png"
		}
	],
	"accessors":[
		{
			"bufferView":0,
			"componentType":5126,
			"count":2940,
			"max":[
				54.79716873168945,
				49.23464584350586,
				-470.12445068359375
			],
			"min":[
				-49.85283279418945,
				-62.925357818603516,
				-547.6344604492188
			],
			"type":"VEC3"
		},
		{
			"bufferView":1,
			"componentType":5126,
			"count":2940,
			"type":"VEC3"
		},
		{
			"bufferView":2,
			"componentType":5126,
			"count":2940,
			"type":"VEC2"
		},
		{
			"bufferView":3,
			"componentType":5123,
			"count":2940,
			"type":"SCALAR"
		},
		{
			"bufferView":4,
			"componentType":5126,
			"count":82,
			"max":[
				75.37718200683594,
				76.26165771484375,
				-468.3282470703125
			],
			"min":[
				-75.82797241210938,
				-74.56614685058594,
				-579.8629150390625
			],
			"type":"VEC3"
		},
		{
			"bufferView":5,
			"componentType":5126,
			"count":82,
			"type":"VEC3"
		},
		{
			"bufferView":6,
			"componentType":5126,
			"count":82,
			"type":"VEC2"
		},
		{
			"bufferView":7,
			"componentType":5123,
			"count":120,
			"type":"SCALAR"
		},
		{
			"bufferView":8,
			"componentType":5126,
			"count":74,
			"max":[
				38.465240478515625,
				28.807754516601562,
				-455.9495849609375
			],
			"min":[
				-50.89933776855469,
				-34.41463851928711,
				-570.838623046875
			],
			"type":"VEC3"
		},
		{
			"bufferView":9,
			"componentType":5126,
			"count":74,
			"type":"VEC3"
		},
		{
			"bufferView":10,
			"componentType":5126,
			"count":74,
			"type":"VEC2"
		},
		{
			"bufferView":11,
			"componentType":5123,
			"count":96,
			"type":"SCALAR"
		},
		{
			"bufferView":12,
			"componentType":5126,
			"count":84,
			"max":[
				71.54022979736328,
				72.1529541015625,
				-459.23468017578125
			],
			"min":[
				-72.24279022216797,
				-71.25784301757812,
				-567.4987182617188
			],
			"type":"VEC3"
		},
		{
			"bufferView":13,
			"componentType":5126,
			"count":84,
			"type":"VEC3"
		},
		{
			"bufferView":14,
			"componentType":5126,
			"count":84,
			"type":"VEC2"
		},
		{
			"bufferView":15,
			"componentType":5123,
			"count":120,
			"type":"SCALAR"
		},
		{
			"bufferView":16,
			"componentType":5126,
			"count":963,
			"max":[
				120.67864990234375,
				4.145438194274902,
				-744.3204345703125
			],
			"min":[
				-121.64089965820312,
				-30.129730224609375,
				-796.362548828125
			],
			"type":"VEC3"
		},
		{
			"bufferView":17,
			"componentType":5126,
			"count":963,
			"type":"VEC3"
		},
		{
			"bufferView":18,
			"componentType":5126,
			"count":963,
			"type":"VEC2"
		},
		{
			"bufferView":19,
			"componentType":5123,
			"count":1092,
			"type":"SCALAR"
		},
		{
			"bufferView":20,
			"componentType":5126,
			"count":10987,
			"max":[
				246.86048889160156,
				269.14202880859375,
				-309.7452697753906
			],
			"min":[
				-247.22596740722656,
				-281.9925842285156,
				-833.5385131835938
			],
			"type":"VEC3"
		},
		{
			"bufferView":21,
			"componentType":5126,
			"count":10987,
			"type":"VEC3"
		},
		{
			"bufferView":22,
			"componentType":5126,
			"count":10987,
			"type":"VEC2"
		},
		{
			"bufferView":23,
			"componentType":5123,
			"count":13482,
			"type":"SCALAR"
		},
		{
			"bufferView":24,
			"componentType":5126,
			"count":8361,
			"max":[
				543.4383544921875,
				536.0130615234375,
				0.7203369140625
			],
			"min":[
				-543.5074462890625,
				-549.1768798828125,
				-647.55419921875
			],
			"type":"VEC3"
		},
		{
			"bufferView":25,
			"componentType":5126,
			"count":8361,
			"type":"VEC3"
		},
		{
			"bufferView":26,
			"componentType":5126,
			"count":8361,
			"type":"VEC2"
		},
		{
			"bufferView":27,
			"componentType":5123,
			"count":9198,
			"type":"SCALAR"
		},
		{
			"bufferView":28,
			"componentType":5126,
			"count":29703,
			"max":[
				467.9779357910156,
				411.76043701171875,
				2.7703857421875
			],
			"min":[
				-468.3146667480469,
				-493.31268310546875,
				-679.3543701171875
			],
			"type":"VEC3"
		},
		{
			"bufferView":29,
			"componentType":5126,
			"count":29703,
			"type":"VEC3"
		},
		{
			"bufferView":30,
			"componentType":5126,
			"count":29703,
			"type":"VEC2"
		},
		{
			"bufferView":31,
			"componentType":5123,
			"count":33318,
			"type":"SCALAR"
		},
		{
			"bufferView":32,
			"componentType":5126,
			"count":96,
			"max":[
				504.6884460449219,
				504.6678771972656,
				0.8651073575019836
			],
			"min":[
				-504.7109680175781,
				-504.6676940917969,
				-1.019898772239685
			],
			"type":"VEC3"
		},
		{
			"bufferView":33,
			"componentType":5126,
			"count":96,
			"type":"VEC3"
		},
		{
			"bufferView":34,
			"componentType":5126,
			"count":96,
			"type":"VEC2"
		},
		{
			"bufferView":35,
			"componentType":5123,
			"count":96,
			"type":"SCALAR"
		}
	],
	"bufferViews":[
		{
			"buffer":0,
			"byteLength":35280,
			"byteOffset":0,
			"target":34962
		},
		{
			"buffer":0,
			"byteLength":35280,
			"byteOffset":35280,
			"target":34962
		},
		{
			"buffer":0,
			"byteLength":23520,
			"byteOffset":70560,
			"target":34962
		},
		{
			"buffer":0,
			"byteLength":5880,
			"byteOffset":94080,
			"target":34963
		},
		{
			"buffer":0,
			"byteLength":984,
			"byteOffset":99960,
			"target":34962
		},
		{
			"buffer":0,
			"byteLength":984,
			"byteOffset":100944,
			"target":34962
		},
		{
			"buffer":0,
			"byteLength":656,
			"byteOffset":101928,
			"target":34962
		},
		{
			"buffer":0,
			"byteLength":240,
			"byteOffset":102584,
			"target":34963
		},
		{
			"buffer":0,
			"byteLength":888,
			"byteOffset":102824,
			"target":34962
		},
		{
			"buffer":0,
			"byteLength":888,
			"byteOffset":103712,
			"target":34962
		},
		{
			"buffer":0,
			"byteLength":592,
			"byteOffset":104600,
			"target":34962
		},
		{
			"buffer":0,
			"byteLength":192,
			"byteOffset":105192,
			"target":34963
		},
		{
			"buffer":0,
			"byteLength":1008,
			"byteOffset":105384,
			"target":34962
		},
		{
			"buffer":0,
			"byteLength":1008,
			"byteOffset":106392,
			"target":34962
		},
		{
			"buffer":0,
			"byteLength":672,
			"byteOffset":107400,
			"target":34962
		},
		{
			"buffer":0,
			"byteLength":240,
			"byteOffset":108072,
			"target":34963
		},
		{
			"buffer":0,
			"byteLength":11556,
			"byteOffset":108312,
			"target":34962
		},
		{
			"buffer":0,
			"byteLength":11556,
			"byteOffset":119868,
			"target":34962
		},
		{
			"buffer":0,
			"byteLength":7704,
			"byteOffset":131424,
			"target":34962
		},
		{
			"buffer":0,
			"byteLength":2184,
			"byteOffset":139128,
			"target":34963
		},
		{
			"buffer":0,
			"byteLength":131844,
			"byteOffset":141312,
			"target":34962
		},
		{
			"buffer":0,
			"byteLength":131844,
			"byteOffset":273156,
			"target":34962
		},
		{
			"buffer":0,
			"byteLength":87896,
			"byteOffset":405000,
			"target":34962
		},
		{
			"buffer":0,
			"byteLength":26964,
			"byteOffset":492896,
			"target":34963
		},
		{
			"buffer":0,
			"byteLength":100332,
			"byteOffset":519860,
			"target":34962
		},
		{
			"buffer":0,
			"byteLength":100332,
			"byteOffset":620192,
			"target":34962
		},
		{
			"buffer":0,
			"byteLength":66888,
			"byteOffset":720524,
			"target":34962
		},
		{
			"buffer":0,
			"byteLength":18396,
			"byteOffset":787412,
			"target":34963
		},
		{
			"buffer":0,
			"byteLength":356436,
			"byteOffset":805808,
			"target":34962
		},
		{
			"buffer":0,
			"byteLength":356436,
			"byteOffset":1162244,
			"target":34962
		},
		{
			"buffer":0,
			"byteLength":237624,
			"byteOffset":1518680,
			"target":34962
		},
		{
			"buffer":0,
			"byteLength":66636,
			"byteOffset":1756304,
			"target":34963
		},
		{
			"buffer":0,
			"byteLength":1152,
			"byteOffset":1822940,
			"target":34962
		},
		{
			"buffer":0,
			"byteLength":1152,
			"byteOffset":1824092,
			"target":34962
		},
		{
			"buffer":0,
			"byteLength":768,
			"byteOffset":1825244,
			"target":34962
		},
		{
			"buffer":0,
			"byteLength":192,
			"byteOffset":1826012,
			"target":34963
		}
	],
	"samplers":[
		{
			"magFilter":9729,
			"minFilter":9987
		}
	],
	"buffers":[
		{
			"byteLength":1826204,
			"uri":"dalekEmp.bin"
		}
	]
}
