{
	"asset":{
		"generator":"Khronos glTF Blender I/O v4.2.60",
		"version":"2.0"
	},
	"extensionsUsed":[
		"KHR_materials_specular"
	],
	"scene":0,
	"scenes":[
		{
			"name":"Scene",
			"nodes":[
				4,
				5
			]
		}
	],
	"nodes":[
		{
			"name":"~b_pedestal",
			"rotation":[
				-0.7071067690849304,
				0,
				0,
				0.7071067690849304
			],
			"scale":[
				1.0000001192092896,
				1.0000001192092896,
				1.0000001192092896
			]
		},
		{
			"mesh":0,
			"name":"-default.001",
			"skin":0
		},
		{
			"mesh":1,
			"name":"-default.002",
			"skin":0
		},
		{
			"mesh":2,
			"name":"-default.003",
			"skin":0
		},
		{
			"children":[
				1,
				2,
				3,
				0
			],
			"name":"Armature",
			"scale":[
				0.00012064115435350686,
				0.00012064115435350686,
				0.00012064115435350686
			]
		},
		{
			"name":"-default",
			"scale":[
				0.00012064115435350686,
				0.00012064115435350686,
				0.00012064115435350686
			]
		}
	],
	"materials":[
		{
			"doubleSided":true,
			"extensions":{
				"KHR_materials_specular":{
					"specularFactor":0
				}
			},
			"name":"lnos",
			"pbrMetallicRoughness":{
				"baseColorTexture":{
					"index":0
				},
				"metallicFactor":0,
				"roughnessFactor":0.5
			}
		},
		{
			"doubleSided":true,
			"extensions":{
				"KHR_materials_specular":{
					"specularFactor":0
				}
			},
			"name":"lnos_top",
			"pbrMetallicRoughness":{
				"baseColorTexture":{
					"index":1
				},
				"metallicFactor":0,
				"roughnessFactor":0.5
			}
		},
		{
			"doubleSided":true,
			"extensions":{
				"KHR_materials_specular":{
					"specularFactor":0
				}
			},
			"name":"lnos_illum",
			"pbrMetallicRoughness":{
				"baseColorTexture":{
					"index":2
				},
				"metallicFactor":0,
				"roughnessFactor":0.5
			}
		}
	],
	"meshes":[
		{
			"name":"meshId0_name",
			"primitives":[
				{
					"attributes":{
						"POSITION":0,
						"NORMAL":1,
						"TEXCOORD_0":2,
						"JOINTS_0":3,
						"WEIGHTS_0":4
					},
					"indices":5,
					"material":0
				}
			]
		},
		{
			"name":"meshId1_name",
			"primitives":[
				{
					"attributes":{
						"POSITION":7,
						"NORMAL":8,
						"TEXCOORD_0":9,
						"JOINTS_0":10,
						"WEIGHTS_0":11
					},
					"indices":12,
					"material":1
				}
			]
		},
		{
			"name":"meshId2_name",
			"primitives":[
				{
					"attributes":{
						"POSITION":13,
						"NORMAL":14,
						"TEXCOORD_0":15,
						"JOINTS_0":16,
						"WEIGHTS_0":17
					},
					"indices":18,
					"material":2
				}
			]
		}
	],
	"textures":[
		{
			"sampler":0,
			"source":0
		},
		{
			"sampler":0,
			"source":1
		},
		{
			"sampler":0,
			"source":2
		}
	],
	"images":[
		{
			"mimeType":"image/png",
			"name":"lnos_dif",
			"uri":"lnos_dif.png"
		},
		{
			"mimeType":"image/png",
			"name":"lnos_top_dif",
			"uri":"lnos_top_dif.png"
		},
		{
			"mimeType":"image/png",
			"name":"lnos_illum",
			"uri":"lnos_illum.png"
		}
	],
	"skins":[
		{
			"inverseBindMatrices":6,
			"joints":[
				0
			],
			"name":"Armature"
		}
	],
	"accessors":[
		{
			"bufferView":0,
			"componentType":5126,
			"count":4590,
			"max":[
				4.684342384338379,
				1.600045084953308,
				11.878971099853516
			],
			"min":[
				-4.7023773193359375,
				-1.3970931768417358,
				-11.862239837646484
			],
			"type":"VEC3"
		},
		{
			"bufferView":1,
			"componentType":5126,
			"count":4590,
			"type":"VEC3"
		},
		{
			"bufferView":2,
			"componentType":5126,
			"count":4590,
			"type":"VEC2"
		},
		{
			"bufferView":3,
			"componentType":5121,
			"count":4590,
			"type":"VEC4"
		},
		{
			"bufferView":4,
			"componentType":5126,
			"count":4590,
			"type":"VEC4"
		},
		{
			"bufferView":5,
			"componentType":5123,
			"count":15108,
			"type":"SCALAR"
		},
		{
			"bufferView":6,
			"componentType":5126,
			"count":1,
			"type":"MAT4"
		},
		{
			"bufferView":7,
			"componentType":5126,
			"count":2004,
			"max":[
				4.606508255004883,
				1.9165805578231812,
				11.7952880859375
			],
			"min":[
				-4.624544620513916,
				-0.6143057346343994,
				-11.862239837646484
			],
			"type":"VEC3"
		},
		{
			"bufferView":8,
			"componentType":5126,
			"count":2004,
			"type":"VEC3"
		},
		{
			"bufferView":9,
			"componentType":5126,
			"count":2004,
			"type":"VEC2"
		},
		{
			"bufferView":10,
			"componentType":5121,
			"count":2004,
			"type":"VEC4"
		},
		{
			"bufferView":11,
			"componentType":5126,
			"count":2004,
			"type":"VEC4"
		},
		{
			"bufferView":12,
			"componentType":5123,
			"count":7494,
			"type":"SCALAR"
		},
		{
			"bufferView":13,
			"componentType":5126,
			"count":1701,
			"max":[
				4.367161750793457,
				1.4564706087112427,
				10.265372276306152
			],
			"min":[
				-4.385917663574219,
				-1.4067951440811157,
				-11.898253440856934
			],
			"type":"VEC3"
		},
		{
			"bufferView":14,
			"componentType":5126,
			"count":1701,
			"type":"VEC3"
		},
		{
			"bufferView":15,
			"componentType":5126,
			"count":1701,
			"type":"VEC2"
		},
		{
			"bufferView":16,
			"componentType":5121,
			"count":1701,
			"type":"VEC4"
		},
		{
			"bufferView":17,
			"componentType":5126,
			"count":1701,
			"type":"VEC4"
		},
		{
			"bufferView":18,
			"componentType":5123,
			"count":2886,
			"type":"SCALAR"
		}
	],
	"bufferViews":[
		{
			"buffer":0,
			"byteLength":55080,
			"byteOffset":0,
			"target":34962
		},
		{
			"buffer":0,
			"byteLength":55080,
			"byteOffset":55080,
			"target":34962
		},
		{
			"buffer":0,
			"byteLength":36720,
			"byteOffset":110160,
			"target":34962
		},
		{
			"buffer":0,
			"byteLength":18360,
			"byteOffset":146880,
			"target":34962
		},
		{
			"buffer":0,
			"byteLength":73440,
			"byteOffset":165240,
			"target":34962
		},
		{
			"buffer":0,
			"byteLength":30216,
			"byteOffset":238680,
			"target":34963
		},
		{
			"buffer":0,
			"byteLength":64,
			"byteOffset":268896
		},
		{
			"buffer":0,
			"byteLength":24048,
			"byteOffset":268960,
			"target":34962
		},
		{
			"buffer":0,
			"byteLength":24048,
			"byteOffset":293008,
			"target":34962
		},
		{
			"buffer":0,
			"byteLength":16032,
			"byteOffset":317056,
			"target":34962
		},
		{
			"buffer":0,
			"byteLength":8016,
			"byteOffset":333088,
			"target":34962
		},
		{
			"buffer":0,
			"byteLength":32064,
			"byteOffset":341104,
			"target":34962
		},
		{
			"buffer":0,
			"byteLength":14988,
			"byteOffset":373168,
			"target":34963
		},
		{
			"buffer":0,
			"byteLength":20412,
			"byteOffset":388156,
			"target":34962
		},
		{
			"buffer":0,
			"byteLength":20412,
			"byteOffset":408568,
			"target":34962
		},
		{
			"buffer":0,
			"byteLength":13608,
			"byteOffset":428980,
			"target":34962
		},
		{
			"buffer":0,
			"byteLength":6804,
			"byteOffset":442588,
			"target":34962
		},
		{
			"buffer":0,
			"byteLength":27216,
			"byteOffset":449392,
			"target":34962
		},
		{
			"buffer":0,
			"byteLength":5772,
			"byteOffset":476608,
			"target":34963
		}
	],
	"samplers":[
		{
			"magFilter":9729,
			"minFilter":9987
		}
	],
	"buffers":[
		{
			"byteLength":482380,
			"uri":"covenant.bin"
		}
	]
}
