{
	"asset":{
		"generator":"Khronos glTF Blender I/O v4.2.60",
		"version":"2.0"
	},
	"extensionsUsed":[
		"KHR_materials_specular"
	],
	"scene":0,
	"scenes":[
		{
			"name":"Scene",
			"nodes":[
				22
			]
		}
	],
	"nodes":[
		{
			"mesh":0,
			"name":"pCube25",
			"translation":[
				0,
				0,
				5
			]
		},
		{
			"children":[
				0
			],
			"name":"A"
		},
		{
			"name":"B_o"
		},
		{
			"mesh":1,
			"name":"pPlane441_q00002",
			"translation":[
				2.1274659633636475,
				-0.38421666622161865,
				-3.520343542098999
			]
		},
		{
			"mesh":2,
			"name":"pPlane441_q00003",
			"translation":[
				-7.432372093200684,
				-0.3842167258262634,
				-2.658351182937622
			]
		},
		{
			"mesh":3,
			"name":"pPlane441_q00004",
			"translation":[
				-7.429421424865723,
				-0.38421666622161865,
				-3.573744535446167
			]
		},
		{
			"mesh":4,
			"name":"pPlane441_q00005",
			"translation":[
				0.3688490390777588,
				-0.38421666622161865,
				-3.503025770187378
			]
		},
		{
			"mesh":5,
			"name":"pPlane441_q00006",
			"translation":[
				16.11503791809082,
				-0.38421663641929626,
				-3.823331594467163
			]
		},
		{
			"mesh":6,
			"name":"pPlane441_q00007",
			"translation":[
				16.841650009155273,
				-0.38421663641929626,
				-3.8294923305511475
			]
		},
		{
			"children":[
				3,
				4,
				5,
				6,
				7,
				8
			],
			"name":"hidari",
			"translation":[
				-3.905327081680298,
				-0.0023952946066856384,
				-4.4408769607543945
			]
		},
		{
			"name":"tate",
			"translation":[
				0,
				-0.1351470947265625,
				0
			]
		},
		{
			"children":[
				9,
				10
			],
			"name":"B_beni1"
		},
		{
			"name":"S_dai_s1",
			"translation":[
				12.801350593566895,
				-0.28302478790283203,
				0
			]
		},
		{
			"name":"S_dai_s2",
			"translation":[
				-11.853571891784668,
				-0.28302478790283203,
				0
			]
		},
		{
			"name":"S_dai_s3",
			"translation":[
				0,
				-0.28302478790283203,
				0
			]
		},
		{
			"children":[
				11,
				12,
				13,
				14
			],
			"name":"B_u"
		},
		{
			"children":[
				2,
				15
			],
			"name":"B",
			"translation":[
				0,
				-8,
				0
			]
		},
		{
			"mesh":7,
			"name":"star_01",
			"translation":[
				0,
				-9.979999542236328,
				2.711379051208496
			]
		},
		{
			"mesh":8,
			"name":"star_02",
			"translation":[
				0,
				-9.960000038146973,
				2.7113800048828125
			]
		},
		{
			"mesh":9,
			"name":"star_03",
			"translation":[
				0,
				-9.9399995803833,
				2.711379051208496
			]
		},
		{
			"children":[
				17,
				18,
				19
			],
			"name":"C"
		},
		{
			"children":[
				16,
				20
			],
			"name":"S"
		},
		{
			"children":[
				1,
				21
			],
			"name":"world_root",
			"rotation":[
				0.7071068286895752,
				0,
				0,
				0.7071068286895752
			]
		}
	],
	"materials":[
		{
			"doubleSided":true,
			"extensions":{
				"KHR_materials_specular":{
					"specularFactor":0
				}
			},
			"name":"lambert1",
			"pbrMetallicRoughness":{
				"baseColorFactor":[
					0.4000000059604645,
					0.4000000059604645,
					0.4000000059604645,
					1
				],
				"metallicFactor":0,
				"roughnessFactor":0.5
			}
		},
		{
			"doubleSided":true,
			"extensions":{
				"KHR_materials_specular":{
					"specularFactor":0
				}
			},
			"name":"lambert1_v",
			"pbrMetallicRoughness":{
				"baseColorFactor":[
					0.4000000059604645,
					0.4000000059604645,
					0.4000000059604645,
					1
				],
				"metallicFactor":0,
				"roughnessFactor":0.5
			}
		},
		{
			"doubleSided":true,
			"extensions":{
				"KHR_materials_specular":{
					"specularFactor":0
				}
			},
			"name":"hosi_02_v_x",
			"pbrMetallicRoughness":{
				"baseColorTexture":{
					"index":0
				},
				"metallicFactor":0,
				"roughnessFactor":0.5
			}
		},
		{
			"doubleSided":true,
			"extensions":{
				"KHR_materials_specular":{
					"specularFactor":0
				}
			},
			"name":"hosi_01",
			"pbrMetallicRoughness":{
				"baseColorTexture":{
					"index":1
				},
				"metallicFactor":0,
				"roughnessFactor":0.5
			}
		}
	],
	"meshes":[
		{
			"name":"meshpCube25",
			"primitives":[
				{
					"attributes":{
						"POSITION":0,
						"NORMAL":1,
						"TEXCOORD_0":2
					},
					"indices":3,
					"material":0
				}
			]
		},
		{
			"name":"meshpPlane441_q00002",
			"primitives":[
				{
					"attributes":{
						"POSITION":4,
						"NORMAL":5,
						"TEXCOORD_0":6,
						"COLOR_0":7,
						"COLOR_1":8
					},
					"indices":9,
					"material":1
				}
			]
		},
		{
			"name":"meshpPlane441_q00003",
			"primitives":[
				{
					"attributes":{
						"POSITION":10,
						"NORMAL":11,
						"TEXCOORD_0":12,
						"COLOR_0":13,
						"COLOR_1":14
					},
					"indices":9,
					"material":1
				}
			]
		},
		{
			"name":"meshpPlane441_q00004",
			"primitives":[
				{
					"attributes":{
						"POSITION":15,
						"NORMAL":16,
						"TEXCOORD_0":17,
						"COLOR_0":18,
						"COLOR_1":19
					},
					"indices":9,
					"material":1
				}
			]
		},
		{
			"name":"meshpPlane441_q00005",
			"primitives":[
				{
					"attributes":{
						"POSITION":20,
						"NORMAL":21,
						"TEXCOORD_0":22,
						"COLOR_0":23,
						"COLOR_1":24
					},
					"indices":9,
					"material":1
				}
			]
		},
		{
			"name":"meshpPlane441_q00006",
			"primitives":[
				{
					"attributes":{
						"POSITION":25,
						"NORMAL":26,
						"TEXCOORD_0":27,
						"COLOR_0":28,
						"COLOR_1":29
					},
					"indices":9,
					"material":1
				}
			]
		},
		{
			"name":"meshpPlane441_q00007",
			"primitives":[
				{
					"attributes":{
						"POSITION":30,
						"NORMAL":31,
						"TEXCOORD_0":32,
						"COLOR_0":33,
						"COLOR_1":34
					},
					"indices":9,
					"material":1
				}
			]
		},
		{
			"name":"meshstar_01",
			"primitives":[
				{
					"attributes":{
						"POSITION":35,
						"NORMAL":36,
						"TEXCOORD_0":37,
						"COLOR_0":38,
						"COLOR_1":39
					},
					"indices":40,
					"material":2
				}
			]
		},
		{
			"name":"meshstar_02",
			"primitives":[
				{
					"attributes":{
						"POSITION":41,
						"NORMAL":42,
						"TEXCOORD_0":43,
						"COLOR_0":44,
						"COLOR_1":45
					},
					"indices":40,
					"material":2
				}
			]
		},
		{
			"name":"meshstar_03",
			"primitives":[
				{
					"attributes":{
						"POSITION":46,
						"NORMAL":47,
						"TEXCOORD_0":48
					},
					"indices":49,
					"material":3
				}
			]
		}
	],
	"textures":[
		{
			"sampler":0,
			"source":0
		},
		{
			"sampler":0,
			"source":1
		}
	],
	"images":[
		{
			"mimeType":"image/png",
			"name":"moo_hosi_02",
			"uri":"moo_hosi_02.png"
		},
		{
			"mimeType":"image/png",
			"name":"moo_hosi_01",
			"uri":"moo_hosi_01.png"
		}
	],
	"accessors":[
		{
			"bufferView":0,
			"componentType":5126,
			"count":24,
			"max":[
				0.5,
				0.5,
				0.5
			],
			"min":[
				-0.5,
				-0.5,
				-0.5
			],
			"type":"VEC3"
		},
		{
			"bufferView":1,
			"componentType":5126,
			"count":24,
			"type":"VEC3"
		},
		{
			"bufferView":2,
			"componentType":5126,
			"count":24,
			"type":"VEC2"
		},
		{
			"bufferView":3,
			"componentType":5123,
			"count":36,
			"type":"SCALAR"
		},
		{
			"bufferView":4,
			"componentType":5126,
			"count":4,
			"max":[
				0.25390625,
				0.00390625,
				0.25390625
			],
			"min":[
				-0.25390625,
				-0.00390625,
				-0.25390625
			],
			"type":"VEC3"
		},
		{
			"bufferView":5,
			"componentType":5126,
			"count":4,
			"type":"VEC3"
		},
		{
			"bufferView":6,
			"componentType":5126,
			"count":4,
			"type":"VEC2"
		},
		{
			"bufferView":7,
			"componentType":5121,
			"count":4,
			"normalized":true,
			"type":"VEC4"
		},
		{
			"bufferView":8,
			"componentType":5126,
			"count":4,
			"type":"VEC3"
		},
		{
			"bufferView":9,
			"componentType":5123,
			"count":6,
			"type":"SCALAR"
		},
		{
			"bufferView":10,
			"componentType":5126,
			"count":4,
			"max":[
				0.25,
				0,
				0.25
			],
			"min":[
				-0.25,
				0,
				-0.25
			],
			"type":"VEC3"
		},
		{
			"bufferView":11,
			"componentType":5126,
			"count":4,
			"type":"VEC3"
		},
		{
			"bufferView":12,
			"componentType":5126,
			"count":4,
			"type":"VEC2"
		},
		{
			"bufferView":13,
			"componentType":5121,
			"count":4,
			"normalized":true,
			"type":"VEC4"
		},
		{
			"bufferView":14,
			"componentType":5126,
			"count":4,
			"type":"VEC3"
		},
		{
			"bufferView":15,
			"componentType":5126,
			"count":4,
			"max":[
				0.25390625,
				0.00390625,
				0.25390625
			],
			"min":[
				-0.25390625,
				-0.00390625,
				-0.25390625
			],
			"type":"VEC3"
		},
		{
			"bufferView":16,
			"componentType":5126,
			"count":4,
			"type":"VEC3"
		},
		{
			"bufferView":17,
			"componentType":5126,
			"count":4,
			"type":"VEC2"
		},
		{
			"bufferView":18,
			"componentType":5121,
			"count":4,
			"normalized":true,
			"type":"VEC4"
		},
		{
			"bufferView":19,
			"componentType":5126,
			"count":4,
			"type":"VEC3"
		},
		{
			"bufferView":20,
			"componentType":5126,
			"count":4,
			"max":[
				0.25390625,
				0.00390625,
				0.25390625
			],
			"min":[
				-0.25390625,
				-0.00390625,
				-0.25390625
			],
			"type":"VEC3"
		},
		{
			"bufferView":21,
			"componentType":5126,
			"count":4,
			"type":"VEC3"
		},
		{
			"bufferView":22,
			"componentType":5126,
			"count":4,
			"type":"VEC2"
		},
		{
			"bufferView":23,
			"componentType":5121,
			"count":4,
			"normalized":true,
			"type":"VEC4"
		},
		{
			"bufferView":24,
			"componentType":5126,
			"count":4,
			"type":"VEC3"
		},
		{
			"bufferView":25,
			"componentType":5126,
			"count":4,
			"max":[
				0.25390625,
				0.00390625,
				0.25390625
			],
			"min":[
				-0.25390625,
				-0.00390625,
				-0.25390625
			],
			"type":"VEC3"
		},
		{
			"bufferView":26,
			"componentType":5126,
			"count":4,
			"type":"VEC3"
		},
		{
			"bufferView":27,
			"componentType":5126,
			"count":4,
			"type":"VEC2"
		},
		{
			"bufferView":28,
			"componentType":5121,
			"count":4,
			"normalized":true,
			"type":"VEC4"
		},
		{
			"bufferView":29,
			"componentType":5126,
			"count":4,
			"type":"VEC3"
		},
		{
			"bufferView":30,
			"componentType":5126,
			"count":4,
			"max":[
				0.25,
				0,
				0.25
			],
			"min":[
				-0.25,
				0,
				-0.2460937649011612
			],
			"type":"VEC3"
		},
		{
			"bufferView":31,
			"componentType":5126,
			"count":4,
			"type":"VEC3"
		},
		{
			"bufferView":32,
			"componentType":5126,
			"count":4,
			"type":"VEC2"
		},
		{
			"bufferView":33,
			"componentType":5121,
			"count":4,
			"normalized":true,
			"type":"VEC4"
		},
		{
			"bufferView":34,
			"componentType":5126,
			"count":4,
			"type":"VEC3"
		},
		{
			"bufferView":35,
			"componentType":5126,
			"count":157,
			"max":[
				28.36328125,
				0,
				28.83984375
			],
			"min":[
				-28.99609375,
				0,
				-28.83984375
			],
			"type":"VEC3"
		},
		{
			"bufferView":36,
			"componentType":5126,
			"count":157,
			"type":"VEC3"
		},
		{
			"bufferView":37,
			"componentType":5126,
			"count":157,
			"type":"VEC2"
		},
		{
			"bufferView":38,
			"componentType":5121,
			"count":157,
			"normalized":true,
			"type":"VEC4"
		},
		{
			"bufferView":39,
			"componentType":5126,
			"count":157,
			"type":"VEC3"
		},
		{
			"bufferView":40,
			"componentType":5123,
			"count":405,
			"type":"SCALAR"
		},
		{
			"bufferView":41,
			"componentType":5126,
			"count":157,
			"max":[
				29,
				0,
				28.83984375
			],
			"min":[
				-28.36328125,
				0,
				-28.83984375
			],
			"type":"VEC3"
		},
		{
			"bufferView":42,
			"componentType":5126,
			"count":157,
			"type":"VEC3"
		},
		{
			"bufferView":43,
			"componentType":5126,
			"count":157,
			"type":"VEC2"
		},
		{
			"bufferView":44,
			"componentType":5121,
			"count":157,
			"normalized":true,
			"type":"VEC4"
		},
		{
			"bufferView":45,
			"componentType":5126,
			"count":157,
			"type":"VEC3"
		},
		{
			"bufferView":46,
			"componentType":5126,
			"count":191,
			"max":[
				29,
				0,
				28.83984375
			],
			"min":[
				-28.36328125,
				0,
				-28.83984375
			],
			"type":"VEC3"
		},
		{
			"bufferView":47,
			"componentType":5126,
			"count":191,
			"type":"VEC3"
		},
		{
			"bufferView":48,
			"componentType":5126,
			"count":191,
			"type":"VEC2"
		},
		{
			"bufferView":49,
			"componentType":5123,
			"count":405,
			"type":"SCALAR"
		}
	],
	"bufferViews":[
		{
			"buffer":0,
			"byteLength":288,
			"byteOffset":0,
			"target":34962
		},
		{
			"buffer":0,
			"byteLength":288,
			"byteOffset":288,
			"target":34962
		},
		{
			"buffer":0,
			"byteLength":192,
			"byteOffset":576,
			"target":34962
		},
		{
			"buffer":0,
			"byteLength":72,
			"byteOffset":768,
			"target":34963
		},
		{
			"buffer":0,
			"byteLength":48,
			"byteOffset":840,
			"target":34962
		},
		{
			"buffer":0,
			"byteLength":48,
			"byteOffset":888,
			"target":34962
		},
		{
			"buffer":0,
			"byteLength":32,
			"byteOffset":936,
			"target":34962
		},
		{
			"buffer":0,
			"byteLength":16,
			"byteOffset":968,
			"target":34962
		},
		{
			"buffer":0,
			"byteLength":48,
			"byteOffset":984,
			"target":34962
		},
		{
			"buffer":0,
			"byteLength":12,
			"byteOffset":1032,
			"target":34963
		},
		{
			"buffer":0,
			"byteLength":48,
			"byteOffset":1044,
			"target":34962
		},
		{
			"buffer":0,
			"byteLength":48,
			"byteOffset":1092,
			"target":34962
		},
		{
			"buffer":0,
			"byteLength":32,
			"byteOffset":1140,
			"target":34962
		},
		{
			"buffer":0,
			"byteLength":16,
			"byteOffset":1172,
			"target":34962
		},
		{
			"buffer":0,
			"byteLength":48,
			"byteOffset":1188,
			"target":34962
		},
		{
			"buffer":0,
			"byteLength":48,
			"byteOffset":1236,
			"target":34962
		},
		{
			"buffer":0,
			"byteLength":48,
			"byteOffset":1284,
			"target":34962
		},
		{
			"buffer":0,
			"byteLength":32,
			"byteOffset":1332,
			"target":34962
		},
		{
			"buffer":0,
			"byteLength":16,
			"byteOffset":1364,
			"target":34962
		},
		{
			"buffer":0,
			"byteLength":48,
			"byteOffset":1380,
			"target":34962
		},
		{
			"buffer":0,
			"byteLength":48,
			"byteOffset":1428,
			"target":34962
		},
		{
			"buffer":0,
			"byteLength":48,
			"byteOffset":1476,
			"target":34962
		},
		{
			"buffer":0,
			"byteLength":32,
			"byteOffset":1524,
			"target":34962
		},
		{
			"buffer":0,
			"byteLength":16,
			"byteOffset":1556,
			"target":34962
		},
		{
			"buffer":0,
			"byteLength":48,
			"byteOffset":1572,
			"target":34962
		},
		{
			"buffer":0,
			"byteLength":48,
			"byteOffset":1620,
			"target":34962
		},
		{
			"buffer":0,
			"byteLength":48,
			"byteOffset":1668,
			"target":34962
		},
		{
			"buffer":0,
			"byteLength":32,
			"byteOffset":1716,
			"target":34962
		},
		{
			"buffer":0,
			"byteLength":16,
			"byteOffset":1748,
			"target":34962
		},
		{
			"buffer":0,
			"byteLength":48,
			"byteOffset":1764,
			"target":34962
		},
		{
			"buffer":0,
			"byteLength":48,
			"byteOffset":1812,
			"target":34962
		},
		{
			"buffer":0,
			"byteLength":48,
			"byteOffset":1860,
			"target":34962
		},
		{
			"buffer":0,
			"byteLength":32,
			"byteOffset":1908,
			"target":34962
		},
		{
			"buffer":0,
			"byteLength":16,
			"byteOffset":1940,
			"target":34962
		},
		{
			"buffer":0,
			"byteLength":48,
			"byteOffset":1956,
			"target":34962
		},
		{
			"buffer":0,
			"byteLength":1884,
			"byteOffset":2004,
			"target":34962
		},
		{
			"buffer":0,
			"byteLength":1884,
			"byteOffset":3888,
			"target":34962
		},
		{
			"buffer":0,
			"byteLength":1256,
			"byteOffset":5772,
			"target":34962
		},
		{
			"buffer":0,
			"byteLength":628,
			"byteOffset":7028,
			"target":34962
		},
		{
			"buffer":0,
			"byteLength":1884,
			"byteOffset":7656,
			"target":34962
		},
		{
			"buffer":0,
			"byteLength":810,
			"byteOffset":9540,
			"target":34963
		},
		{
			"buffer":0,
			"byteLength":1884,
			"byteOffset":10352,
			"target":34962
		},
		{
			"buffer":0,
			"byteLength":1884,
			"byteOffset":12236,
			"target":34962
		},
		{
			"buffer":0,
			"byteLength":1256,
			"byteOffset":14120,
			"target":34962
		},
		{
			"buffer":0,
			"byteLength":628,
			"byteOffset":15376,
			"target":34962
		},
		{
			"buffer":0,
			"byteLength":1884,
			"byteOffset":16004,
			"target":34962
		},
		{
			"buffer":0,
			"byteLength":2292,
			"byteOffset":17888,
			"target":34962
		},
		{
			"buffer":0,
			"byteLength":2292,
			"byteOffset":20180,
			"target":34962
		},
		{
			"buffer":0,
			"byteLength":1528,
			"byteOffset":22472,
			"target":34962
		},
		{
			"buffer":0,
			"byteLength":810,
			"byteOffset":24000,
			"target":34963
		}
	],
	"samplers":[
		{
			"magFilter":9729,
			"minFilter":9987
		}
	],
	"buffers":[
		{
			"byteLength":24812,
			"uri":"moon.bin"
		}
	]
}
