{
	"asset":{
		"generator":"Khronos glTF Blender I/O v4.2.60",
		"version":"2.0"
	},
	"extensionsUsed":[
		"KHR_materials_specular"
	],
	"scene":0,
	"scenes":[
		{
			"name":"Scene",
			"nodes":[
				0
			]
		}
	],
	"nodes":[
		{
			"mesh":0,
			"name":"TARDIS",
			"rotation":[
				0.7071068286895752,
				0,
				0,
				0.7071068286895752
			]
		}
	],
	"materials":[
		{
			"doubleSided":true,
			"extensions":{
				"KHR_materials_specular":{
					"specularColorFactor":[
						2.0,
						2.0,
						2.0
					]
				}
			},
			"name":"Mat",
			"pbrMetallicRoughness":{
				"baseColorTexture":{
					"index":0
				},
				"metallicFactor":0,
				"roughnessFactor":0
			}
		},
		{
			"doubleSided":true,
			"extensions":{
				"KHR_materials_specular":{
					"specularColorFactor":[
						2.0,
						2.0,
						2.0
					]
				}
			},
			"name":"d9c2a958_dds",
			"pbrMetallicRoughness":{
				"baseColorTexture":{
					"index":1
				},
				"metallicFactor":0,
				"roughnessFactor":0
			}
		}
	],
	"meshes":[
		{
			"name":"TARDIS",
			"primitives":[
				{
					"attributes":{
						"POSITION":0,
						"NORMAL":1,
						"TEXCOORD_0":2
					},
					"indices":3,
					"material":0
				},
				{
					"attributes":{
						"POSITION":4,
						"NORMAL":5,
						"TEXCOORD_0":6
					},
					"indices":7,
					"material":1
				}
			]
		}
	],
	"textures":[
		{
			"sampler":0,
			"source":0
		},
		{
			"sampler":0,
			"source":1
		}
	],
	"images":[
		{
			"mimeType":"image/png",
			"name":"8ca4ee08",
			"uri":"8ca4ee08.png"
		},
		{
			"mimeType":"image/png",
			"name":"79797c43",
			"uri":"79797c43.png"
		}
	],
	"accessors":[
		{
			"bufferView":0,
			"componentType":5126,
			"count":2018,
			"max":[
				66.87995147705078,
				71.84657287597656,
				-138.25112915039062
			],
			"min":[
				-66.9829330444336,
				-66.47926330566406,
				-297.1318359375
			],
			"type":"VEC3"
		},
		{
			"bufferView":1,
			"componentType":5126,
			"count":2018,
			"type":"VEC3"
		},
		{
			"bufferView":2,
			"componentType":5126,
			"count":2018,
			"type":"VEC2"
		},
		{
			"bufferView":3,
			"componentType":5123,
			"count":2136,
			"type":"SCALAR"
		},
		{
			"bufferView":4,
			"componentType":5126,
			"count":8731,
			"max":[
				79.55938720703125,
				78.21117401123047,
				3.057000139961019e-05
			],
			"min":[
				-79.5606918334961,
				-78.20408630371094,
				-308.93597412109375
			],
			"type":"VEC3"
		},
		{
			"bufferView":5,
			"componentType":5126,
			"count":8731,
			"type":"VEC3"
		},
		{
			"bufferView":6,
			"componentType":5126,
			"count":8731,
			"type":"VEC2"
		},
		{
			"bufferView":7,
			"componentType":5123,
			"count":9465,
			"type":"SCALAR"
		}
	],
	"bufferViews":[
		{
			"buffer":0,
			"byteLength":24216,
			"byteOffset":0,
			"target":34962
		},
		{
			"buffer":0,
			"byteLength":24216,
			"byteOffset":24216,
			"target":34962
		},
		{
			"buffer":0,
			"byteLength":16144,
			"byteOffset":48432,
			"target":34962
		},
		{
			"buffer":0,
			"byteLength":4272,
			"byteOffset":64576,
			"target":34963
		},
		{
			"buffer":0,
			"byteLength":104772,
			"byteOffset":68848,
			"target":34962
		},
		{
			"buffer":0,
			"byteLength":104772,
			"byteOffset":173620,
			"target":34962
		},
		{
			"buffer":0,
			"byteLength":69848,
			"byteOffset":278392,
			"target":34962
		},
		{
			"buffer":0,
			"byteLength":18930,
			"byteOffset":348240,
			"target":34963
		}
	],
	"samplers":[
		{
			"magFilter":9729,
			"minFilter":9987
		}
	],
	"buffers":[
		{
			"byteLength":367172,
			"uri":"tardis.bin"
		}
	]
}
