{
	"asset":{
		"generator":"Khronos glTF Blender I/O v4.2.60",
		"version":"2.0"
	},
	"scene":0,
	"scenes":[
		{
			"name":"Scene",
			"nodes":[
				0
			]
		}
	],
	"nodes":[
		{
			"mesh":0,
			"name":"sculpted_stool_1",
			"rotation":[
				0.7071068286895752,
				0,
				0,
				0.7071068286895752
			]
		}
	],
	"meshes":[
		{
			"name":"sculpted_stool_1",
			"primitives":[
				{
					"attributes":{
						"POSITION":0,
						"NORMAL":1,
						"TEXCOORD_0":2
					},
					"indices":3
				}
			]
		}
	],
	"accessors":[
		{
			"bufferView":0,
			"componentType":5126,
			"count":625,
			"max":[
				330,
				499.41107177734375,
				1.1123245133672945e-15
			],
			"min":[
				0,
				0.08188416063785553,
				-330
			],
			"type":"VEC3"
		},
		{
			"bufferView":1,
			"componentType":5126,
			"count":625,
			"type":"VEC3"
		},
		{
			"bufferView":2,
			"componentType":5126,
			"count":625,
			"type":"VEC2"
		},
		{
			"bufferView":3,
			"componentType":5123,
			"count":2784,
			"type":"SCALAR"
		}
	],
	"bufferViews":[
		{
			"buffer":0,
			"byteLength":7500,
			"byteOffset":0,
			"target":34962
		},
		{
			"buffer":0,
			"byteLength":7500,
			"byteOffset":7500,
			"target":34962
		},
		{
			"buffer":0,
			"byteLength":5000,
			"byteOffset":15000,
			"target":34962
		},
		{
			"buffer":0,
			"byteLength":5568,
			"byteOffset":20000,
			"target":34963
		}
	],
	"buffers":[
		{
			"byteLength":25568,
			"uri":"banco.bin"
		}
	]
}
