{
	"asset":{
		"generator":"Khronos glTF Blender I/O v4.2.60",
		"version":"2.0"
	},
	"extensionsUsed":[
		"KHR_materials_specular",
		"KHR_materials_ior"
	],
	"scene":0,
	"scenes":[
		{
			"name":"Scene",
			"nodes":[
				9
			]
		}
	],
	"nodes":[
		{
			"mesh":0,
			"name":"jet1"
		},
		{
			"mesh":1,
			"name":"jet2"
		},
		{
			"mesh":2,
			"name":"lev1"
		},
		{
			"mesh":3,
			"name":"lev2"
		},
		{
			"mesh":4,
			"name":"lev4"
		},
		{
			"mesh":5,
			"name":"wing"
		},
		{
			"mesh":6,
			"name":"wingmount"
		},
		{
			"mesh":7,
			"name":"wingsphere1"
		},
		{
			"mesh":8,
			"name":"wingsphere2"
		},
		{
			"children":[
				0,
				1,
				2,
				3,
				4,
				5,
				6,
				7,
				8
			],
			"mesh":9,
			"name":"imp_stardestroyermain"
		}
	],
	"materials":[
		{
			"doubleSided":true,
			"extensions":{
				"KHR_materials_specular":{
					"specularFactor":0
				},
				"KHR_materials_ior":{
					"ior":1.4499999284744263
				}
			},
			"name":"ISD",
			"pbrMetallicRoughness":{
				"baseColorTexture":{
					"index":0
				},
				"metallicFactor":0,
				"roughnessFactor":0.5
			}
		}
	],
	"meshes":[
		{
			"name":"jet1",
			"primitives":[
				{
					"attributes":{
						"POSITION":0,
						"NORMAL":1,
						"TEXCOORD_0":2
					},
					"indices":3,
					"material":0
				}
			]
		},
		{
			"name":"jet2",
			"primitives":[
				{
					"attributes":{
						"POSITION":4,
						"NORMAL":5,
						"TEXCOORD_0":6
					},
					"indices":7,
					"material":0
				}
			]
		},
		{
			"name":"lev1",
			"primitives":[
				{
					"attributes":{
						"POSITION":8,
						"NORMAL":9,
						"TEXCOORD_0":10
					},
					"indices":11,
					"material":0
				}
			]
		},
		{
			"name":"lev2",
			"primitives":[
				{
					"attributes":{
						"POSITION":12,
						"NORMAL":13,
						"TEXCOORD_0":14
					},
					"indices":15,
					"material":0
				}
			]
		},
		{
			"name":"lev4",
			"primitives":[
				{
					"attributes":{
						"POSITION":16,
						"NORMAL":17,
						"TEXCOORD_0":18
					},
					"indices":19,
					"material":0
				}
			]
		},
		{
			"name":"wing",
			"primitives":[
				{
					"attributes":{
						"POSITION":20,
						"NORMAL":21,
						"TEXCOORD_0":22
					},
					"indices":23,
					"material":0
				}
			]
		},
		{
			"name":"wingmount",
			"primitives":[
				{
					"attributes":{
						"POSITION":24,
						"NORMAL":25,
						"TEXCOORD_0":26
					},
					"indices":27,
					"material":0
				}
			]
		},
		{
			"name":"wingsphere1",
			"primitives":[
				{
					"attributes":{
						"POSITION":28,
						"NORMAL":29,
						"TEXCOORD_0":30
					},
					"indices":31,
					"material":0
				}
			]
		},
		{
			"name":"wingsphere2",
			"primitives":[
				{
					"attributes":{
						"POSITION":32,
						"NORMAL":33,
						"TEXCOORD_0":34
					},
					"indices":35,
					"material":0
				}
			]
		},
		{
			"name":"imp_stardestroyermain",
			"primitives":[
				{
					"attributes":{
						"POSITION":36,
						"NORMAL":37,
						"TEXCOORD_0":38
					},
					"indices":39,
					"material":0
				}
			]
		}
	],
	"textures":[
		{
			"sampler":0,
			"source":0
		}
	],
	"images":[
		{
			"mimeType":"image/png",
			"name":"imp_stardestroyer",
			"uri":"imp_stardestroyer.png"
		}
	],
	"accessors":[
		{
			"bufferView":0,
			"componentType":5126,
			"count":26,
			"max":[
				105.82839965820312,
				64.66178131103516,
				265.6645812988281
			],
			"min":[
				65.59076690673828,
				21.394819259643555,
				218.906005859375
			],
			"type":"VEC3"
		},
		{
			"bufferView":1,
			"componentType":5126,
			"count":26,
			"type":"VEC3"
		},
		{
			"bufferView":2,
			"componentType":5126,
			"count":26,
			"type":"VEC2"
		},
		{
			"bufferView":3,
			"componentType":5123,
			"count":66,
			"type":"SCALAR"
		},
		{
			"bufferView":4,
			"componentType":5126,
			"count":26,
			"max":[
				-59.94086837768555,
				64.66178131103516,
				265.6645812988281
			],
			"min":[
				-100.17849731445312,
				21.394819259643555,
				218.906005859375
			],
			"type":"VEC3"
		},
		{
			"bufferView":5,
			"componentType":5126,
			"count":26,
			"type":"VEC3"
		},
		{
			"bufferView":6,
			"componentType":5126,
			"count":26,
			"type":"VEC2"
		},
		{
			"bufferView":7,
			"componentType":5123,
			"count":66,
			"type":"SCALAR"
		},
		{
			"bufferView":8,
			"componentType":5126,
			"count":23,
			"max":[
				47.837188720703125,
				84.17500305175781,
				58.069488525390625
			],
			"min":[
				-43.9184684753418,
				61.9815673828125,
				1.9328010082244873
			],
			"type":"VEC3"
		},
		{
			"bufferView":9,
			"componentType":5126,
			"count":23,
			"type":"VEC3"
		},
		{
			"bufferView":10,
			"componentType":5126,
			"count":23,
			"type":"VEC2"
		},
		{
			"bufferView":11,
			"componentType":5123,
			"count":36,
			"type":"SCALAR"
		},
		{
			"bufferView":12,
			"componentType":5126,
			"count":48,
			"max":[
				77.91281127929688,
				99.35778045654297,
				255.40029907226562
			],
			"min":[
				-83.12017059326172,
				55.63707733154297,
				50.83491897583008
			],
			"type":"VEC3"
		},
		{
			"bufferView":13,
			"componentType":5126,
			"count":48,
			"type":"VEC3"
		},
		{
			"bufferView":14,
			"componentType":5126,
			"count":48,
			"type":"VEC2"
		},
		{
			"bufferView":15,
			"componentType":5123,
			"count":78,
			"type":"SCALAR"
		},
		{
			"bufferView":16,
			"componentType":5126,
			"count":30,
			"max":[
				43.80603790283203,
				117.3302993774414,
				253.6623992919922
			],
			"min":[
				-44.5188102722168,
				84.83842468261719,
				87.34603118896484
			],
			"type":"VEC3"
		},
		{
			"bufferView":17,
			"componentType":5126,
			"count":30,
			"type":"VEC3"
		},
		{
			"bufferView":18,
			"componentType":5126,
			"count":30,
			"type":"VEC2"
		},
		{
			"bufferView":19,
			"componentType":5123,
			"count":48,
			"type":"SCALAR"
		},
		{
			"bufferView":20,
			"componentType":5126,
			"count":32,
			"max":[
				59.808837890625,
				166.39749145507812,
				222.55828857421875
			],
			"min":[
				-57.65571975708008,
				132.83428955078125,
				173.83309936523438
			],
			"type":"VEC3"
		},
		{
			"bufferView":21,
			"componentType":5126,
			"count":32,
			"type":"VEC3"
		},
		{
			"bufferView":22,
			"componentType":5126,
			"count":32,
			"type":"VEC2"
		},
		{
			"bufferView":23,
			"componentType":5123,
			"count":60,
			"type":"SCALAR"
		},
		{
			"bufferView":24,
			"componentType":5126,
			"count":22,
			"max":[
				19.10902976989746,
				156.62149047851562,
				266.48089599609375
			],
			"min":[
				-17.823339462280273,
				68.12896728515625,
				178.44850158691406
			],
			"type":"VEC3"
		},
		{
			"bufferView":25,
			"componentType":5126,
			"count":22,
			"type":"VEC3"
		},
		{
			"bufferView":26,
			"componentType":5126,
			"count":22,
			"type":"VEC2"
		},
		{
			"bufferView":27,
			"componentType":5123,
			"count":42,
			"type":"SCALAR"
		},
		{
			"bufferView":28,
			"componentType":5126,
			"count":24,
			"max":[
				50.87331008911133,
				184.22109985351562,
				203.79739379882812
			],
			"min":[
				30.091968536376953,
				155.5377960205078,
				181.94659423828125
			],
			"type":"VEC3"
		},
		{
			"bufferView":29,
			"componentType":5126,
			"count":24,
			"type":"VEC3"
		},
		{
			"bufferView":30,
			"componentType":5126,
			"count":24,
			"type":"VEC2"
		},
		{
			"bufferView":31,
			"componentType":5123,
			"count":45,
			"type":"SCALAR"
		},
		{
			"bufferView":32,
			"componentType":5126,
			"count":25,
			"max":[
				-30.649158477783203,
				184.22109985351562,
				203.71669006347656
			],
			"min":[
				-52.226627349853516,
				155.5377960205078,
				182.1306915283203
			],
			"type":"VEC3"
		},
		{
			"bufferView":33,
			"componentType":5126,
			"count":25,
			"type":"VEC3"
		},
		{
			"bufferView":34,
			"componentType":5126,
			"count":25,
			"type":"VEC2"
		},
		{
			"bufferView":35,
			"componentType":5123,
			"count":45,
			"type":"SCALAR"
		},
		{
			"bufferView":36,
			"componentType":5126,
			"count":26,
			"max":[
				153.08338928222656,
				80.22946166992188,
				272.06170654296875
			],
			"min":[
				-154.66000366210938,
				0.3757716119289398,
				-271.9590148925781
			],
			"type":"VEC3"
		},
		{
			"bufferView":37,
			"componentType":5126,
			"count":26,
			"type":"VEC3"
		},
		{
			"bufferView":38,
			"componentType":5126,
			"count":26,
			"type":"VEC2"
		},
		{
			"bufferView":39,
			"componentType":5123,
			"count":36,
			"type":"SCALAR"
		}
	],
	"bufferViews":[
		{
			"buffer":0,
			"byteLength":312,
			"byteOffset":0,
			"target":34962
		},
		{
			"buffer":0,
			"byteLength":312,
			"byteOffset":312,
			"target":34962
		},
		{
			"buffer":0,
			"byteLength":208,
			"byteOffset":624,
			"target":34962
		},
		{
			"buffer":0,
			"byteLength":132,
			"byteOffset":832,
			"target":34963
		},
		{
			"buffer":0,
			"byteLength":312,
			"byteOffset":964,
			"target":34962
		},
		{
			"buffer":0,
			"byteLength":312,
			"byteOffset":1276,
			"target":34962
		},
		{
			"buffer":0,
			"byteLength":208,
			"byteOffset":1588,
			"target":34962
		},
		{
			"buffer":0,
			"byteLength":132,
			"byteOffset":1796,
			"target":34963
		},
		{
			"buffer":0,
			"byteLength":276,
			"byteOffset":1928,
			"target":34962
		},
		{
			"buffer":0,
			"byteLength":276,
			"byteOffset":2204,
			"target":34962
		},
		{
			"buffer":0,
			"byteLength":184,
			"byteOffset":2480,
			"target":34962
		},
		{
			"buffer":0,
			"byteLength":72,
			"byteOffset":2664,
			"target":34963
		},
		{
			"buffer":0,
			"byteLength":576,
			"byteOffset":2736,
			"target":34962
		},
		{
			"buffer":0,
			"byteLength":576,
			"byteOffset":3312,
			"target":34962
		},
		{
			"buffer":0,
			"byteLength":384,
			"byteOffset":3888,
			"target":34962
		},
		{
			"buffer":0,
			"byteLength":156,
			"byteOffset":4272,
			"target":34963
		},
		{
			"buffer":0,
			"byteLength":360,
			"byteOffset":4428,
			"target":34962
		},
		{
			"buffer":0,
			"byteLength":360,
			"byteOffset":4788,
			"target":34962
		},
		{
			"buffer":0,
			"byteLength":240,
			"byteOffset":5148,
			"target":34962
		},
		{
			"buffer":0,
			"byteLength":96,
			"byteOffset":5388,
			"target":34963
		},
		{
			"buffer":0,
			"byteLength":384,
			"byteOffset":5484,
			"target":34962
		},
		{
			"buffer":0,
			"byteLength":384,
			"byteOffset":5868,
			"target":34962
		},
		{
			"buffer":0,
			"byteLength":256,
			"byteOffset":6252,
			"target":34962
		},
		{
			"buffer":0,
			"byteLength":120,
			"byteOffset":6508,
			"target":34963
		},
		{
			"buffer":0,
			"byteLength":264,
			"byteOffset":6628,
			"target":34962
		},
		{
			"buffer":0,
			"byteLength":264,
			"byteOffset":6892,
			"target":34962
		},
		{
			"buffer":0,
			"byteLength":176,
			"byteOffset":7156,
			"target":34962
		},
		{
			"buffer":0,
			"byteLength":84,
			"byteOffset":7332,
			"target":34963
		},
		{
			"buffer":0,
			"byteLength":288,
			"byteOffset":7416,
			"target":34962
		},
		{
			"buffer":0,
			"byteLength":288,
			"byteOffset":7704,
			"target":34962
		},
		{
			"buffer":0,
			"byteLength":192,
			"byteOffset":7992,
			"target":34962
		},
		{
			"buffer":0,
			"byteLength":90,
			"byteOffset":8184,
			"target":34963
		},
		{
			"buffer":0,
			"byteLength":300,
			"byteOffset":8276,
			"target":34962
		},
		{
			"buffer":0,
			"byteLength":300,
			"byteOffset":8576,
			"target":34962
		},
		{
			"buffer":0,
			"byteLength":200,
			"byteOffset":8876,
			"target":34962
		},
		{
			"buffer":0,
			"byteLength":90,
			"byteOffset":9076,
			"target":34963
		},
		{
			"buffer":0,
			"byteLength":312,
			"byteOffset":9168,
			"target":34962
		},
		{
			"buffer":0,
			"byteLength":312,
			"byteOffset":9480,
			"target":34962
		},
		{
			"buffer":0,
			"byteLength":208,
			"byteOffset":9792,
			"target":34962
		},
		{
			"buffer":0,
			"byteLength":72,
			"byteOffset":10000,
			"target":34963
		}
	],
	"samplers":[
		{
			"magFilter":9729,
			"minFilter":9987
		}
	],
	"buffers":[
		{
			"byteLength":10072,
			"uri":"destroyer.bin"
		}
	]
}
