{
	"asset":{
		"generator":"Khronos glTF Blender I/O v4.0.44",
		"version":"2.0"
	},
	"scene":0,
	"scenes":[
		{
			"name":"Scene",
			"nodes":[
				0
			]
		}
	],
	"nodes":[
		{
			"mesh":0,
			"name":"GABS",
			"rotation":[
				-0.70710688829422,
				0,
				0,
				0.7071066498756409
			]
		}
	],
	"meshes":[
		{
			"name":"GABS",
			"primitives":[
				{
					"attributes":{
						"POSITION":0,
						"NORMAL":1
					},
					"indices":2
				}
			]
		}
	],
	"accessors":[
		{
			"bufferView":0,
			"componentType":5126,
			"count":105323,
			"max":[
				125.69178771972656,
				134.65220642089844,
				191.36941528320312
			],
			"min":[
				-122.30821228027344,
				-82.34779357910156,
				-105.63058471679688
			],
			"type":"VEC3"
		},
		{
			"bufferView":1,
			"componentType":5126,
			"count":105323,
			"type":"VEC3"
		},
		{
			"bufferView":2,
			"componentType":5125,
			"count":256749,
			"type":"SCALAR"
		}
	],
	"bufferViews":[
		{
			"buffer":0,
			"byteLength":1263876,
			"byteOffset":0,
			"target":34962
		},
		{
			"buffer":0,
			"byteLength":1263876,
			"byteOffset":1263876,
			"target":34962
		},
		{
			"buffer":0,
			"byteLength":1026996,
			"byteOffset":2527752,
			"target":34963
		}
	],
	"buffers":[
		{
			"byteLength":3554748,
			"uri":"gabs.bin"
		}
	]
}
