{
	"asset":{
		"generator":"Khronos glTF Blender I/O v4.2.60",
		"version":"2.0"
	},
	"extensionsUsed":[
		"KHR_materials_specular"
	],
	"scene":0,
	"scenes":[
		{
			"name":"Scene",
			"nodes":[
				0
			]
		}
	],
	"nodes":[
		{
			"mesh":0,
			"name":"Sonic Screwdriver",
			"rotation":[
				0.7071068286895752,
				0,
				0,
				0.7071068286895752
			],
			"scale":[
				0.03522911295294762,
				0.03522911295294762,
				0.03522911295294762
			]
		}
	],
	"materials":[
		{
			"doubleSided":true,
			"extensions":{
				"KHR_materials_specular":{
					"specularColorFactor":[
						2.0,
						2.0,
						2.0
					]
				}
			},
			"name":"07___Default",
			"pbrMetallicRoughness":{
				"baseColorFactor":[
					0.37254899740219116,
					0.2901960015296936,
					0.08627499639987946,
					1
				],
				"metallicFactor":0,
				"roughnessFactor":0
			}
		},
		{
			"doubleSided":true,
			"extensions":{
				"KHR_materials_specular":{
					"specularColorFactor":[
						2.0,
						2.0,
						2.0
					]
				}
			},
			"name":"08___Default",
			"pbrMetallicRoughness":{
				"baseColorFactor":[
					0.800000011920929,
					0.9333329796791077,
					0.6901959776878357,
					1
				],
				"metallicFactor":0,
				"roughnessFactor":0
			}
		},
		{
			"doubleSided":true,
			"extensions":{
				"KHR_materials_specular":{
					"specularColorFactor":[
						2.0,
						2.0,
						2.0
					]
				}
			},
			"name":"03___Default",
			"pbrMetallicRoughness":{
				"baseColorFactor":[
					0.07000000029802322,
					0.07000000029802322,
					0.07000000029802322,
					1
				],
				"metallicFactor":0,
				"roughnessFactor":0
			}
		},
		{
			"doubleSided":true,
			"extensions":{
				"KHR_materials_specular":{
					"specularColorFactor":[
						2.0,
						2.0,
						2.0
					]
				}
			},
			"name":"69a172ba_dds",
			"pbrMetallicRoughness":{
				"baseColorFactor":[
					0.19607800245285034,
					1,
					0.8313729763031006,
					1
				],
				"metallicFactor":0,
				"roughnessFactor":0
			}
		},
		{
			"doubleSided":true,
			"extensions":{
				"KHR_materials_specular":{
					"specularColorFactor":[
						2.0,
						2.0,
						2.0
					]
				}
			},
			"name":"02___Default",
			"pbrMetallicRoughness":{
				"baseColorFactor":[
					0.6000000238418579,
					0.6000000238418579,
					0.6000000238418579,
					1
				],
				"metallicFactor":0,
				"roughnessFactor":0
			}
		}
	],
	"meshes":[
		{
			"name":"Sonic Screwdriver",
			"primitives":[
				{
					"attributes":{
						"POSITION":0,
						"NORMAL":1,
						"TEXCOORD_0":2
					},
					"indices":3,
					"material":0
				},
				{
					"attributes":{
						"POSITION":4,
						"NORMAL":5,
						"TEXCOORD_0":6
					},
					"indices":7,
					"material":1
				},
				{
					"attributes":{
						"POSITION":8,
						"NORMAL":9,
						"TEXCOORD_0":10
					},
					"indices":11,
					"material":2
				},
				{
					"attributes":{
						"POSITION":12,
						"NORMAL":13,
						"TEXCOORD_0":14
					},
					"indices":15,
					"material":3
				},
				{
					"attributes":{
						"POSITION":16,
						"NORMAL":17,
						"TEXCOORD_0":18
					},
					"indices":19,
					"material":4
				}
			]
		}
	],
	"accessors":[
		{
			"bufferView":0,
			"componentType":5126,
			"count":7980,
			"max":[
				3.234001398086548,
				20.84749984741211,
				3.7759971618652344
			],
			"min":[
				-3.234001398086548,
				-20.84749984741211,
				-3.7759974002838135
			],
			"type":"VEC3"
		},
		{
			"bufferView":1,
			"componentType":5126,
			"count":7980,
			"type":"VEC3"
		},
		{
			"bufferView":2,
			"componentType":5126,
			"count":7980,
			"type":"VEC2"
		},
		{
			"bufferView":3,
			"componentType":5123,
			"count":7998,
			"type":"SCALAR"
		},
		{
			"bufferView":4,
			"componentType":5126,
			"count":1140,
			"max":[
				3.234997034072876,
				12.864498138427734,
				3.406999349594116
			],
			"min":[
				-3.1389997005462646,
				2.8574986457824707,
				-2.950000524520874
			],
			"type":"VEC3"
		},
		{
			"bufferView":5,
			"componentType":5126,
			"count":1140,
			"type":"VEC3"
		},
		{
			"bufferView":6,
			"componentType":5126,
			"count":1140,
			"type":"VEC2"
		},
		{
			"bufferView":7,
			"componentType":5123,
			"count":1140,
			"type":"SCALAR"
		},
		{
			"bufferView":8,
			"componentType":5126,
			"count":1726,
			"max":[
				3.2519986629486084,
				2.7345004081726074,
				3.369999647140503
			],
			"min":[
				-3.3300020694732666,
				-5.1845011711120605,
				-3.5209991931915283
			],
			"type":"VEC3"
		},
		{
			"bufferView":9,
			"componentType":5126,
			"count":1726,
			"type":"VEC3"
		},
		{
			"bufferView":10,
			"componentType":5126,
			"count":1726,
			"type":"VEC2"
		},
		{
			"bufferView":11,
			"componentType":5123,
			"count":1728,
			"type":"SCALAR"
		},
		{
			"bufferView":12,
			"componentType":5126,
			"count":6606,
			"max":[
				1.8930010795593262,
				-8.296497344970703,
				1.5150011777877808
			],
			"min":[
				-2.17800235748291,
				-29.416500091552734,
				-3.403996229171753
			],
			"type":"VEC3"
		},
		{
			"bufferView":13,
			"componentType":5126,
			"count":6606,
			"type":"VEC3"
		},
		{
			"bufferView":14,
			"componentType":5126,
			"count":6606,
			"type":"VEC2"
		},
		{
			"bufferView":15,
			"componentType":5123,
			"count":6612,
			"type":"SCALAR"
		},
		{
			"bufferView":16,
			"componentType":5126,
			"count":7436,
			"max":[
				5.060000419616699,
				-7.917499542236328,
				3.811004400253296
			],
			"min":[
				-5.61400032043457,
				-27.671497344970703,
				-6.858996868133545
			],
			"type":"VEC3"
		},
		{
			"bufferView":17,
			"componentType":5126,
			"count":7436,
			"type":"VEC3"
		},
		{
			"bufferView":18,
			"componentType":5126,
			"count":7436,
			"type":"VEC2"
		},
		{
			"bufferView":19,
			"componentType":5123,
			"count":7476,
			"type":"SCALAR"
		}
	],
	"bufferViews":[
		{
			"buffer":0,
			"byteLength":95760,
			"byteOffset":0,
			"target":34962
		},
		{
			"buffer":0,
			"byteLength":95760,
			"byteOffset":95760,
			"target":34962
		},
		{
			"buffer":0,
			"byteLength":63840,
			"byteOffset":191520,
			"target":34962
		},
		{
			"buffer":0,
			"byteLength":15996,
			"byteOffset":255360,
			"target":34963
		},
		{
			"buffer":0,
			"byteLength":13680,
			"byteOffset":271356,
			"target":34962
		},
		{
			"buffer":0,
			"byteLength":13680,
			"byteOffset":285036,
			"target":34962
		},
		{
			"buffer":0,
			"byteLength":9120,
			"byteOffset":298716,
			"target":34962
		},
		{
			"buffer":0,
			"byteLength":2280,
			"byteOffset":307836,
			"target":34963
		},
		{
			"buffer":0,
			"byteLength":20712,
			"byteOffset":310116,
			"target":34962
		},
		{
			"buffer":0,
			"byteLength":20712,
			"byteOffset":330828,
			"target":34962
		},
		{
			"buffer":0,
			"byteLength":13808,
			"byteOffset":351540,
			"target":34962
		},
		{
			"buffer":0,
			"byteLength":3456,
			"byteOffset":365348,
			"target":34963
		},
		{
			"buffer":0,
			"byteLength":79272,
			"byteOffset":368804,
			"target":34962
		},
		{
			"buffer":0,
			"byteLength":79272,
			"byteOffset":448076,
			"target":34962
		},
		{
			"buffer":0,
			"byteLength":52848,
			"byteOffset":527348,
			"target":34962
		},
		{
			"buffer":0,
			"byteLength":13224,
			"byteOffset":580196,
			"target":34963
		},
		{
			"buffer":0,
			"byteLength":89232,
			"byteOffset":593420,
			"target":34962
		},
		{
			"buffer":0,
			"byteLength":89232,
			"byteOffset":682652,
			"target":34962
		},
		{
			"buffer":0,
			"byteLength":59488,
			"byteOffset":771884,
			"target":34962
		},
		{
			"buffer":0,
			"byteLength":14952,
			"byteOffset":831372,
			"target":34963
		}
	],
	"buffers":[
		{
			"byteLength":846324,
			"uri":"screwdriver.bin"
		}
	]
}
