{
	"asset":{
		"generator":"Khronos glTF Blender I/O v4.2.60",
		"version":"2.0"
	},
	"scene":0,
	"scenes":[
		{
			"name":"Scene",
			"nodes":[
				2
			]
		}
	],
	"nodes":[
		{
			"mesh":0,
			"name":"Object_7"
		},
		{
			"children":[
				0
			],
			"name":"skeleton2.obj.cleaner.materialmerger.gles"
		},
		{
			"children":[
				1
			],
			"name":"Sketchfab_model",
			"rotation":[
				-0.70710688829422,
				0,
				0,
				0.7071066498756409
			]
		}
	],
	"materials":[
		{
			"doubleSided":true,
			"name":"Sticks",
			"pbrMetallicRoughness":{
				"baseColorTexture":{
					"index":0
				},
				"metallicFactor":0,
				"roughnessFactor":0.6141387224197388
			}
		},
		{
			"doubleSided":true,
			"name":"SkeletonBody"
		},
		{
			"doubleSided":true,
			"name":"SkeletonSkull",
			"normalTexture":{
				"index":1
			},
			"pbrMetallicRoughness":{
				"baseColorTexture":{
					"index":2
				},
				"metallicFactor":0,
				"roughnessFactor":0.5
			}
		}
	],
	"meshes":[
		{
			"name":"Object_5",
			"primitives":[
				{
					"attributes":{
						"POSITION":0,
						"NORMAL":1,
						"TEXCOORD_0":2
					},
					"indices":3,
					"material":0
				},
				{
					"attributes":{
						"POSITION":4,
						"NORMAL":5,
						"TEXCOORD_0":6
					},
					"indices":7,
					"material":1
				},
				{
					"attributes":{
						"POSITION":8,
						"NORMAL":9,
						"TEXCOORD_0":10
					},
					"indices":11
				},
				{
					"attributes":{
						"POSITION":12,
						"NORMAL":13,
						"TEXCOORD_0":14
					},
					"indices":15,
					"material":2
				}
			]
		}
	],
	"textures":[
		{
			"sampler":0,
			"source":0
		},
		{
			"sampler":0,
			"source":1
		},
		{
			"sampler":0,
			"source":2
		}
	],
	"images":[
		{
			"mimeType":"image/png",
			"name":"Sticks_baseColor",
			"uri":"Sticks_baseColor.png"
		},
		{
			"mimeType":"image/png",
			"name":"SkeletonSkull_normal",
			"uri":"SkeletonSkull_normal.png"
		},
		{
			"mimeType":"image/jpeg",
			"name":"SkeletonSkull_baseColor",
			"uri":"SkeletonSkull_baseColor.jpg"
		}
	],
	"accessors":[
		{
			"bufferView":0,
			"componentType":5126,
			"count":1326,
			"max":[
				5.659511089324951,
				3.368791103363037,
				0.7559549808502197
			],
			"min":[
				-0.1670680046081543,
				-1.5637619495391846,
				-0.011858999729156494
			],
			"type":"VEC3"
		},
		{
			"bufferView":1,
			"componentType":5126,
			"count":1326,
			"type":"VEC3"
		},
		{
			"bufferView":2,
			"componentType":5126,
			"count":1326,
			"type":"VEC2"
		},
		{
			"bufferView":3,
			"componentType":5123,
			"count":4128,
			"type":"SCALAR"
		},
		{
			"bufferView":4,
			"componentType":5126,
			"count":8905,
			"max":[
				4.386713981628418,
				2.2534289360046387,
				1.4415160417556763
			],
			"min":[
				1.6834830045700073,
				0.21119099855422974,
				0.3228920102119446
			],
			"type":"VEC3"
		},
		{
			"bufferView":5,
			"componentType":5126,
			"count":8905,
			"type":"VEC3"
		},
		{
			"bufferView":6,
			"componentType":5126,
			"count":8905,
			"type":"VEC2"
		},
		{
			"bufferView":7,
			"componentType":5123,
			"count":39336,
			"type":"SCALAR"
		},
		{
			"bufferView":8,
			"componentType":5126,
			"count":4932,
			"max":[
				4.273387908935547,
				2.4512441158294678,
				1.1557530164718628
			],
			"min":[
				0.01869099959731102,
				-1.7866590023040771,
				-0.10099799931049347
			],
			"type":"VEC3"
		},
		{
			"bufferView":9,
			"componentType":5126,
			"count":4932,
			"type":"VEC3"
		},
		{
			"bufferView":10,
			"componentType":5126,
			"count":4932,
			"type":"VEC2"
		},
		{
			"bufferView":11,
			"componentType":5123,
			"count":22764,
			"type":"SCALAR"
		},
		{
			"bufferView":12,
			"componentType":5126,
			"count":5484,
			"max":[
				4.912416934967041,
				2.6593189239501953,
				1.3861769437789917
			],
			"min":[
				4.075061798095703,
				1.9054160118103027,
				0.46501800417900085
			],
			"type":"VEC3"
		},
		{
			"bufferView":13,
			"componentType":5126,
			"count":5484,
			"type":"VEC3"
		},
		{
			"bufferView":14,
			"componentType":5126,
			"count":5484,
			"type":"VEC2"
		},
		{
			"bufferView":15,
			"componentType":5123,
			"count":26880,
			"type":"SCALAR"
		}
	],
	"bufferViews":[
		{
			"buffer":0,
			"byteLength":15912,
			"byteOffset":0,
			"target":34962
		},
		{
			"buffer":0,
			"byteLength":15912,
			"byteOffset":15912,
			"target":34962
		},
		{
			"buffer":0,
			"byteLength":10608,
			"byteOffset":31824,
			"target":34962
		},
		{
			"buffer":0,
			"byteLength":8256,
			"byteOffset":42432,
			"target":34963
		},
		{
			"buffer":0,
			"byteLength":106860,
			"byteOffset":50688,
			"target":34962
		},
		{
			"buffer":0,
			"byteLength":106860,
			"byteOffset":157548,
			"target":34962
		},
		{
			"buffer":0,
			"byteLength":71240,
			"byteOffset":264408,
			"target":34962
		},
		{
			"buffer":0,
			"byteLength":78672,
			"byteOffset":335648,
			"target":34963
		},
		{
			"buffer":0,
			"byteLength":59184,
			"byteOffset":414320,
			"target":34962
		},
		{
			"buffer":0,
			"byteLength":59184,
			"byteOffset":473504,
			"target":34962
		},
		{
			"buffer":0,
			"byteLength":39456,
			"byteOffset":532688,
			"target":34962
		},
		{
			"buffer":0,
			"byteLength":45528,
			"byteOffset":572144,
			"target":34963
		},
		{
			"buffer":0,
			"byteLength":65808,
			"byteOffset":617672,
			"target":34962
		},
		{
			"buffer":0,
			"byteLength":65808,
			"byteOffset":683480,
			"target":34962
		},
		{
			"buffer":0,
			"byteLength":43872,
			"byteOffset":749288,
			"target":34962
		},
		{
			"buffer":0,
			"byteLength":53760,
			"byteOffset":793160,
			"target":34963
		}
	],
	"samplers":[
		{
			"magFilter":9729,
			"minFilter":9987
		}
	],
	"buffers":[
		{
			"byteLength":846920,
			"uri":"scene-separate.bin"
		}
	]
}
