{
	"asset":{
		"generator":"Khronos glTF Blender I/O v4.2.60",
		"version":"2.0"
	},
	"extensionsUsed":[
		"KHR_materials_specular"
	],
	"scene":0,
	"scenes":[
		{
			"name":"Scene",
			"nodes":[
				0
			]
		}
	],
	"nodes":[
		{
			"mesh":0,
			"name":"pCylinder11_q00558",
			"rotation":[
				0.7071068286895752,
				0,
				0,
				0.7071068286895752
			]
		}
	],
	"materials":[
		{
			"doubleSided":true,
			"extensions":{
				"KHR_materials_specular":{
					"specularFactor":0
				}
			},
			"name":"lambert6_v",
			"pbrMetallicRoughness":{
				"baseColorTexture":{
					"index":0
				},
				"metallicFactor":0,
				"roughnessFactor":0.5
			}
		},
		{
			"doubleSided":true,
			"extensions":{
				"KHR_materials_specular":{
					"specularFactor":0
				}
			},
			"name":"lambert16_v",
			"pbrMetallicRoughness":{
				"baseColorTexture":{
					"index":1
				},
				"metallicFactor":0,
				"roughnessFactor":0.5
			}
		},
		{
			"doubleSided":true,
			"extensions":{
				"KHR_materials_specular":{
					"specularFactor":0
				}
			},
			"name":"lambert2_v",
			"pbrMetallicRoughness":{
				"baseColorTexture":{
					"index":2
				},
				"metallicFactor":0,
				"roughnessFactor":0.5
			}
		},
		{
			"doubleSided":true,
			"extensions":{
				"KHR_materials_specular":{
					"specularFactor":0
				}
			},
			"name":"lambert5_v",
			"pbrMetallicRoughness":{
				"baseColorTexture":{
					"index":3
				},
				"metallicFactor":0,
				"roughnessFactor":0.5
			}
		}
	],
	"meshes":[
		{
			"name":"meshpCylinder11_q00558",
			"primitives":[
				{
					"attributes":{
						"POSITION":0,
						"NORMAL":1,
						"TEXCOORD_0":2,
						"TEXCOORD_1":3,
						"TEXCOORD_2":4,
						"TEXCOORD_3":5,
						"TEXCOORD_4":6,
						"TEXCOORD_5":7,
						"TEXCOORD_6":8,
						"TEXCOORD_7":9,
						"TEXCOORD_8":10,
						"TEXCOORD_9":11,
						"TEXCOORD_10":12,
						"TEXCOORD_11":13
					},
					"indices":14,
					"material":0
				},
				{
					"attributes":{
						"POSITION":15,
						"NORMAL":16,
						"TEXCOORD_0":17,
						"TEXCOORD_1":18,
						"TEXCOORD_2":19,
						"TEXCOORD_3":20,
						"TEXCOORD_4":21,
						"TEXCOORD_5":22,
						"TEXCOORD_6":23,
						"TEXCOORD_7":24,
						"TEXCOORD_8":25,
						"TEXCOORD_9":26,
						"TEXCOORD_10":27,
						"TEXCOORD_11":28
					},
					"indices":29,
					"material":1
				},
				{
					"attributes":{
						"POSITION":30,
						"NORMAL":31,
						"TEXCOORD_0":32,
						"TEXCOORD_1":33,
						"TEXCOORD_2":34,
						"TEXCOORD_3":35,
						"TEXCOORD_4":36,
						"TEXCOORD_5":37,
						"TEXCOORD_6":38,
						"TEXCOORD_7":39,
						"TEXCOORD_8":40,
						"TEXCOORD_9":41,
						"TEXCOORD_10":42,
						"TEXCOORD_11":43
					},
					"indices":44,
					"material":2
				},
				{
					"attributes":{
						"POSITION":45,
						"NORMAL":46,
						"TEXCOORD_0":47,
						"TEXCOORD_1":48,
						"TEXCOORD_2":49,
						"TEXCOORD_3":50,
						"TEXCOORD_4":51,
						"TEXCOORD_5":52,
						"TEXCOORD_6":53,
						"TEXCOORD_7":54,
						"TEXCOORD_8":55,
						"TEXCOORD_9":56,
						"TEXCOORD_10":57,
						"TEXCOORD_11":58
					},
					"indices":14,
					"material":3
				}
			]
		}
	],
	"textures":[
		{
			"sampler":0,
			"source":0
		},
		{
			"sampler":0,
			"source":1
		},
		{
			"sampler":0,
			"source":2
		},
		{
			"sampler":0,
			"source":3
		}
	],
	"images":[
		{
			"mimeType":"image/png",
			"name":"las_kabe_2_k",
			"uri":"las_kabe_2_k.png"
		},
		{
			"mimeType":"image/png",
			"name":"las_ten_2_k",
			"uri":"las_ten_2_k.png"
		},
		{
			"mimeType":"image/png",
			"name":"aji_2_k",
			"uri":"aji_2_k.png"
		},
		{
			"mimeType":"image/png",
			"name":"las_kazari_1",
			"uri":"las_kazari_1.png"
		}
	],
	"accessors":[
		{
			"bufferView":0,
			"componentType":5126,
			"count":240,
			"max":[
				1.22265625,
				1.2226568460464478,
				-1.9453125
			],
			"min":[
				-1.23046875,
				-1.2304681539535522,
				-4.4453125
			],
			"type":"VEC3"
		},
		{
			"bufferView":1,
			"componentType":5126,
			"count":240,
			"type":"VEC3"
		},
		{
			"bufferView":2,
			"componentType":5126,
			"count":240,
			"type":"VEC2"
		},
		{
			"bufferView":3,
			"componentType":5126,
			"count":240,
			"type":"VEC2"
		},
		{
			"bufferView":4,
			"componentType":5126,
			"count":240,
			"type":"VEC2"
		},
		{
			"bufferView":5,
			"componentType":5126,
			"count":240,
			"type":"VEC2"
		},
		{
			"bufferView":6,
			"componentType":5126,
			"count":240,
			"type":"VEC2"
		},
		{
			"bufferView":7,
			"componentType":5126,
			"count":240,
			"type":"VEC2"
		},
		{
			"bufferView":8,
			"componentType":5126,
			"count":240,
			"type":"VEC2"
		},
		{
			"bufferView":9,
			"componentType":5126,
			"count":240,
			"type":"VEC2"
		},
		{
			"bufferView":10,
			"componentType":5126,
			"count":240,
			"type":"VEC2"
		},
		{
			"bufferView":11,
			"componentType":5126,
			"count":240,
			"type":"VEC2"
		},
		{
			"bufferView":12,
			"componentType":5126,
			"count":240,
			"type":"VEC2"
		},
		{
			"bufferView":13,
			"componentType":5126,
			"count":240,
			"type":"VEC2"
		},
		{
			"bufferView":14,
			"componentType":5123,
			"count":360,
			"type":"SCALAR"
		},
		{
			"bufferView":15,
			"componentType":5126,
			"count":16,
			"max":[
				1.734375,
				1.648436188697815,
				-6.193086624145508
			],
			"min":[
				-1.734375,
				-1.648438811302185,
				-6.193086624145508
			],
			"type":"VEC3"
		},
		{
			"bufferView":16,
			"componentType":5126,
			"count":16,
			"type":"VEC3"
		},
		{
			"bufferView":17,
			"componentType":5126,
			"count":16,
			"type":"VEC2"
		},
		{
			"bufferView":18,
			"componentType":5126,
			"count":16,
			"type":"VEC2"
		},
		{
			"bufferView":19,
			"componentType":5126,
			"count":16,
			"type":"VEC2"
		},
		{
			"bufferView":20,
			"componentType":5126,
			"count":16,
			"type":"VEC2"
		},
		{
			"bufferView":21,
			"componentType":5126,
			"count":16,
			"type":"VEC2"
		},
		{
			"bufferView":22,
			"componentType":5126,
			"count":16,
			"type":"VEC2"
		},
		{
			"bufferView":23,
			"componentType":5126,
			"count":16,
			"type":"VEC2"
		},
		{
			"bufferView":24,
			"componentType":5126,
			"count":16,
			"type":"VEC2"
		},
		{
			"bufferView":25,
			"componentType":5126,
			"count":16,
			"type":"VEC2"
		},
		{
			"bufferView":26,
			"componentType":5126,
			"count":16,
			"type":"VEC2"
		},
		{
			"bufferView":27,
			"componentType":5126,
			"count":16,
			"type":"VEC2"
		},
		{
			"bufferView":28,
			"componentType":5126,
			"count":16,
			"type":"VEC2"
		},
		{
			"bufferView":29,
			"componentType":5123,
			"count":24,
			"type":"SCALAR"
		},
		{
			"bufferView":30,
			"componentType":5126,
			"count":198,
			"max":[
				1.734375,
				1.6484380960464478,
				-0.943087100982666
			],
			"min":[
				-1.734375,
				-1.648438811302185,
				-5.443086624145508
			],
			"type":"VEC3"
		},
		{
			"bufferView":31,
			"componentType":5126,
			"count":198,
			"type":"VEC3"
		},
		{
			"bufferView":32,
			"componentType":5126,
			"count":198,
			"type":"VEC2"
		},
		{
			"bufferView":33,
			"componentType":5126,
			"count":198,
			"type":"VEC2"
		},
		{
			"bufferView":34,
			"componentType":5126,
			"count":198,
			"type":"VEC2"
		},
		{
			"bufferView":35,
			"componentType":5126,
			"count":198,
			"type":"VEC2"
		},
		{
			"bufferView":36,
			"componentType":5126,
			"count":198,
			"type":"VEC2"
		},
		{
			"bufferView":37,
			"componentType":5126,
			"count":198,
			"type":"VEC2"
		},
		{
			"bufferView":38,
			"componentType":5126,
			"count":198,
			"type":"VEC2"
		},
		{
			"bufferView":39,
			"componentType":5126,
			"count":198,
			"type":"VEC2"
		},
		{
			"bufferView":40,
			"componentType":5126,
			"count":198,
			"type":"VEC2"
		},
		{
			"bufferView":41,
			"componentType":5126,
			"count":198,
			"type":"VEC2"
		},
		{
			"bufferView":42,
			"componentType":5126,
			"count":198,
			"type":"VEC2"
		},
		{
			"bufferView":43,
			"componentType":5126,
			"count":198,
			"type":"VEC2"
		},
		{
			"bufferView":44,
			"componentType":5123,
			"count":300,
			"type":"SCALAR"
		},
		{
			"bufferView":45,
			"componentType":5126,
			"count":240,
			"max":[
				1.734375,
				1.6484380960464478,
				-0.19699335098266602
			],
			"min":[
				-1.734375,
				-1.648438811302185,
				-6.193086624145508
			],
			"type":"VEC3"
		},
		{
			"bufferView":46,
			"componentType":5126,
			"count":240,
			"type":"VEC3"
		},
		{
			"bufferView":47,
			"componentType":5126,
			"count":240,
			"type":"VEC2"
		},
		{
			"bufferView":48,
			"componentType":5126,
			"count":240,
			"type":"VEC2"
		},
		{
			"bufferView":49,
			"componentType":5126,
			"count":240,
			"type":"VEC2"
		},
		{
			"bufferView":50,
			"componentType":5126,
			"count":240,
			"type":"VEC2"
		},
		{
			"bufferView":51,
			"componentType":5126,
			"count":240,
			"type":"VEC2"
		},
		{
			"bufferView":52,
			"componentType":5126,
			"count":240,
			"type":"VEC2"
		},
		{
			"bufferView":53,
			"componentType":5126,
			"count":240,
			"type":"VEC2"
		},
		{
			"bufferView":54,
			"componentType":5126,
			"count":240,
			"type":"VEC2"
		},
		{
			"bufferView":55,
			"componentType":5126,
			"count":240,
			"type":"VEC2"
		},
		{
			"bufferView":56,
			"componentType":5126,
			"count":240,
			"type":"VEC2"
		},
		{
			"bufferView":57,
			"componentType":5126,
			"count":240,
			"type":"VEC2"
		},
		{
			"bufferView":58,
			"componentType":5126,
			"count":240,
			"type":"VEC2"
		}
	],
	"bufferViews":[
		{
			"buffer":0,
			"byteLength":2880,
			"byteOffset":0,
			"target":34962
		},
		{
			"buffer":0,
			"byteLength":2880,
			"byteOffset":2880,
			"target":34962
		},
		{
			"buffer":0,
			"byteLength":1920,
			"byteOffset":5760,
			"target":34962
		},
		{
			"buffer":0,
			"byteLength":1920,
			"byteOffset":7680,
			"target":34962
		},
		{
			"buffer":0,
			"byteLength":1920,
			"byteOffset":9600,
			"target":34962
		},
		{
			"buffer":0,
			"byteLength":1920,
			"byteOffset":11520,
			"target":34962
		},
		{
			"buffer":0,
			"byteLength":1920,
			"byteOffset":13440,
			"target":34962
		},
		{
			"buffer":0,
			"byteLength":1920,
			"byteOffset":15360,
			"target":34962
		},
		{
			"buffer":0,
			"byteLength":1920,
			"byteOffset":17280,
			"target":34962
		},
		{
			"buffer":0,
			"byteLength":1920,
			"byteOffset":19200,
			"target":34962
		},
		{
			"buffer":0,
			"byteLength":1920,
			"byteOffset":21120,
			"target":34962
		},
		{
			"buffer":0,
			"byteLength":1920,
			"byteOffset":23040,
			"target":34962
		},
		{
			"buffer":0,
			"byteLength":1920,
			"byteOffset":24960,
			"target":34962
		},
		{
			"buffer":0,
			"byteLength":1920,
			"byteOffset":26880,
			"target":34962
		},
		{
			"buffer":0,
			"byteLength":720,
			"byteOffset":28800,
			"target":34963
		},
		{
			"buffer":0,
			"byteLength":192,
			"byteOffset":29520,
			"target":34962
		},
		{
			"buffer":0,
			"byteLength":192,
			"byteOffset":29712,
			"target":34962
		},
		{
			"buffer":0,
			"byteLength":128,
			"byteOffset":29904,
			"target":34962
		},
		{
			"buffer":0,
			"byteLength":128,
			"byteOffset":30032,
			"target":34962
		},
		{
			"buffer":0,
			"byteLength":128,
			"byteOffset":30160,
			"target":34962
		},
		{
			"buffer":0,
			"byteLength":128,
			"byteOffset":30288,
			"target":34962
		},
		{
			"buffer":0,
			"byteLength":128,
			"byteOffset":30416,
			"target":34962
		},
		{
			"buffer":0,
			"byteLength":128,
			"byteOffset":30544,
			"target":34962
		},
		{
			"buffer":0,
			"byteLength":128,
			"byteOffset":30672,
			"target":34962
		},
		{
			"buffer":0,
			"byteLength":128,
			"byteOffset":30800,
			"target":34962
		},
		{
			"buffer":0,
			"byteLength":128,
			"byteOffset":30928,
			"target":34962
		},
		{
			"buffer":0,
			"byteLength":128,
			"byteOffset":31056,
			"target":34962
		},
		{
			"buffer":0,
			"byteLength":128,
			"byteOffset":31184,
			"target":34962
		},
		{
			"buffer":0,
			"byteLength":128,
			"byteOffset":31312,
			"target":34962
		},
		{
			"buffer":0,
			"byteLength":48,
			"byteOffset":31440,
			"target":34963
		},
		{
			"buffer":0,
			"byteLength":2376,
			"byteOffset":31488,
			"target":34962
		},
		{
			"buffer":0,
			"byteLength":2376,
			"byteOffset":33864,
			"target":34962
		},
		{
			"buffer":0,
			"byteLength":1584,
			"byteOffset":36240,
			"target":34962
		},
		{
			"buffer":0,
			"byteLength":1584,
			"byteOffset":37824,
			"target":34962
		},
		{
			"buffer":0,
			"byteLength":1584,
			"byteOffset":39408,
			"target":34962
		},
		{
			"buffer":0,
			"byteLength":1584,
			"byteOffset":40992,
			"target":34962
		},
		{
			"buffer":0,
			"byteLength":1584,
			"byteOffset":42576,
			"target":34962
		},
		{
			"buffer":0,
			"byteLength":1584,
			"byteOffset":44160,
			"target":34962
		},
		{
			"buffer":0,
			"byteLength":1584,
			"byteOffset":45744,
			"target":34962
		},
		{
			"buffer":0,
			"byteLength":1584,
			"byteOffset":47328,
			"target":34962
		},
		{
			"buffer":0,
			"byteLength":1584,
			"byteOffset":48912,
			"target":34962
		},
		{
			"buffer":0,
			"byteLength":1584,
			"byteOffset":50496,
			"target":34962
		},
		{
			"buffer":0,
			"byteLength":1584,
			"byteOffset":52080,
			"target":34962
		},
		{
			"buffer":0,
			"byteLength":1584,
			"byteOffset":53664,
			"target":34962
		},
		{
			"buffer":0,
			"byteLength":600,
			"byteOffset":55248,
			"target":34963
		},
		{
			"buffer":0,
			"byteLength":2880,
			"byteOffset":55848,
			"target":34962
		},
		{
			"buffer":0,
			"byteLength":2880,
			"byteOffset":58728,
			"target":34962
		},
		{
			"buffer":0,
			"byteLength":1920,
			"byteOffset":61608,
			"target":34962
		},
		{
			"buffer":0,
			"byteLength":1920,
			"byteOffset":63528,
			"target":34962
		},
		{
			"buffer":0,
			"byteLength":1920,
			"byteOffset":65448,
			"target":34962
		},
		{
			"buffer":0,
			"byteLength":1920,
			"byteOffset":67368,
			"target":34962
		},
		{
			"buffer":0,
			"byteLength":1920,
			"byteOffset":69288,
			"target":34962
		},
		{
			"buffer":0,
			"byteLength":1920,
			"byteOffset":71208,
			"target":34962
		},
		{
			"buffer":0,
			"byteLength":1920,
			"byteOffset":73128,
			"target":34962
		},
		{
			"buffer":0,
			"byteLength":1920,
			"byteOffset":75048,
			"target":34962
		},
		{
			"buffer":0,
			"byteLength":1920,
			"byteOffset":76968,
			"target":34962
		},
		{
			"buffer":0,
			"byteLength":1920,
			"byteOffset":78888,
			"target":34962
		},
		{
			"buffer":0,
			"byteLength":1920,
			"byteOffset":80808,
			"target":34962
		},
		{
			"buffer":0,
			"byteLength":1920,
			"byteOffset":82728,
			"target":34962
		}
	],
	"samplers":[
		{
			"magFilter":9729,
			"minFilter":9987
		}
	],
	"buffers":[
		{
			"byteLength":84648,
			"uri":"torrecita2.bin"
		}
	]
}
