{
	"asset":{
		"generator":"Khronos glTF Blender I/O v4.2.60",
		"version":"2.0"
	},
	"extensionsUsed":[
		"KHR_materials_transmission",
		"KHR_materials_specular"
	],
	"scene":0,
	"scenes":[
		{
			"name":"Scene",
			"nodes":[
				0
			]
		}
	],
	"nodes":[
		{
			"mesh":0,
			"name":"FP Brute Plasma Rifle",
			"rotation":[
				0.7071068286895752,
				0,
				0,
				0.7071068286895752
			],
			"scale":[
				0.06546032428741455,
				0.06546032428741455,
				0.06546032428741455
			]
		}
	],
	"materials":[
		{
			"doubleSided":true,
			"extensions":{
				"KHR_materials_transmission":{
					"transmissionFactor":1
				},
				"KHR_materials_specular":{
					"specularFactor":0.699999988079071
				}
			},
			"name":"wire_204204204",
			"pbrMetallicRoughness":{
				"baseColorFactor":[
					0.800000011920929,
					0.800000011920929,
					0.800000011920929,
					1
				],
				"metallicFactor":0,
				"roughnessFactor":0.8211145401000977
			}
		},
		{
			"doubleSided":true,
			"extensions":{
				"KHR_materials_transmission":{
					"transmissionFactor":1
				},
				"KHR_materials_specular":{
					"specularFactor":0
				}
			},
			"name":"Material__0",
			"pbrMetallicRoughness":{
				"baseColorTexture":{
					"index":0
				},
				"metallicFactor":0,
				"roughnessFactor":0.8999999761581421
			}
		}
	],
	"meshes":[
		{
			"name":"FP Brute Plasma Rifle",
			"primitives":[
				{
					"attributes":{
						"POSITION":0,
						"NORMAL":1,
						"TEXCOORD_0":2
					},
					"indices":3,
					"material":0
				},
				{
					"attributes":{
						"POSITION":4,
						"NORMAL":5,
						"TEXCOORD_0":6
					},
					"indices":7,
					"material":1
				}
			]
		}
	],
	"textures":[
		{
			"sampler":0,
			"source":0
		}
	],
	"images":[
		{
			"mimeType":"image/png",
			"name":"plasma_rifle_red",
			"uri":"plasma_rifle_red.png"
		}
	],
	"accessors":[
		{
			"bufferView":0,
			"componentType":5126,
			"count":5618,
			"max":[
				15.269599914550781,
				1,
				6.774899959564209
			],
			"min":[
				-1.9526000022888184,
				-1.7071000337600708,
				-4.213099956512451
			],
			"type":"VEC3"
		},
		{
			"bufferView":1,
			"componentType":5126,
			"count":5618,
			"type":"VEC3"
		},
		{
			"bufferView":2,
			"componentType":5126,
			"count":5618,
			"type":"VEC2"
		},
		{
			"bufferView":3,
			"componentType":5123,
			"count":6048,
			"type":"SCALAR"
		},
		{
			"bufferView":4,
			"componentType":5126,
			"count":2708,
			"max":[
				9.683199882507324,
				3.103600025177002,
				6.756400108337402
			],
			"min":[
				-11.836999893188477,
				-3.0966999530792236,
				-5.5370001792907715
			],
			"type":"VEC3"
		},
		{
			"bufferView":5,
			"componentType":5126,
			"count":2708,
			"type":"VEC3"
		},
		{
			"bufferView":6,
			"componentType":5126,
			"count":2708,
			"type":"VEC2"
		},
		{
			"bufferView":7,
			"componentType":5123,
			"count":7143,
			"type":"SCALAR"
		}
	],
	"bufferViews":[
		{
			"buffer":0,
			"byteLength":67416,
			"byteOffset":0,
			"target":34962
		},
		{
			"buffer":0,
			"byteLength":67416,
			"byteOffset":67416,
			"target":34962
		},
		{
			"buffer":0,
			"byteLength":44944,
			"byteOffset":134832,
			"target":34962
		},
		{
			"buffer":0,
			"byteLength":12096,
			"byteOffset":179776,
			"target":34963
		},
		{
			"buffer":0,
			"byteLength":32496,
			"byteOffset":191872,
			"target":34962
		},
		{
			"buffer":0,
			"byteLength":32496,
			"byteOffset":224368,
			"target":34962
		},
		{
			"buffer":0,
			"byteLength":21664,
			"byteOffset":256864,
			"target":34962
		},
		{
			"buffer":0,
			"byteLength":14286,
			"byteOffset":278528,
			"target":34963
		}
	],
	"samplers":[
		{
			"magFilter":9729,
			"minFilter":9987
		}
	],
	"buffers":[
		{
			"byteLength":292816,
			"uri":"bplasmarifle.bin"
		}
	]
}
