{
	"asset":{
		"generator":"Khronos glTF Blender I/O v4.2.60",
		"version":"2.0"
	},
	"extensionsUsed":[
		"KHR_materials_specular",
		"KHR_materials_ior"
	],
	"scene":0,
	"scenes":[
		{
			"name":"Scene",
			"nodes":[
				49
			]
		}
	],
	"nodes":[
		{
			"name":"Left_Toe",
			"translation":[
				0.03343087434768677,
				-0.14041101932525635,
				0.6132405996322632
			]
		},
		{
			"children":[
				0
			],
			"name":"Left_Ankle",
			"translation":[
				0.03343099355697632,
				-0.576440155506134,
				-7.811067348484357e-10
			]
		},
		{
			"children":[
				1
			],
			"name":"Left_Knee",
			"translation":[
				0.06686300039291382,
				-0.28269389271736145,
				0.5290043950080872
			]
		},
		{
			"children":[
				2
			],
			"name":"Left_Hip",
			"translation":[
				0.40374600887298584,
				-0.2858101725578308,
				0.1640549600124359
			]
		},
		{
			"name":"Right_Toe",
			"translation":[
				0,
				-0.12832701206207275,
				0.46068811416625977
			]
		},
		{
			"children":[
				4
			],
			"name":"Right_Ankle",
			"translation":[
				-0.05238097906112671,
				-0.48136818408966064,
				-0.4754491448402405
			]
		},
		{
			"children":[
				5
			],
			"name":"Right_Knee",
			"translation":[
				-0.00520700216293335,
				-0.39291587471961975,
				0.28073200583457947
			]
		},
		{
			"children":[
				6
			],
			"name":"Right_Hip",
			"translation":[
				-0.43950900435447693,
				-0.2608101963996887,
				0.1640550196170807
			]
		},
		{
			"name":"Tail_Tip",
			"translation":[
				0,
				-0.28625601530075073,
				0.30021989345550537
			]
		},
		{
			"children":[
				8
			],
			"name":"Tail_Mid",
			"translation":[
				0,
				-0.45381590723991394,
				0.02094009332358837
			]
		},
		{
			"children":[
				9
			],
			"name":"Tail_Base",
			"translation":[
				0,
				-0.22723011672496796,
				-0.650439977645874
			]
		},
		{
			"name":"Left_Fingertip_01",
			"rotation":[
				7.105427357601002e-15,
				0,
				0,
				1
			],
			"translation":[
				-0.6042308211326599,
				0.013509140349924564,
				5.03978583310527e-08
			]
		},
		{
			"children":[
				11
			],
			"name":"Left_Knuckle_01",
			"rotation":[
				7.105427357601002e-15,
				0,
				0,
				1
			],
			"translation":[
				0,
				0.020941004157066345,
				0.5204501748085022
			]
		},
		{
			"children":[
				12
			],
			"name":"Left_Finger_01",
			"scale":[
				1,
				0.9999999403953552,
				1
			],
			"translation":[
				0.12185990810394287,
				0.13265998661518097,
				0.6776628494262695
			]
		},
		{
			"name":"Left_Fingertip_02",
			"translation":[
				-0.6042309403419495,
				0.010829897597432137,
				-0.049389954656362534
			]
		},
		{
			"children":[
				14
			],
			"name":"Left_Knuckle_02",
			"rotation":[
				7.105427357601002e-15,
				0,
				0,
				1
			],
			"translation":[
				0,
				1.0512667358852923e-07,
				0.5203198194503784
			]
		},
		{
			"children":[
				15
			],
			"name":"Left_Finger_02",
			"scale":[
				1,
				0.9999999403953552,
				1
			],
			"translation":[
				0.12185990810394287,
				-0.10473005473613739,
				0.6776629090309143
			]
		},
		{
			"name":"Left_Thumbtip",
			"rotation":[
				7.105427357601002e-15,
				0,
				0,
				1
			],
			"translation":[
				-0.3791840076446533,
				0.05172014236450195,
				0.10499987006187439
			]
		},
		{
			"children":[
				17
			],
			"name":"Left_Thumb",
			"scale":[
				1,
				0.9999999403953552,
				1
			],
			"translation":[
				0,
				0.38853105902671814,
				0.2929930090904236
			]
		},
		{
			"children":[
				13,
				16,
				18
			],
			"name":"Left_Wrist",
			"translation":[
				0.10600090026855469,
				-0.17454993724822998,
				1.1201900243759155
			]
		},
		{
			"children":[
				19
			],
			"name":"Left_Elbow",
			"scale":[
				1,
				0.9999999403953552,
				1
			],
			"translation":[
				0.1882041096687317,
				-1.0650699138641357,
				-0.2524794936180115
			]
		},
		{
			"children":[
				20
			],
			"name":"Left_Shoulder",
			"translation":[
				0.8096305727958679,
				-0.21430015563964844,
				0.3630554974079132
			]
		},
		{
			"name":"Rancor_Jaw",
			"translation":[
				-0.0013455788139253855,
				0.0013299109414219856,
				0.002524790121242404
			]
		},
		{
			"children":[
				22
			],
			"name":"group1",
			"translation":[
				0,
				1.1429449386923807e-08,
				-2.698186563065974e-09
			]
		},
		{
			"children":[
				23
			],
			"name":"Jaw",
			"translation":[
				0,
				-0.4300198554992676,
				0.5684901475906372
			]
		},
		{
			"name":"Nose",
			"translation":[
				0,
				-0.05391005054116249,
				1.2514230012893677
			]
		},
		{
			"children":[
				24,
				25
			],
			"name":"Neck",
			"translation":[
				0,
				-0.24606004357337952,
				0.6830859184265137
			]
		},
		{
			"name":"Right_Fingertip_01",
			"rotation":[
				7.105427357601002e-15,
				0,
				0,
				1
			],
			"translation":[
				0.6042278409004211,
				0.01350104808807373,
				5.6288456562469946e-08
			]
		},
		{
			"children":[
				27
			],
			"name":"Right_Knuckle_01",
			"rotation":[
				7.105427357601002e-15,
				0,
				0,
				1
			],
			"translation":[
				0,
				0.020949959754943848,
				0.5204600691795349
			]
		},
		{
			"children":[
				28
			],
			"name":"Right_Finger_01",
			"scale":[
				1,
				0.9999999403953552,
				1
			],
			"translation":[
				-0.12185001373291016,
				0.1326499879360199,
				0.6776628494262695
			]
		},
		{
			"name":"Right_Fingertip_02",
			"translation":[
				0.6042279601097107,
				0.01082895789295435,
				-0.04939018562436104
			]
		},
		{
			"children":[
				30
			],
			"name":"Right_Knuckle_02",
			"rotation":[
				7.105427357601002e-15,
				0,
				0,
				1
			],
			"translation":[
				0,
				1.1941659749936662e-07,
				0.5203299522399902
			]
		},
		{
			"children":[
				31
			],
			"name":"Right_Finger_02",
			"scale":[
				1,
				0.9999999403953552,
				1
			],
			"translation":[
				-0.12185001373291016,
				-0.10472908616065979,
				0.6776629090309143
			]
		},
		{
			"name":"Right_Thumbtip",
			"rotation":[
				7.105427357601002e-15,
				0,
				0,
				1
			],
			"translation":[
				0.37919092178344727,
				0.05171012133359909,
				0.0739499107003212
			]
		},
		{
			"children":[
				33
			],
			"name":"Right_Thumb",
			"scale":[
				1,
				0.9999999403953552,
				1
			],
			"translation":[
				0,
				0.39549097418785095,
				0.24551300704479218
			]
		},
		{
			"name":"Rancor_Chain",
			"translation":[
				-0.2280900478363037,
				0.01632002182304859,
				0.04497895762324333
			]
		},
		{
			"children":[
				29,
				32,
				34,
				35
			],
			"name":"Right_Wrist",
			"translation":[
				-0.10599994659423828,
				-0.24221991002559662,
				1.1708300113677979
			]
		},
		{
			"children":[
				36
			],
			"name":"Right_Elbow",
			"scale":[
				1,
				0.9999999403953552,
				1
			],
			"translation":[
				-0.18821299076080322,
				-1.01826012134552,
				-0.252479612827301
			]
		},
		{
			"children":[
				37
			],
			"name":"Right_Shoulder",
			"translation":[
				-0.8255014419555664,
				-0.2143099308013916,
				0.36305561661720276
			]
		},
		{
			"children":[
				21,
				26,
				38
			],
			"name":"Top_Spine",
			"translation":[
				0,
				0.7041100263595581,
				-1.4626778011006536e-08
			]
		},
		{
			"children":[
				39
			],
			"name":"Mid_Spine",
			"translation":[
				0,
				0.5523598194122314,
				0.2513459622859955
			]
		},
		{
			"children":[
				40
			],
			"name":"Waist",
			"translation":[
				0.002044438850134611,
				0.1168399527668953,
				0.13265500962734222
			]
		},
		{
			"children":[
				3,
				7,
				10,
				41
			],
			"name":"Root",
			"scale":[
				1,
				0.9999999403953552,
				1
			],
			"translation":[
				0,
				1.4250000715255737,
				-0.75
			]
		},
		{
			"name":"Blob",
			"translation":[
				0,
				3.982925100842749e-15,
				0
			]
		},
		{
			"children":[
				43
			],
			"name":"ShadowStatic",
			"translation":[
				0,
				0.04999994859099388,
				0
			]
		},
		{
			"children":[
				42,
				44
			],
			"name":"Rancor",
			"rotation":[
				-0.7071067690849304,
				0,
				0,
				0.7071067690849304
			]
		},
		{
			"mesh":0,
			"name":"Rancor_Body",
			"skin":0
		},
		{
			"mesh":1,
			"name":"Rancor_Chain",
			"skin":0
		},
		{
			"mesh":2,
			"name":"Rancor_Jaw",
			"skin":0
		},
		{
			"children":[
				46,
				47,
				48,
				45
			],
			"name":"Armature",
			"rotation":[
				0.70710688829422,
				0,
				0,
				0.7071066498756409
			]
		}
	],
	"materials":[
		{
			"doubleSided":true,
			"extensions":{
				"KHR_materials_specular":{
					"specularFactor":0
				},
				"KHR_materials_ior":{
					"ior":1.5499999523162842
				}
			},
			"name":"LEGSWYC_MiniFigs_Rancor_DM_DD",
			"pbrMetallicRoughness":{
				"baseColorTexture":{
					"index":0
				},
				"metallicFactor":0,
				"roughnessFactor":0.5
			}
		}
	],
	"meshes":[
		{
			"name":"Rancor_Body",
			"primitives":[
				{
					"attributes":{
						"POSITION":0,
						"NORMAL":1,
						"TEXCOORD_0":2,
						"JOINTS_0":3,
						"WEIGHTS_0":4
					},
					"indices":5,
					"material":0
				}
			]
		},
		{
			"name":"Rancor_Chain",
			"primitives":[
				{
					"attributes":{
						"POSITION":7,
						"NORMAL":8,
						"TEXCOORD_0":9,
						"JOINTS_0":10,
						"WEIGHTS_0":11
					},
					"indices":12,
					"material":0
				}
			]
		},
		{
			"name":"Rancor_Jaw",
			"primitives":[
				{
					"attributes":{
						"POSITION":13,
						"NORMAL":14,
						"TEXCOORD_0":15,
						"JOINTS_0":16,
						"WEIGHTS_0":17
					},
					"indices":18,
					"material":0
				}
			]
		}
	],
	"textures":[
		{
			"sampler":0,
			"source":0
		}
	],
	"images":[
		{
			"mimeType":"image/png",
			"name":"LEGSWYC_MiniFigs_Rancor_DM_DD",
			"uri":"LEGSWYC_MiniFigs_Rancor_DM_DD.png"
		}
	],
	"skins":[
		{
			"inverseBindMatrices":6,
			"joints":[
				45,
				42,
				3,
				2,
				1,
				0,
				7,
				6,
				5,
				4,
				10,
				9,
				8,
				41,
				40,
				39,
				21,
				20,
				19,
				13,
				12,
				11,
				16,
				15,
				14,
				18,
				17,
				26,
				24,
				23,
				22,
				25,
				38,
				37,
				36,
				29,
				28,
				27,
				32,
				31,
				30,
				34,
				33,
				35,
				44,
				43
			],
			"name":"Armature"
		}
	],
	"accessors":[
		{
			"bufferView":0,
			"componentType":5126,
			"count":6986,
			"max":[
				1.3730599880218506,
				3.4646098613739014,
				2.2041103839874268
			],
			"min":[
				-1.386099934577942,
				0.03257693350315094,
				-1.6118496656417847
			],
			"type":"VEC3"
		},
		{
			"bufferView":1,
			"componentType":5126,
			"count":6986,
			"type":"VEC3"
		},
		{
			"bufferView":2,
			"componentType":5126,
			"count":6986,
			"type":"VEC2"
		},
		{
			"bufferView":3,
			"componentType":5121,
			"count":6986,
			"type":"VEC4"
		},
		{
			"bufferView":4,
			"componentType":5126,
			"count":6986,
			"type":"VEC4"
		},
		{
			"bufferView":5,
			"componentType":5123,
			"count":16611,
			"type":"SCALAR"
		},
		{
			"bufferView":6,
			"componentType":5126,
			"count":46,
			"type":"MAT4"
		},
		{
			"bufferView":7,
			"componentType":5126,
			"count":318,
			"max":[
				-1.3463399410247803,
				1.4556397199630737,
				1.0200303792953491
			],
			"min":[
				-1.5068199634552002,
				1.0628197193145752,
				0.8174453377723694
			],
			"type":"VEC3"
		},
		{
			"bufferView":8,
			"componentType":5126,
			"count":318,
			"type":"VEC3"
		},
		{
			"bufferView":9,
			"componentType":5126,
			"count":318,
			"type":"VEC2"
		},
		{
			"bufferView":10,
			"componentType":5121,
			"count":318,
			"type":"VEC4"
		},
		{
			"bufferView":11,
			"componentType":5126,
			"count":318,
			"type":"VEC4"
		},
		{
			"bufferView":12,
			"componentType":5123,
			"count":696,
			"type":"SCALAR"
		},
		{
			"bufferView":13,
			"componentType":5126,
			"count":807,
			"max":[
				0.6332250237464905,
				2.3015296459198,
				1.587870478630066
			],
			"min":[
				-0.6318280100822449,
				1.5047695636749268,
				0.29474446177482605
			],
			"type":"VEC3"
		},
		{
			"bufferView":14,
			"componentType":5126,
			"count":807,
			"type":"VEC3"
		},
		{
			"bufferView":15,
			"componentType":5126,
			"count":807,
			"type":"VEC2"
		},
		{
			"bufferView":16,
			"componentType":5121,
			"count":807,
			"type":"VEC4"
		},
		{
			"bufferView":17,
			"componentType":5126,
			"count":807,
			"type":"VEC4"
		},
		{
			"bufferView":18,
			"componentType":5123,
			"count":1920,
			"type":"SCALAR"
		}
	],
	"bufferViews":[
		{
			"buffer":0,
			"byteLength":83832,
			"byteOffset":0,
			"target":34962
		},
		{
			"buffer":0,
			"byteLength":83832,
			"byteOffset":83832,
			"target":34962
		},
		{
			"buffer":0,
			"byteLength":55888,
			"byteOffset":167664,
			"target":34962
		},
		{
			"buffer":0,
			"byteLength":27944,
			"byteOffset":223552,
			"target":34962
		},
		{
			"buffer":0,
			"byteLength":111776,
			"byteOffset":251496,
			"target":34962
		},
		{
			"buffer":0,
			"byteLength":33222,
			"byteOffset":363272,
			"target":34963
		},
		{
			"buffer":0,
			"byteLength":2944,
			"byteOffset":396496
		},
		{
			"buffer":0,
			"byteLength":3816,
			"byteOffset":399440,
			"target":34962
		},
		{
			"buffer":0,
			"byteLength":3816,
			"byteOffset":403256,
			"target":34962
		},
		{
			"buffer":0,
			"byteLength":2544,
			"byteOffset":407072,
			"target":34962
		},
		{
			"buffer":0,
			"byteLength":1272,
			"byteOffset":409616,
			"target":34962
		},
		{
			"buffer":0,
			"byteLength":5088,
			"byteOffset":410888,
			"target":34962
		},
		{
			"buffer":0,
			"byteLength":1392,
			"byteOffset":415976,
			"target":34963
		},
		{
			"buffer":0,
			"byteLength":9684,
			"byteOffset":417368,
			"target":34962
		},
		{
			"buffer":0,
			"byteLength":9684,
			"byteOffset":427052,
			"target":34962
		},
		{
			"buffer":0,
			"byteLength":6456,
			"byteOffset":436736,
			"target":34962
		},
		{
			"buffer":0,
			"byteLength":3228,
			"byteOffset":443192,
			"target":34962
		},
		{
			"buffer":0,
			"byteLength":12912,
			"byteOffset":446420,
			"target":34962
		},
		{
			"buffer":0,
			"byteLength":3840,
			"byteOffset":459332,
			"target":34963
		}
	],
	"samplers":[
		{
			"magFilter":9729,
			"minFilter":9987
		}
	],
	"buffers":[
		{
			"byteLength":463172,
			"uri":"rancor.bin"
		}
	]
}
