{
	"asset":{
		"generator":"Khronos glTF Blender I/O v4.2.60",
		"version":"2.0"
	},
	"extensionsUsed":[
		"KHR_materials_specular"
	],
	"scene":0,
	"scenes":[
		{
			"name":"Scene",
			"nodes":[
				0
			]
		}
	],
	"nodes":[
		{
			"mesh":0,
			"name":"Energy Sword",
			"rotation":[
				0.7071068286895752,
				0,
				0,
				0.7071068286895752
			],
			"scale":[
				0.05323606729507446,
				0.05323606729507446,
				0.05323606729507446
			]
		}
	],
	"materials":[
		{
			"doubleSided":true,
			"extensions":{
				"KHR_materials_specular":{
					"specularColorFactor":[
						1.7999998331069946,
						1.7999998331069946,
						1.7999998331069946
					]
				}
			},
			"name":"es_handle",
			"pbrMetallicRoughness":{
				"baseColorFactor":[
					0.6000000238418579,
					0.6000000238418579,
					0.6000000238418579,
					1
				],
				"metallicFactor":0
			}
		},
		{
			"doubleSided":true,
			"extensions":{
				"KHR_materials_specular":{
					"specularColorFactor":[
						1.7999998331069946,
						1.7999998331069946,
						1.7999998331069946
					]
				}
			},
			"name":"es_blade_top",
			"pbrMetallicRoughness":{
				"baseColorFactor":[
					0.6000000238418579,
					0.6000000238418579,
					0.6000000238418579,
					1
				],
				"metallicFactor":0
			}
		}
	],
	"meshes":[
		{
			"name":"Energy Sword",
			"primitives":[
				{
					"attributes":{
						"POSITION":0,
						"NORMAL":1,
						"TEXCOORD_0":2
					},
					"indices":3,
					"material":0
				},
				{
					"attributes":{
						"POSITION":4,
						"NORMAL":5,
						"TEXCOORD_0":6
					},
					"indices":7,
					"material":1
				}
			]
		}
	],
	"accessors":[
		{
			"bufferView":0,
			"componentType":5126,
			"count":1682,
			"max":[
				38.500003814697266,
				7.954973220825195,
				2.471843957901001
			],
			"min":[
				-9.432062149047852,
				-6.916621208190918,
				-2
			],
			"type":"VEC3"
		},
		{
			"bufferView":1,
			"componentType":5126,
			"count":1682,
			"type":"VEC3"
		},
		{
			"bufferView":2,
			"componentType":5126,
			"count":1682,
			"type":"VEC2"
		},
		{
			"bufferView":3,
			"componentType":5123,
			"count":9642,
			"type":"SCALAR"
		},
		{
			"bufferView":4,
			"componentType":5126,
			"count":50,
			"max":[
				35,
				8.530621528625488,
				0.75
			],
			"min":[
				-6.498709201812744,
				-4.068201065063477,
				-0.75
			],
			"type":"VEC3"
		},
		{
			"bufferView":5,
			"componentType":5126,
			"count":50,
			"type":"VEC3"
		},
		{
			"bufferView":6,
			"componentType":5126,
			"count":50,
			"type":"VEC2"
		},
		{
			"bufferView":7,
			"componentType":5123,
			"count":150,
			"type":"SCALAR"
		}
	],
	"bufferViews":[
		{
			"buffer":0,
			"byteLength":20184,
			"byteOffset":0,
			"target":34962
		},
		{
			"buffer":0,
			"byteLength":20184,
			"byteOffset":20184,
			"target":34962
		},
		{
			"buffer":0,
			"byteLength":13456,
			"byteOffset":40368,
			"target":34962
		},
		{
			"buffer":0,
			"byteLength":19284,
			"byteOffset":53824,
			"target":34963
		},
		{
			"buffer":0,
			"byteLength":600,
			"byteOffset":73108,
			"target":34962
		},
		{
			"buffer":0,
			"byteLength":600,
			"byteOffset":73708,
			"target":34962
		},
		{
			"buffer":0,
			"byteLength":400,
			"byteOffset":74308,
			"target":34962
		},
		{
			"buffer":0,
			"byteLength":300,
			"byteOffset":74708,
			"target":34963
		}
	],
	"buffers":[
		{
			"byteLength":75008,
			"uri":"energysword.bin"
		}
	]
}
