{
	"asset":{
		"generator":"Khronos glTF Blender I/O v4.2.60",
		"version":"2.0"
	},
	"extensionsUsed":[
		"KHR_materials_transmission",
		"KHR_materials_specular"
	],
	"scene":0,
	"scenes":[
		{
			"name":"Scene",
			"nodes":[
				0
			]
		}
	],
	"nodes":[
		{
			"mesh":0,
			"name":"Needler",
			"rotation":[
				0.7071068286895752,
				0,
				0,
				0.7071068286895752
			],
			"scale":[
				0.05874991416931152,
				0.05874991416931152,
				0.05874991416931152
			]
		}
	],
	"materials":[
		{
			"doubleSided":true,
			"extensions":{
				"KHR_materials_transmission":{
					"transmissionFactor":1
				},
				"KHR_materials_specular":{
					"specularFactor":0.699999988079071
				}
			},
			"name":"wire_174186203",
			"pbrMetallicRoughness":{
				"baseColorFactor":[
					0.6823999881744385,
					0.7293999791145325,
					0.7961000204086304,
					1
				],
				"metallicFactor":0,
				"roughnessFactor":0.8211145401000977
			}
		},
		{
			"doubleSided":true,
			"extensions":{
				"KHR_materials_transmission":{
					"transmissionFactor":1
				},
				"KHR_materials_specular":{
					"specularFactor":0.699999988079071
				}
			},
			"name":"wire_028089177",
			"pbrMetallicRoughness":{
				"baseColorFactor":[
					0.10980000346899033,
					0.3490000069141388,
					0.694100022315979,
					1
				],
				"metallicFactor":0,
				"roughnessFactor":0.8211145401000977
			}
		},
		{
			"doubleSided":true,
			"extensions":{
				"KHR_materials_transmission":{
					"transmissionFactor":1
				},
				"KHR_materials_specular":{
					"specularFactor":0.699999988079071
				}
			},
			"name":"wire_228153184",
			"pbrMetallicRoughness":{
				"baseColorFactor":[
					0.89410001039505,
					0.6000000238418579,
					0.7215999960899353,
					1
				],
				"metallicFactor":0,
				"roughnessFactor":0.8211145401000977
			}
		},
		{
			"doubleSided":true,
			"extensions":{
				"KHR_materials_transmission":{
					"transmissionFactor":1
				},
				"KHR_materials_specular":{
					"specularFactor":0
				}
			},
			"name":"needler_gun",
			"normalTexture":{
				"index":0,
				"scale":0
			},
			"pbrMetallicRoughness":{
				"baseColorTexture":{
					"index":1
				},
				"metallicFactor":0,
				"roughnessFactor":0.8999999761581421
			}
		}
	],
	"meshes":[
		{
			"name":"Needler",
			"primitives":[
				{
					"attributes":{
						"POSITION":0,
						"NORMAL":1,
						"TEXCOORD_0":2
					},
					"indices":3,
					"material":0
				},
				{
					"attributes":{
						"POSITION":4,
						"NORMAL":5,
						"TEXCOORD_0":6
					},
					"indices":7,
					"material":1
				},
				{
					"attributes":{
						"POSITION":8,
						"NORMAL":9,
						"TEXCOORD_0":10
					},
					"indices":11,
					"material":2
				},
				{
					"attributes":{
						"POSITION":12,
						"NORMAL":13,
						"TEXCOORD_0":14
					},
					"indices":15,
					"material":3
				}
			]
		}
	],
	"textures":[
		{
			"sampler":0,
			"source":0
		},
		{
			"sampler":0,
			"source":1
		}
	],
	"images":[
		{
			"mimeType":"image/png",
			"name":"needler multipurpose map",
			"uri":"needler%20multipurpose%20map.png"
		},
		{
			"mimeType":"image/png",
			"name":"needler",
			"uri":"needler.png"
		}
	],
	"accessors":[
		{
			"bufferView":0,
			"componentType":5126,
			"count":9,
			"max":[
				2,
				1,
				1
			],
			"min":[
				0,
				-1,
				-1
			],
			"type":"VEC3"
		},
		{
			"bufferView":1,
			"componentType":5126,
			"count":9,
			"type":"VEC3"
		},
		{
			"bufferView":2,
			"componentType":5126,
			"count":9,
			"type":"VEC2"
		},
		{
			"bufferView":3,
			"componentType":5123,
			"count":42,
			"type":"SCALAR"
		},
		{
			"bufferView":4,
			"componentType":5126,
			"count":570,
			"max":[
				11.372200012207031,
				3.838099956512451,
				3.0994999408721924
			],
			"min":[
				-4.174200057983398,
				-3.974400043487549,
				-9.022100448608398
			],
			"type":"VEC3"
		},
		{
			"bufferView":5,
			"componentType":5126,
			"count":570,
			"type":"VEC3"
		},
		{
			"bufferView":6,
			"componentType":5126,
			"count":570,
			"type":"VEC2"
		},
		{
			"bufferView":7,
			"componentType":5123,
			"count":3360,
			"type":"SCALAR"
		},
		{
			"bufferView":8,
			"componentType":5126,
			"count":65,
			"max":[
				5.6331000328063965,
				2.643699884414673,
				-1.195199966430664
			],
			"min":[
				-9.736499786376953,
				-2.616300106048584,
				-10.31089973449707
			],
			"type":"VEC3"
		},
		{
			"bufferView":9,
			"componentType":5126,
			"count":65,
			"type":"VEC3"
		},
		{
			"bufferView":10,
			"componentType":5126,
			"count":65,
			"type":"VEC2"
		},
		{
			"bufferView":11,
			"componentType":5123,
			"count":99,
			"type":"SCALAR"
		},
		{
			"bufferView":12,
			"componentType":5126,
			"count":479,
			"max":[
				9.771400451660156,
				3.285799980163574,
				9.489100456237793
			],
			"min":[
				-12.320799827575684,
				-3.285799980163574,
				-7.250100135803223
			],
			"type":"VEC3"
		},
		{
			"bufferView":13,
			"componentType":5126,
			"count":479,
			"type":"VEC3"
		},
		{
			"bufferView":14,
			"componentType":5126,
			"count":479,
			"type":"VEC2"
		},
		{
			"bufferView":15,
			"componentType":5123,
			"count":1632,
			"type":"SCALAR"
		}
	],
	"bufferViews":[
		{
			"buffer":0,
			"byteLength":108,
			"byteOffset":0,
			"target":34962
		},
		{
			"buffer":0,
			"byteLength":108,
			"byteOffset":108,
			"target":34962
		},
		{
			"buffer":0,
			"byteLength":72,
			"byteOffset":216,
			"target":34962
		},
		{
			"buffer":0,
			"byteLength":84,
			"byteOffset":288,
			"target":34963
		},
		{
			"buffer":0,
			"byteLength":6840,
			"byteOffset":372,
			"target":34962
		},
		{
			"buffer":0,
			"byteLength":6840,
			"byteOffset":7212,
			"target":34962
		},
		{
			"buffer":0,
			"byteLength":4560,
			"byteOffset":14052,
			"target":34962
		},
		{
			"buffer":0,
			"byteLength":6720,
			"byteOffset":18612,
			"target":34963
		},
		{
			"buffer":0,
			"byteLength":780,
			"byteOffset":25332,
			"target":34962
		},
		{
			"buffer":0,
			"byteLength":780,
			"byteOffset":26112,
			"target":34962
		},
		{
			"buffer":0,
			"byteLength":520,
			"byteOffset":26892,
			"target":34962
		},
		{
			"buffer":0,
			"byteLength":198,
			"byteOffset":27412,
			"target":34963
		},
		{
			"buffer":0,
			"byteLength":5748,
			"byteOffset":27612,
			"target":34962
		},
		{
			"buffer":0,
			"byteLength":5748,
			"byteOffset":33360,
			"target":34962
		},
		{
			"buffer":0,
			"byteLength":3832,
			"byteOffset":39108,
			"target":34962
		},
		{
			"buffer":0,
			"byteLength":3264,
			"byteOffset":42940,
			"target":34963
		}
	],
	"samplers":[
		{
			"magFilter":9729,
			"minFilter":9987
		}
	],
	"buffers":[
		{
			"byteLength":46204,
			"uri":"needler.bin"
		}
	]
}
