{
	"asset":{
		"generator":"Khronos glTF Blender I/O v4.2.60",
		"version":"2.0"
	},
	"scene":0,
	"scenes":[
		{
			"name":"Scene",
			"nodes":[
				0
			]
		}
	],
	"nodes":[
		{
			"mesh":0,
			"name":"Props01a_Near_Mpve_MF03",
			"rotation":[
				0.7071068286895752,
				0,
				0,
				0.7071068286895752
			],
			"scale":[
				0.41397523880004883,
				0.41397523880004883,
				0.41397523880004883
			]
		}
	],
	"materials":[
		{
			"doubleSided":true,
			"name":"Default_OBJ",
			"pbrMetallicRoughness":{
				"baseColorTexture":{
					"index":0
				},
				"metallicFactor":0,
				"roughnessFactor":0.525658369064331
			}
		},
		{
			"doubleSided":true,
			"name":"Material.001",
			"pbrMetallicRoughness":{
				"baseColorTexture":{
					"index":1
				},
				"metallicFactor":0,
				"roughnessFactor":0.4307900071144104
			}
		}
	],
	"meshes":[
		{
			"name":"Props01a_Near_Mpve_MF03",
			"primitives":[
				{
					"attributes":{
						"POSITION":0,
						"NORMAL":1,
						"TEXCOORD_0":2
					},
					"indices":3,
					"material":0
				},
				{
					"attributes":{
						"POSITION":4,
						"NORMAL":5,
						"TEXCOORD_0":6
					},
					"indices":7,
					"material":1
				}
			]
		}
	],
	"textures":[
		{
			"sampler":0,
			"source":0
		},
		{
			"sampler":0,
			"source":1
		}
	],
	"images":[
		{
			"mimeType":"image/png",
			"name":"Props01a_Near_Mpve_MF03_D_LOD1",
			"uri":"Props01a_Near_Mpve_MF03_D_LOD1.png"
		},
		{
			"mimeType":"image/png",
			"name":"Props01b_Near_Mpve_MF03_D_LOD1",
			"uri":"Props01b_Near_Mpve_MF03_D_LOD1.png"
		}
	],
	"accessors":[
		{
			"bufferView":0,
			"componentType":5126,
			"count":444,
			"max":[
				6.017861843109131,
				6.017873764038086,
				5.313878059387207
			],
			"min":[
				-6.017871856689453,
				-6.056049823760986,
				-6.1344780921936035
			],
			"type":"VEC3"
		},
		{
			"bufferView":1,
			"componentType":5126,
			"count":444,
			"type":"VEC3"
		},
		{
			"bufferView":2,
			"componentType":5126,
			"count":444,
			"type":"VEC2"
		},
		{
			"bufferView":3,
			"componentType":5123,
			"count":1077,
			"type":"SCALAR"
		},
		{
			"bufferView":4,
			"componentType":5126,
			"count":2689,
			"max":[
				8.498146057128906,
				8.505213737487793,
				6.134476184844971
			],
			"min":[
				-8.49814224243164,
				-8.498143196105957,
				-1.4503899812698364
			],
			"type":"VEC3"
		},
		{
			"bufferView":5,
			"componentType":5126,
			"count":2689,
			"type":"VEC3"
		},
		{
			"bufferView":6,
			"componentType":5126,
			"count":2689,
			"type":"VEC2"
		},
		{
			"bufferView":7,
			"componentType":5123,
			"count":7788,
			"type":"SCALAR"
		}
	],
	"bufferViews":[
		{
			"buffer":0,
			"byteLength":5328,
			"byteOffset":0,
			"target":34962
		},
		{
			"buffer":0,
			"byteLength":5328,
			"byteOffset":5328,
			"target":34962
		},
		{
			"buffer":0,
			"byteLength":3552,
			"byteOffset":10656,
			"target":34962
		},
		{
			"buffer":0,
			"byteLength":2154,
			"byteOffset":14208,
			"target":34963
		},
		{
			"buffer":0,
			"byteLength":32268,
			"byteOffset":16364,
			"target":34962
		},
		{
			"buffer":0,
			"byteLength":32268,
			"byteOffset":48632,
			"target":34962
		},
		{
			"buffer":0,
			"byteLength":21512,
			"byteOffset":80900,
			"target":34962
		},
		{
			"buffer":0,
			"byteLength":15576,
			"byteOffset":102412,
			"target":34963
		}
	],
	"samplers":[
		{
			"magFilter":9729,
			"minFilter":9987
		}
	],
	"buffers":[
		{
			"byteLength":117988,
			"uri":"UFO.bin"
		}
	]
}
